/* XPM */
static char * icon32_xpm[] = {
"32 32 112 2",
"  	c None",
". 	c #5B6B5B",
"+ 	c #A5A5A5",
"@ 	c #A6A6A6",
"# 	c #686868",
"$ 	c #7B7B7B",
"% 	c #FFFFFF",
"& 	c #B9B9B9",
"* 	c #BFBFBF",
"= 	c #606060",
"- 	c #868686",
"; 	c #C5C5C5",
"> 	c #D5D5D5",
", 	c #979797",
"' 	c #FAFAFA",
") 	c #BDBDBD",
"! 	c #AAAAAA",
"~ 	c #555555",
"{ 	c #F5F5F5",
"] 	c #1F1F1F",
"^ 	c #000000",
"/ 	c #929292",
"( 	c #E0E0E0",
"_ 	c #0B0B0B",
": 	c #020202",
"< 	c #C2C2C2",
"[ 	c #8D8D8D",
"} 	c #C0C0C0",
"| 	c #464646",
"1 	c #121212",
"2 	c #7D7D7D",
"3 	c #EAEAEA",
"4 	c #FEFEFE",
"5 	c #A3A3A3",
"6 	c #313131",
"7 	c #232323",
"8 	c #8B8B8B",
"9 	c #FCFCFC",
"0 	c #898989",
"a 	c #343434",
"b 	c #8E8E8E",
"c 	c #666666",
"d 	c #D9D9D9",
"e 	c #2C2C2C",
"f 	c #2F2F2F",
"g 	c #DADADA",
"h 	c #161616",
"i 	c #3E3E3E",
"j 	c #525252",
"k 	c #0A0A0A",
"l 	c #636363",
"m 	c #B3B3B3",
"n 	c #090909",
"o 	c #4D4D4D",
"p 	c #959595",
"q 	c #171717",
"r 	c #1B1B1B",
"s 	c #EEEEEE",
"t 	c #A8A8A8",
"u 	c #545454",
"v 	c #DCDCDC",
"w 	c #E9E9E9",
"x 	c #878787",
"y 	c #6B6B6B",
"z 	c #E6E6E6",
"A 	c #5A5A5A",
"B 	c #5C5C5C",
"C 	c #9E9E9E",
"D 	c #C3C3C3",
"E 	c #E2E2E2",
"F 	c #E3E3E3",
"G 	c #B1B1B1",
"H 	c #0E0E0E",
"I 	c #F4F4F4",
"J 	c #848484",
"K 	c #1D1D1D",
"L 	c #383838",
"M 	c #ABABAB",
"N 	c #535353",
"O 	c #4E4E4E",
"P 	c #505050",
"Q 	c #C8C8C8",
"R 	c #818181",
"S 	c #F7F7F7",
"T 	c #FDFDFD",
"U 	c #E8E8E8",
"V 	c #626262",
"W 	c #8A8A8A",
"X 	c #DDDDDD",
"Y 	c #070707",
"Z 	c #BBBBBB",
"` 	c #454545",
" .	c #737373",
"..	c #DEDEDE",
"+.	c #919191",
"@.	c #7C7C7C",
"#.	c #B8B8B8",
"$.	c #5F5F5F",
"%.	c #E1E1E1",
"&.	c #4B4B4B",
"*.	c #0D0D0D",
"=.	c #727272",
"-.	c #0C0C0C",
";.	c #A4A4A4",
">.	c #B0B0B0",
",.	c #FBFBFB",
"'.	c #C9C9C9",
").	c #C7C7C7",
"!.	c #787878",
"~.	c #444444",
"{.	c #434343",
"].	c #757575",
"                                                                ",
"                                                                ",
"                                                                ",
"                                                                ",
"                                                                ",
"                                                                ",
"                                                                ",
"        . + + + + + + + + + + + + + + + + + + + + + + + .       ",
"        + @ # $ % % % % % % % % % % % % % % % % % % % % +       ",
"        + & * = % % % % % % % % % % % % % % % % % % % % +       ",
"        + % - ; % % % > , ' % % % % % % ) ! % % % % % % +       ",
"        + % ~ { % % % ] ^ / % % % % % ( _ : < % % % % % +       ",
"        + % [ % % % } | 1 2 3 % % % 4 5 6 7 8 9 % % % % +       ",
"        + % 0 8 % } ^ ^ ^ ^ a % % % b ^ ^ ^ ^ c % % % % +       ",
"        + d e f g d h i j k l % % % m n o o ^ p % % % % +       ",
"        + q n n r % s t u v ' % % % % w x y z % % % % % +       ",
"        + + A B @ % % % % % % 4 C D % % % % % % % % % % +       ",
"        + % E F % % % % % % % G ^ H s % % % % % % % % % +       ",
"        + % % % % % % % % % I J K L M 4 % % % % % % % % +       ",
"        + % % % % % % % % % N ^ ^ ^ ^ C % % % % % % % % +       ",
"        + % % % % % % % % % - : O P H D % % % % % % % % +       ",
"        + % % % % % % Q R S T U V p s % M p % % % % % % +       ",
"        + % % % % % % q ^ W % % % % % X Y : Z % % % % % +       ",
"        + % % % % % ! ` 1  ...% % % ' +.6 7 @.{ % % % % +       ",
"        + % % % % #.^ ^ ^ ^ e % % % - ^ ^ ^ ^ $.% % % % +       ",
"        + % % % % %.K &.= *.=.% % % } -.B B ^ ;.% % % % +       ",
"        + % % % % % T >.B s 4 % % % % 9 [ =.,.% % % % % +       ",
"        + % % % % % % % % % % % % % % % % % % % % % % % +       ",
"        + % % % % % % % % % % % % % % % % % % % % % % % +       ",
"        + % % % % % % % % % % % % % % % % % % % % % % % +       ",
"        + % % % % % % % % % % % % % % % % % % % % '.).% +       ",
"        + % % % % % % % % % % % % % % % % % % % !.~.{.].+       "};
