/* XPM */
static char *b2fh[] = {
/* columns rows colors chars-per-pixel */
"96 71 5 1",
"  c black",
". c #008000",
"X c red",
"o c #808080",
"O c white",
/* pixels */
".                                                                                              .",
" oOOOOOOOOOOOOOOOOOOOOOOOOOOOOOOOOOOOOOOOOOOOOOOOOOOOOOOOOOOOOOOOOOOOOOOOOOOOOOOOOOOOOOOOOOOOOo ",
" OOOOOOOOOOOOOOOOOOOOOOOOOOOOOOOOOOOOOOOOOOOOOOOOOOOOOOOOOOOOOOOOOOOOOOOOOOOOOOOOOOOOOOOOOOOOOO ",
" OOOOOOOOOOOOOOOOOOOOOOOOOOOOOOOOOOOOOOOOOOOOOOOOOOOOOOOOOOOOOOOOOOOOOOOOOOOOOOOOOOOOOOOOOOOOOO ",
" OOOXXXXXXXXXXXXXXXXXXXXXXXXXXXXXXXXXXXXXXXXXXXXXXXXXXXXXXXXXXXXXXXXXXXXXXXXXXXXXXXXXXXXXXXXOOO ",
" OOOXXXXXXXXXXXXXXXXXXXXXXXXXXXXXXXXXXXXXXXXXXXXXXXXXXXXXXXXXXXXXXXXXXXXXXXXXXXXXXXXXXXXXXXXOOO ",
" OOOXXOOOOOOOOOOOOOOOOOOOOOOOOOOOOOOOOOOOOOOOOOOOOOOOOOOOOOOOOOOOOOOOOOOOOOOOOOOOOOOOOOOOOXXOOO ",
" OOOXXOXXXXXXXXXXXXXXXXXXXXXXXXXXXXXXXXXXXXXXXXXXXXXXXXXXXXXXXXXXXXXXXXXXXXXXXXXXXXXXXXXXOXXOOO ",
" OOOXXOXXOXXXOXXXOXXXOXXXOXXXOXXXOXXXOXXXOXXXOXXXOXXXOXXXOXXXOXXXOXXXOXXXOXXXOXXXOXXXOXXXOXXOOO ",
" OOOXXOXXOXXXOXXXOXXXOXXXOXXXOXXXOXXXOXXXOXXXOXXXOXXXOXXXOXXXOXXXOXXXOXXXOXXXOXXXOXXXOXXXOXXOOO ",
" OOOXXOXXXXOXXXOXXXOXXXOXXXOXXXOXXXOXXXOXXXOXXXOXXXOXXXOXXXOXXXOXXXOXXXOXXXOXXXOXXXOXXXOXOXXOOO ",
" OOOXXOXXXXOXXXOXXXOXXXOXXXOXXXOXXXOXXXOXXXOXXXOXXXOXXXOXXXOXXXOXXXOXXXOXXXOXXXOXXXOXXXOXOXXOOO ",
" OOOXXOXXOXXXOXXXOXXXOXXXOXXXOXXXOXXXOXXXOXXXOXXXOXXXOXXXOXXXOXXXOXXXOXXXOXXXOXXXOXXXOXXXOXXOOO ",
" OOOXXOXXOXXXOXXXOXXXOXXXOXXXOXXXOXXXOXXXOXXXOXXXOXXXOXXXOXXXOXXXOXXXOXXXOXXXOXXXOXXXOXXXOXXOOO ",
" OOOXXOXXXXOXXXOXXXOXXXOXXXOXXXOXXXOXXXOXXXOXXXOXXXOXXXOXXXOXXXOXXXOXXXOXXXOXXXOXXXOXXXOXOXXOOO ",
" OOOXXOXXXXOXXXOXXXOXXXOXXXOXXXOXXXOXXXOXXXOXXXOXXXOXXXOXXXOXXXOXXXOXXXOXXXOXXXOXXXOXXXOXOXXOOO ",
" OOOXXOXXOXXXOXXXOXXXOXXXOXXXOXXXOXXXOXXXOXXXOXXXOXXXOXXXOXXXOXXXOXXXOXXXOXXXOXXXOXXXOXXXOXXOOO ",
" OOOXXOXXOXXXOXXXOXXXOXXXOXXXOXXXOXXXOXXXOXXXOXXXOXXXOXXXOXXXOXXXOXXXOXXXOXXXOXXXOXXXOXXXOXXOOO ",
" OOOXXOXXXXOXXXOXXXOXXXOXXXOXXXOXXXOXXXOXXXOXXXOXXXOXXXOXXXOXXXOXXXOXXXOXXXOXXXOXXXOXXXOXOXXOOO ",
" OOOXXOXXXXOXXXOXXXOXXXOXXXOXXXOXXXOXXXOXXXOXXXOXXXOXXXOXXXOXXXOXXXOXXXOXXXOXXXOXXXOXXXOXOXXOOO ",
" OOOXXOXXOXXXOXXXOXXXOXXXOXXXOXXXOXXXOXXXOXXXOXXXOXXXOXXXOXXXOXXXOXXXOXXXOXXXOXXXOXXXOXXXOXXOOO ",
" OOOXXOXXOXXXOXXXOXXXOXXXOXXXOXXXOXXXOXXXOXXXOXXXOXXXOXXXOXXXOXXXOXXXOXXXOXXXOXXXOXXXOXXXOXXOOO ",
" OOOXXOXXXXOXXXOXXXOXXXOXXXOXXXOXXXOXXXOXXXOXXXOXXXOXXXOXXXOXXXOXXXOXXXOXXXOXXXOXXXOXXXOXOXXOOO ",
" OOOXXOXXXXOXXXOXXXOXXXOXXXOXXXOXXXOXXXOXXXOXXXOXXXOXXXOXXXOXXXOXXXOXXXOXXXOXXXOXXXOXXXOXOXXOOO ",
" OOOXXOXXOXXXOXXXOXXXOXXXOXXXOXXXOXXXOXXXOXXXOXXXOXXXOXXXOXXXOXXXOXXXOXXXOXXXOXXXOXXXOXXXOXXOOO ",
" OOOXXOXXOXXXOXXXOXXXOXXXOXXXOXXXOXXXOXXXOXXXOXXXOXXXOXXXOXXXOXXXOXXXOXXXOXXXOXXXOXXXOXXXOXXOOO ",
" OOOXXOXXXXOXXXOXXXOXXXOXXXOXXXOXXXOXXXOXXXOXXXOXXXOXXXOXXXOXXXOXXXOXXXOXXXOXXXOXXXOXXXOXOXXOOO ",
" OOOXXOXXXXOXXXOXXXOXXXOXXXOXXXOXXXOXXXOXXXOXXXOXXXOXXXOXXXOXXXOXXXOXXXOXXXOXXXOXXXOXXXOXOXXOOO ",
" OOOXXOXXOXXXOXXXOXXXOXXXOXXXOXXXOXXXOXXXOXXXOXXXOXXXOXXXOXXXOXXXOXXXOXXXOXXXOXXXOXXXOXXXOXXOOO ",
" OOOXXOXXOXXXOXXXOXXXOXXXOXXXOXXXOXXXOXXXOXXXOXXXOXXXOXXXOXXXOXXXOXXXOXXXOXXXOXXXOXXXOXXXOXXOOO ",
" OOOXXOXXXXOXXXOXXXOXXXOXXXOXXXOXXXOXXXOXXXOXXXOXXXOXXXOXXXOXXXOXXXOXXXOXXXOXXXOXXXOXXXOXOXXOOO ",
" OOOXXOXXXXOXXXOXXXOXXXOXXXOXXXOXXXOXXXOXXXOXXXOXXXOXXXOXXXOXXXOXXXOXXXOXXXOXXXOXXXOXXXOXOXXOOO ",
" OOOXXOXXOXXXOXXXOXXXOXXXOXXXOXXXOXXXOXXXOXXXOXXXOXXXOXXXOXXXOXXXOXXXOXXXOXXXOXXXOXXXOXXXOXXOOO ",
" OOOXXOXXOXXXOXXXOXXXOXXXOXXXOXXXOXXXOXXXOXXXOXXXOXXXOXXXOXXXOXXXOXXXOXXXOXXXOXXXOXXXOXXXOXXOOO ",
" OOOXXOXXXXOXXXOXXXOXXXOXXXOXXXOXXXOXXXOXXXOXXXOXXXOXXXOXXXOXXXOXXXOXXXOXXXOXXXOXXXOXXXOXOXXOOO ",
" OOOXXOXXXXOXXXOXXXOXXXOXXXOXXXOXXXOXXXOXXXOXXXOXXXOXXXOXXXOXXXOXXXOXXXOXXXOXXXOXXXOXXXOXOXXOOO ",
" OOOXXOXXOXXXOXXXOXXXOXXXOXXXOXXXOXXXOXXXOXXXOXXXOXXXOXXXOXXXOXXXOXXXOXXXOXXXOXXXOXXXOXXXOXXOOO ",
" OOOXXOXXOXXXOXXXOXXXOXXXOXXXOXXXOXXXOXXXOXXXOXXXOXXXOXXXOXXXOXXXOXXXOXXXOXXXOXXXOXXXOXXXOXXOOO ",
" OOOXXOXXXXOXXXOXXXOXXXOXXXOXXXOXXXOXXXOXXXOXXXOXXXOXXXOXXXOXXXOXXXOXXXOXXXOXXXOXXXOXXXOXOXXOOO ",
" OOOXXOXXXXOXXXOXXXOXXXOXXXOXXXOXXXOXXXOXXXOXXXOXXXOXXXOXXXOXXXOXXXOXXXOXXXOXXXOXXXOXXXOXOXXOOO ",
" OOOXXOXXOXXXOXXXOXXXOXXXOXXXOXXXOXXXOXXXOXXXOXXXOXXXOXXXOXXXOXXXOXXXOXXXOXXXOXXXOXXXOXXXOXXOOO ",
" OOOXXOXXOXXXOXXXOXXXOXXXOXXXOXXXOXXXOXXXOXXXOXXXOXXXOXXXOXXXOXXXOXXXOXXXOXXXOXXXOXXXOXXXOXXOOO ",
" OOOXXOXXXXOXXXOXXXOXXXOXXXOXXXOXXXOXXXOXXXOXXXOXXXOXXXOXXXOXXXOXXXOXXXOXXXOXXXOXXXOXXXOXOXXOOO ",
" OOOXXOXXXXOXXXOXXXOXXXOXXXOXXXOXXXOXXXOXXXOXXXOXXXOXXXOXXXOXXXOXXXOXXXOXXXOXXXOXXXOXXXOXOXXOOO ",
" OOOXXOXXOXXXOXXXOXXXOXXXOXXXOXXXOXXXOXXXOXXXOXXXOXXXOXXXOXXXOXXXOXXXOXXXOXXXOXXXOXXXOXXXOXXOOO ",
" OOOXXOXXOXXXOXXXOXXXOXXXOXXXOXXXOXXXOXXXOXXXOXXXOXXXOXXXOXXXOXXXOXXXOXXXOXXXOXXXOXXXOXXXOXXOOO ",
" OOOXXOXXXXOXXXOXXXOXXXOXXXOXXXOXXXOXXXOXXXOXXXOXXXOXXXOXXXOXXXOXXXOXXXOXXXOXXXOXXXOXXXOXOXXOOO ",
" OOOXXOXXXXOXXXOXXXOXXXOXXXOXXXOXXXOXXXOXXXOXXXOXXXOXXXOXXXOXXXOXXXOXXXOXXXOXXXOXXXOXXXOXOXXOOO ",
" OOOXXOXXOXXXOXXXOXXXOXXXOXXXOXXXOXXXOXXXOXXXOXXXOXXXOXXXOXXXOXXXOXXXOXXXOXXXOXXXOXXXOXXXOXXOOO ",
" OOOXXOXXOXXXOXXXOXXXOXXXOXXXOXXXOXXXOXXXOXXXOXXXOXXXOXXXOXXXOXXXOXXXOXXXOXXXOXXXOXXXOXXXOXXOOO ",
" OOOXXOXXXXOXXXOXXXOXXXOXXXOXXXOXXXOXXXOXXXOXXXOXXXOXXXOXXXOXXXOXXXOXXXOXXXOXXXOXXXOXXXOXOXXOOO ",
" OOOXXOXXXXOXXXOXXXOXXXOXXXOXXXOXXXOXXXOXXXOXXXOXXXOXXXOXXXOXXXOXXXOXXXOXXXOXXXOXXXOXXXOXOXXOOO ",
" OOOXXOXXOXXXOXXXOXXXOXXXOXXXOXXXOXXXOXXXOXXXOXXXOXXXOXXXOXXXOXXXOXXXOXXXOXXXOXXXOXXXOXXXOXXOOO ",
" OOOXXOXXOXXXOXXXOXXXOXXXOXXXOXXXOXXXOXXXOXXXOXXXOXXXOXXXOXXXOXXXOXXXOXXXOXXXOXXXOXXXOXXXOXXOOO ",
" OOOXXOXXXXOXXXOXXXOXXXOXXXOXXXOXXXOXXXOXXXOXXXOXXXOXXXOXXXOXXXOXXXOXXXOXXXOXXXOXXXOXXXOXOXXOOO ",
" OOOXXOXXXXOXXXOXXXOXXXOXXXOXXXOXXXOXXXOXXXOXXXOXXXOXXXOXXXOXXXOXXXOXXXOXXXOXXXOXXXOXXXOXOXXOOO ",
" OOOXXOXXOXXXOXXXOXXXOXXXOXXXOXXXOXXXOXXXOXXXOXXXOXXXOXXXOXXXOXXXOXXXOXXXOXXXOXXXOXXXOXXXOXXOOO ",
" OOOXXOXXOXXXOXXXOXXXOXXXOXXXOXXXOXXXOXXXOXXXOXXXOXXXOXXXOXXXOXXXOXXXOXXXOXXXOXXXOXXXOXXXOXXOOO ",
" OOOXXOXXXXOXXXOXXXOXXXOXXXOXXXOXXXOXXXOXXXOXXXOXXXOXXXOXXXOXXXOXXXOXXXOXXXOXXXOXXXOXXXOXOXXOOO ",
" OOOXXOXXXXOXXXOXXXOXXXOXXXOXXXOXXXOXXXOXXXOXXXOXXXOXXXOXXXOXXXOXXXOXXXOXXXOXXXOXXXOXXXOXOXXOOO ",
" OOOXXOXXOXXXOXXXOXXXOXXXOXXXOXXXOXXXOXXXOXXXOXXXOXXXOXXXOXXXOXXXOXXXOXXXOXXXOXXXOXXXOXXXOXXOOO ",
" OOOXXOXXOXXXOXXXOXXXOXXXOXXXOXXXOXXXOXXXOXXXOXXXOXXXOXXXOXXXOXXXOXXXOXXXOXXXOXXXOXXXOXXXOXXOOO ",
" OOOXXOXXXXOXXXOXXXOXXXOXXXOXXXOXXXOXXXOXXXOXXXOXXXOXXXOXXXOXXXOXXXOXXXOXXXOXXXOXXXOXXXOXOXXOOO ",
" OOOXXOXXXXXXXXXXXXXXXXXXXXXXXXXXXXXXXXXXXXXXXXXXXXXXXXXXXXXXXXXXXXXXXXXXXXXXXXXXXXXXXXXXOXXOOO ",
" OOOXXOOOOOOOOOOOOOOOOOOOOOOOOOOOOOOOOOOOOOOOOOOOOOOOOOOOOOOOOOOOOOOOOOOOOOOOOOOOOOOOOOOOOXXOOO ",
" OOOXXXXXXXXXXXXXXXXXXXXXXXXXXXXXXXXXXXXXXXXXXXXXXXXXXXXXXXXXXXXXXXXXXXXXXXXXXXXXXXXXXXXXXXXOOO ",
" OOOXXXXXXXXXXXXXXXXXXXXXXXXXXXXXXXXXXXXXXXXXXXXXXXXXXXXXXXXXXXXXXXXXXXXXXXXXXXXXXXXXXXXXXXXOOO ",
" OOOOOOOOOOOOOOOOOOOOOOOOOOOOOOOOOOOOOOOOOOOOOOOOOOOOOOOOOOOOOOOOOOOOOOOOOOOOOOOOOOOOOOOOOOOOOO ",
" OOOOOOOOOOOOOOOOOOOOOOOOOOOOOOOOOOOOOOOOOOOOOOOOOOOOOOOOOOOOOOOOOOOOOOOOOOOOOOOOOOOOOOOOOOOOOO ",
" oOOOOOOOOOOOOOOOOOOOOOOOOOOOOOOOOOOOOOOOOOOOOOOOOOOOOOOOOOOOOOOOOOOOOOOOOOOOOOOOOOOOOOOOOOOOOo ",
".                                                                                              ."
};
