/* XPM */
static char *b2pb[] = {
/* columns rows colors chars-per-pixel */
"96 11 5 1",
"  c black",
". c #008000",
"X c red",
"o c #808080",
"O c white",
/* pixels */
" OOOXXOXXXXOXXXOXXXOXXXOXXXOXXXOXXXOXXXOXXXOXXXOXXXOXXXOXXXOXXXOXXXOXXXOXXXOXXXOXXXOXXXOXOXXOOO ",
" OOOXXOXXOXXXOXXXOXXXOXXXOXXXOXXXOXXXOXXXOXXXOXXXOXXXOXXXOXXXOXXXOXXXOXXXOXXXOXXXOXXXOXXXOXXOOO ",
" OOOXXOXXOXXXOXXXOXXXOXXXOXXXOXXXOXXXOXXXOXXXOXXXOXXXOXXXOXXXOXXXOXXXOXXXOXXXOXXXOXXXOXXXOXXOOO ",
" OOOXXOXXXXXXXXXXXXXXXXXXXXXXXXXXXXXXXXXXXXXXXXXXXXXXXXXXXXXXXXXXXXXXXXXXXXXXXXXXXXXXXXXXOXXOOO ",
" OOOXXOOOOOOOOOOOOOOOOOOOOOOOOOOOOOOOOOOOOOOOOOOOOOOOOOOOOOOOOOOOOOOOOOOOOOOOOOOOOOOOOOOOOXXOOO ",
" OOOXXXXXXXXXXXXXXXXXXXXXXXXXXXXXXXXXXXXXXXXXXXXXXXXXXXXXXXXXXXXXXXXXXXXXXXXXXXXXXXXXXXXXXXXOOO ",
" OOOXXXXXXXXXXXXXXXXXXXXXXXXXXXXXXXXXXXXXXXXXXXXXXXXXXXXXXXXXXXXXXXXXXXXXXXXXXXXXXXXXXXXXXXXOOO ",
" OOOOOOOOOOOOOOOOOOOOOOOOOOOOOOOOOOOOOOOOOOOOOOOOOOOOOOOOOOOOOOOOOOOOOOOOOOOOOOOOOOOOOOOOOOOOOO ",
" OOOOOOOOOOOOOOOOOOOOOOOOOOOOOOOOOOOOOOOOOOOOOOOOOOOOOOOOOOOOOOOOOOOOOOOOOOOOOOOOOOOOOOOOOOOOOO ",
" oOOOOOOOOOOOOOOOOOOOOOOOOOOOOOOOOOOOOOOOOOOOOOOOOOOOOOOOOOOOOOOOOOOOOOOOOOOOOOOOOOOOOOOOOOOOOo ",
".                                                                                              ."
};
