/* XPM */
static char *b2pl[] = {
/* columns rows colors chars-per-pixel */
"12 96 5 1",
"  c black",
". c #008000",
"X c red",
"o c #808080",
"O c white",
/* pixels */
".           ",
" oOOOOOOOOOO",
" OOOOOOOOOOO",
" OOOOOOOOOOO",
" OOOXXXXXXXX",
" OOOXXXXXXXX",
" OOOXXOOOOOO",
" OOOXXOXXXXX",
" OOOXXOXXXOO",
" OOOXXOXXXXX",
" OOOXXOXOOXX",
" OOOXXOXXXXX",
" OOOXXOXXXOO",
" OOOXXOXXXXX",
" OOOXXOXOOXX",
" OOOXXOXXXXX",
" OOOXXOXXXOO",
" OOOXXOXXXXX",
" OOOXXOXOOXX",
" OOOXXOXXXXX",
" OOOXXOXXXOO",
" OOOXXOXXXXX",
" OOOXXOXOOXX",
" OOOXXOXXXXX",
" OOOXXOXXXOO",
" OOOXXOXXXXX",
" OOOXXOXOOXX",
" OOOXXOXXXXX",
" OOOXXOXXXOO",
" OOOXXOXXXXX",
" OOOXXOXOOXX",
" OOOXXOXXXXX",
" OOOXXOXXXOO",
" OOOXXOXXXXX",
" OOOXXOXOOXX",
" OOOXXOXXXXX",
" OOOXXOXXXOO",
" OOOXXOXXXXX",
" OOOXXOXOOXX",
" OOOXXOXXXXX",
" OOOXXOXXXOO",
" OOOXXOXXXXX",
" OOOXXOXOOXX",
" OOOXXOXXXXX",
" OOOXXOXXXOO",
" OOOXXOXXXXX",
" OOOXXOXOOXX",
" OOOXXOXXXXX",
" OOOXXOXXXOO",
" OOOXXOXXXXX",
" OOOXXOXOOXX",
" OOOXXOXXXXX",
" OOOXXOXXXOO",
" OOOXXOXXXXX",
" OOOXXOXOOXX",
" OOOXXOXXXXX",
" OOOXXOXXXOO",
" OOOXXOXXXXX",
" OOOXXOXOOXX",
" OOOXXOXXXXX",
" OOOXXOXXXOO",
" OOOXXOXXXXX",
" OOOXXOXOOXX",
" OOOXXOXXXXX",
" OOOXXOXXXOO",
" OOOXXOXXXXX",
" OOOXXOXOOXX",
" OOOXXOXXXXX",
" OOOXXOXXXOO",
" OOOXXOXXXXX",
" OOOXXOXOOXX",
" OOOXXOXXXXX",
" OOOXXOXXXOO",
" OOOXXOXXXXX",
" OOOXXOXOOXX",
" OOOXXOXXXXX",
" OOOXXOXXXOO",
" OOOXXOXXXXX",
" OOOXXOXOOXX",
" OOOXXOXXXXX",
" OOOXXOXXXOO",
" OOOXXOXXXXX",
" OOOXXOXOOXX",
" OOOXXOXXXXX",
" OOOXXOXXXOO",
" OOOXXOXXXXX",
" OOOXXOXOOXX",
" OOOXXOXXXXX",
" OOOXXOXXXXX",
" OOOXXOOOOOO",
" OOOXXXXXXXX",
" OOOXXXXXXXX",
" OOOOOOOOOOO",
" OOOOOOOOOOO",
" oOOOOOOOOOO",
".           "
};
