/* XPM */
static char *b2pr[] = {
/* columns rows colors chars-per-pixel */
"12 96 5 1",
"  c black",
". c #008000",
"X c red",
"o c #808080",
"O c white",
/* pixels */
"           .",
"OOOOOOOOOOo ",
"OOOOOOOOOOO ",
"OOOOOOOOOOO ",
"XXXXXXXXOOO ",
"XXXXXXXXOOO ",
"OOOOOOXXOOO ",
"XXXXXOXXOOO ",
"OXXOXOXXOOO ",
"XXXXXOXXOOO ",
"XOOXXOXXOOO ",
"XXXXXOXXOOO ",
"OXXOXOXXOOO ",
"XXXXXOXXOOO ",
"XOOXXOXXOOO ",
"XXXXXOXXOOO ",
"OXXOXOXXOOO ",
"XXXXXOXXOOO ",
"XOOXXOXXOOO ",
"XXXXXOXXOOO ",
"OXXOXOXXOOO ",
"XXXXXOXXOOO ",
"XOOXXOXXOOO ",
"XXXXXOXXOOO ",
"OXXOXOXXOOO ",
"XXXXXOXXOOO ",
"XOOXXOXXOOO ",
"XXXXXOXXOOO ",
"OXXOXOXXOOO ",
"XXXXXOXXOOO ",
"XOOXXOXXOOO ",
"XXXXXOXXOOO ",
"OXXOXOXXOOO ",
"XXXXXOXXOOO ",
"XOOXXOXXOOO ",
"XXXXXOXXOOO ",
"OXXOXOXXOOO ",
"XXXXXOXXOOO ",
"XOOXXOXXOOO ",
"XXXXXOXXOOO ",
"OXXOXOXXOOO ",
"XXXXXOXXOOO ",
"XOOXXOXXOOO ",
"XXXXXOXXOOO ",
"OXXOXOXXOOO ",
"XXXXXOXXOOO ",
"XOOXXOXXOOO ",
"XXXXXOXXOOO ",
"OXXOXOXXOOO ",
"XXXXXOXXOOO ",
"XOOXXOXXOOO ",
"XXXXXOXXOOO ",
"OXXOXOXXOOO ",
"XXXXXOXXOOO ",
"XOOXXOXXOOO ",
"XXXXXOXXOOO ",
"OXXOXOXXOOO ",
"XXXXXOXXOOO ",
"XOOXXOXXOOO ",
"XXXXXOXXOOO ",
"OXXOXOXXOOO ",
"XXXXXOXXOOO ",
"XOOXXOXXOOO ",
"XXXXXOXXOOO ",
"OXXOXOXXOOO ",
"XXXXXOXXOOO ",
"XOOXXOXXOOO ",
"XXXXXOXXOOO ",
"OXXOXOXXOOO ",
"XXXXXOXXOOO ",
"XOOXXOXXOOO ",
"XXXXXOXXOOO ",
"OXXOXOXXOOO ",
"XXXXXOXXOOO ",
"XOOXXOXXOOO ",
"XXXXXOXXOOO ",
"OXXOXOXXOOO ",
"XXXXXOXXOOO ",
"XOOXXOXXOOO ",
"XXXXXOXXOOO ",
"OXXOXOXXOOO ",
"XXXXXOXXOOO ",
"XOOXXOXXOOO ",
"XXXXXOXXOOO ",
"OXXOXOXXOOO ",
"XXXXXOXXOOO ",
"XOOXXOXXOOO ",
"XXXXXOXXOOO ",
"XXXXXOXXOOO ",
"OOOOOOXXOOO ",
"XXXXXXXXOOO ",
"XXXXXXXXOOO ",
"OOOOOOOOOOO ",
"OOOOOOOOOOO ",
"OOOOOOOOOOo ",
"           ."
};
