/* XPM */
static char *c10[] = {
/* columns rows colors chars-per-pixel */
"71 96 4 1",
"  c black",
". c #008000",
"X c #808080",
"o c white",
/* pixels */
".                                                                     .",
" XoooooooooooooooooooooooooooooooooooooooooooooooooooooooooooooooooooX ",
" ooooooooooooooooooooooooooooooooooooooooooooooooooooooooooooooooooooo ",
" ooooooooooooooooooooooooooooooooooooooooooooooooooooooooooooooooooooo ",
" oo  oo    ooooooooooooooooooooooooooooooooooooooooooooooooooooooooooo ",
" oo  o      oooooooooooooooooooooooooooooooooooooooooooooooooooooooooo ",
" oo  o  oo  oooooooooooooooooooooooooooooooooooooooooooooooooooooooooo ",
" oo  o  oo  oooooooooooooooooooooooooooooooooooooooooooooooooooooooooo ",
" oo  o  oo  oooooooooooooooooooooooooooooooooooooooooooooooooooooooooo ",
" oo  o  oo  oooooooooooooooooooooooooooooooooooooooooooooooooooooooooo ",
" oo  o  oo  ooooooooo   ooooooooooooooooooooooo   oooooooooooooooooooo ",
" oo  o  oo  oooooooo     ooooooooooooooooooooo     ooooooooooooooooooo ",
" oo  o  oo  ooooooo       ooooooooooooooooooo       oooooooooooooooooo ",
" oo  o  oo  ooooooo       ooooooooooooooooooo       oooooooooooooooooo ",
" oo  o      ooooooo       ooooooooooooooooooo       oooooooooooooooooo ",
" oo  oo    ooooooooo     ooooooooooooooooooooo     ooooooooooooooooooo ",
" oooooooooooooooo   o   o   ooooooooooooooo   o   o   oooooooooooooooo ",
" ooooooooooooooo             ooooooooooooo             ooooooooooooooo ",
" oooooo   ooooo               ooooooooooo               oooooooooooooo ",
" ooooo     oooo               ooooooooooo               oooooooooooooo ",
" ooooo     oooo               ooooooooooo               oooooooooooooo ",
" ooooo     ooooo     o o     ooooo   ooooo     o o     ooooooooooooooo ",
" ooo  o   o  oooo   oo oo   ooooo     ooooo   oo oo   oooooooooooooooo ",
" oo           ooooooo   oooooooo       oooooooo   oooooooooooooooooooo ",
" oo           oooooo     ooooooo       ooooooo     ooooooooooooooooooo ",
" oo           oooooooooooooooooo       ooooooooooooooooooooooooooooooo ",
" ooo   o o   oooooooooooooooooooo     oooooooooooooooooooooooooooooooo ",
" oooooo   oooooooooooooooooooo   o   o   ooooooooooooooooooooooooooooo ",
" oooooo   ooooooooooooooooooo             oooooooooooooooooooooooooooo ",
" ooooooooooooooooooooooooooo               ooooooooooooooooooooooooooo ",
" ooooooooooooooooooooooooooo               ooooooooooooooooooooooooooo ",
" oooooooooooooooooooo   oooo               oooo   oooooooooooooooooooo ",
" ooooooooooooooooooo     oooo     o o     oooo     ooooooooooooooooooo ",
" oooooooooooooooooo       oooo   oo oo   oooo       oooooooooooooooooo ",
" oooooooooooooooooo       oooooooo   oooooooo       oooooooooooooooooo ",
" oooooooooooooooooo       ooooooo     ooooooo       oooooooooooooooooo ",
" ooooooooooooooooooo     ooooooooooooooooooooo     ooooooooooooooooooo ",
" oooooooooooooooo   o   o   ooooooooooooooo   o   o   oooooooooooooooo ",
" ooooooooooooooo             ooooooooooooo             ooooooooooooooo ",
" oooooooooooooo               ooooooooooo               oooooooooooooo ",
" oooooooooooooo               ooooooooooo               oooooooooooooo ",
" oooooooooooooo               ooooooooooo               oooooooooooooo ",
" ooooooooooooooo     o o     ooooooooooooo     o o     ooooooooooooooo ",
" oooooooooooooooo   oo oo   ooooooooooooooo   oo oo   oooooooooooooooo ",
" oooooooooooooooooooo   ooooooooooooooooooooooo   oooooooooooooooooooo ",
" ooooooooooooooooooo     ooooooooooooooooooooo     ooooooooooooooooooo ",
" ooooooooooooooooooooooooooooooooooooooooooooooooooooooooooooooooooooo ",
" ooooooooooooooooooooooooooooooooooooooooooooooooooooooooooooooooooooo ",
" ooooooooooooooooooooooooooooooooooooooooooooooooooooooooooooooooooooo ",
" ooooooooooooooooooooooooooooooooooooooooooooooooooooooooooooooooooooo ",
" ooooooooooooooooooo     ooooooooooooooooooooo     ooooooooooooooooooo ",
" oooooooooooooooooooo   ooooooooooooooooooooooo   oooooooooooooooooooo ",
" oooooooooooooooo   oo oo   ooooooooooooooo   oo oo   oooooooooooooooo ",
" ooooooooooooooo     o o     ooooooooooooo     o o     ooooooooooooooo ",
" oooooooooooooo               ooooooooooo               oooooooooooooo ",
" oooooooooooooo               ooooooooooo               oooooooooooooo ",
" oooooooooooooo               ooooooooooo               oooooooooooooo ",
" ooooooooooooooo             ooooooooooooo             ooooooooooooooo ",
" oooooooooooooooo   o   o   ooooooooooooooo   o   o   oooooooooooooooo ",
" ooooooooooooooooooo     ooooooooooooooooooooo     ooooooooooooooooooo ",
" oooooooooooooooooo       ooooooo     ooooooo       oooooooooooooooooo ",
" oooooooooooooooooo       oooooooo   oooooooo       oooooooooooooooooo ",
" oooooooooooooooooo       oooo   oo oo   oooo       oooooooooooooooooo ",
" ooooooooooooooooooo     oooo     o o     oooo     ooooooooooooooooooo ",
" oooooooooooooooooooo   oooo               oooo   oooooooooooooooooooo ",
" ooooooooooooooooooooooooooo               ooooooooooooooooooooooooooo ",
" ooooooooooooooooooooooooooo               ooooooooooooooooooooooooooo ",
" oooooooooooooooooooooooooooo             ooooooooooooooooooo   oooooo ",
" ooooooooooooooooooooooooooooo   o   o   oooooooooooooooooooo   oooooo ",
" oooooooooooooooooooooooooooooooo     oooooooooooooooooooo   o o   ooo ",
" ooooooooooooooooooooooooooooooo       oooooooooooooooooo           oo ",
" ooooooooooooooooooo     ooooooo       ooooooo     oooooo           oo ",
" oooooooooooooooooooo   oooooooo       oooooooo   ooooooo           oo ",
" oooooooooooooooo   oo oo   ooooo     ooooo   oo oo   oooo  o   o  ooo ",
" ooooooooooooooo     o o     ooooo   ooooo     o o     ooooo     ooooo ",
" oooooooooooooo               ooooooooooo               oooo     ooooo ",
" oooooooooooooo               ooooooooooo               oooo     ooooo ",
" oooooooooooooo               ooooooooooo               ooooo   oooooo ",
" ooooooooooooooo             ooooooooooooo             ooooooooooooooo ",
" oooooooooooooooo   o   o   ooooooooooooooo   o   o   oooooooooooooooo ",
" ooooooooooooooooooo     ooooooooooooooooooooo     ooooooooo    oo  oo ",
" oooooooooooooooooo       ooooooooooooooooooo       ooooooo      o  oo ",
" oooooooooooooooooo       ooooooooooooooooooo       ooooooo  oo  o  oo ",
" oooooooooooooooooo       ooooooooooooooooooo       ooooooo  oo  o  oo ",
" ooooooooooooooooooo     ooooooooooooooooooooo     oooooooo  oo  o  oo ",
" oooooooooooooooooooo   ooooooooooooooooooooooo   ooooooooo  oo  o  oo ",
" oooooooooooooooooooooooooooooooooooooooooooooooooooooooooo  oo  o  oo ",
" oooooooooooooooooooooooooooooooooooooooooooooooooooooooooo  oo  o  oo ",
" oooooooooooooooooooooooooooooooooooooooooooooooooooooooooo  oo  o  oo ",
" oooooooooooooooooooooooooooooooooooooooooooooooooooooooooo  oo  o  oo ",
" oooooooooooooooooooooooooooooooooooooooooooooooooooooooooo      o  oo ",
" ooooooooooooooooooooooooooooooooooooooooooooooooooooooooooo    oo  oo ",
" ooooooooooooooooooooooooooooooooooooooooooooooooooooooooooooooooooooo ",
" ooooooooooooooooooooooooooooooooooooooooooooooooooooooooooooooooooooo ",
" XoooooooooooooooooooooooooooooooooooooooooooooooooooooooooooooooooooX ",
".                                                                     ."
};
