/* XPM */
static char *c3[] = {
/* columns rows colors chars-per-pixel */
"71 96 4 1",
"  c black",
". c #008000",
"X c #808080",
"o c white",
/* pixels */
".                                                                     .",
" XoooooooooooooooooooooooooooooooooooooooooooooooooooooooooooooooooooX ",
" ooooooooooooooooooooooooooooooooooooooooooooooooooooooooooooooooooooo ",
" ooooooooooooooooooooooooooooooooooooooooooooooooooooooooooooooooooooo ",
" ooo       ooooooooooooooooooooooooooooooooooooooooooooooooooooooooooo ",
" ooo       ooooooooooooooooooooooooooooooooooooooooooooooooooooooooooo ",
" ooo  oo  oooooooooooooooooooooooooooooooooooooooooooooooooooooooooooo ",
" oooooo  ooooooooooooooooooooooooooooooooooooooooooooooooooooooooooooo ",
" ooooo  oooooooooooooooooooooooooooooooooooooooooooooooooooooooooooooo ",
" oooo     oooooooooooooooooooooooooooooooooooooooooooooooooooooooooooo ",
" oooo      ooooooooooooooooooooooo   ooooooooooooooooooooooooooooooooo ",
" oooooooo  oooooooooooooooooooooo     oooooooooooooooooooooooooooooooo ",
" oooooooo  ooooooooooooooooooooo       ooooooooooooooooooooooooooooooo ",
" ooo  ooo  ooooooooooooooooooooo       ooooooooooooooooooooooooooooooo ",
" ooo       ooooooooooooooooooooo       ooooooooooooooooooooooooooooooo ",
" oooo     ooooooooooooooooooooooo     oooooooooooooooooooooooooooooooo ",
" ooooooooooooooooooooooooooooo   o   o   ooooooooooooooooooooooooooooo ",
" oooooooooooooooooooooooooooo             oooooooooooooooooooooooooooo ",
" oooooo   oooooooooooooooooo               ooooooooooooooooooooooooooo ",
" ooooo     ooooooooooooooooo               ooooooooooooooooooooooooooo ",
" ooooo     ooooooooooooooooo               ooooooooooooooooooooooooooo ",
" ooooo     oooooooooooooooooo     o o     oooooooooooooooooooooooooooo ",
" ooo  o   o  ooooooooooooooooo   oo oo   ooooooooooooooooooooooooooooo ",
" oo           oooooooooooooooooooo   ooooooooooooooooooooooooooooooooo ",
" oo           ooooooooooooooooooo     oooooooooooooooooooooooooooooooo ",
" oo           oooooooooooooooooooooooooooooooooooooooooooooooooooooooo ",
" ooo   o o   ooooooooooooooooooooooooooooooooooooooooooooooooooooooooo ",
" oooooo   oooooooooooooooooooooooooooooooooooooooooooooooooooooooooooo ",
" oooooo   oooooooooooooooooooooooooooooooooooooooooooooooooooooooooooo ",
" ooooooooooooooooooooooooooooooooooooooooooooooooooooooooooooooooooooo ",
" ooooooooooooooooooooooooooooooooooooooooooooooooooooooooooooooooooooo ",
" ooooooooooooooooooooooooooooooooooooooooooooooooooooooooooooooooooooo ",
" ooooooooooooooooooooooooooooooooooooooooooooooooooooooooooooooooooooo ",
" ooooooooooooooooooooooooooooooooooooooooooooooooooooooooooooooooooooo ",
" ooooooooooooooooooooooooooooooooooooooooooooooooooooooooooooooooooooo ",
" ooooooooooooooooooooooooooooooooooooooooooooooooooooooooooooooooooooo ",
" ooooooooooooooooooooooooooooooooooooooooooooooooooooooooooooooooooooo ",
" ooooooooooooooooooooooooooooooooooooooooooooooooooooooooooooooooooooo ",
" ooooooooooooooooooooooooooooooooooooooooooooooooooooooooooooooooooooo ",
" ooooooooooooooooooooooooooooooooooooooooooooooooooooooooooooooooooooo ",
" ooooooooooooooooooooooooooooooooooooooooooooooooooooooooooooooooooooo ",
" ooooooooooooooooooooooooooooooooo   ooooooooooooooooooooooooooooooooo ",
" oooooooooooooooooooooooooooooooo     oooooooooooooooooooooooooooooooo ",
" ooooooooooooooooooooooooooooooo       ooooooooooooooooooooooooooooooo ",
" ooooooooooooooooooooooooooooooo       ooooooooooooooooooooooooooooooo ",
" ooooooooooooooooooooooooooooooo       ooooooooooooooooooooooooooooooo ",
" oooooooooooooooooooooooooooooooo     oooooooooooooooooooooooooooooooo ",
" ooooooooooooooooooooooooooooo   o   o   ooooooooooooooooooooooooooooo ",
" oooooooooooooooooooooooooooo             oooooooooooooooooooooooooooo ",
" ooooooooooooooooooooooooooo               ooooooooooooooooooooooooooo ",
" ooooooooooooooooooooooooooo               ooooooooooooooooooooooooooo ",
" ooooooooooooooooooooooooooo               ooooooooooooooooooooooooooo ",
" oooooooooooooooooooooooooooo     o o     oooooooooooooooooooooooooooo ",
" ooooooooooooooooooooooooooooo   oo oo   ooooooooooooooooooooooooooooo ",
" ooooooooooooooooooooooooooooooooo   ooooooooooooooooooooooooooooooooo ",
" oooooooooooooooooooooooooooooooo     oooooooooooooooooooooooooooooooo ",
" ooooooooooooooooooooooooooooooooooooooooooooooooooooooooooooooooooooo ",
" ooooooooooooooooooooooooooooooooooooooooooooooooooooooooooooooooooooo ",
" ooooooooooooooooooooooooooooooooooooooooooooooooooooooooooooooooooooo ",
" ooooooooooooooooooooooooooooooooooooooooooooooooooooooooooooooooooooo ",
" ooooooooooooooooooooooooooooooooooooooooooooooooooooooooooooooooooooo ",
" ooooooooooooooooooooooooooooooooooooooooooooooooooooooooooooooooooooo ",
" ooooooooooooooooooooooooooooooooooooooooooooooooooooooooooooooooooooo ",
" ooooooooooooooooooooooooooooooooooooooooooooooooooooooooooooooooooooo ",
" ooooooooooooooooooooooooooooooooooooooooooooooooooooooooooooooooooooo ",
" ooooooooooooooooooooooooooooooooooooooooooooooooooooooooooooooooooooo ",
" ooooooooooooooooooooooooooooooooooooooooooooooooooooooooooooooooooooo ",
" oooooooooooooooooooooooooooooooooooooooooooooooooooooooooooo   oooooo ",
" oooooooooooooooooooooooooooooooooooooooooooooooooooooooooooo   oooooo ",
" ooooooooooooooooooooooooooooooooooooooooooooooooooooooooo   o o   ooo ",
" oooooooooooooooooooooooooooooooooooooooooooooooooooooooo           oo ",
" oooooooooooooooooooooooooooooooo     ooooooooooooooooooo           oo ",
" ooooooooooooooooooooooooooooooooo   oooooooooooooooooooo           oo ",
" ooooooooooooooooooooooooooooo   oo oo   ooooooooooooooooo  o   o  ooo ",
" oooooooooooooooooooooooooooo     o o     oooooooooooooooooo     ooooo ",
" ooooooooooooooooooooooooooo               ooooooooooooooooo     ooooo ",
" ooooooooooooooooooooooooooo               ooooooooooooooooo     ooooo ",
" ooooooooooooooooooooooooooo               oooooooooooooooooo   oooooo ",
" oooooooooooooooooooooooooooo             oooooooooooooooooooooooooooo ",
" ooooooooooooooooooooooooooooo   o   o   ooooooooooooooooooooooooooooo ",
" oooooooooooooooooooooooooooooooo     ooooooooooooooooooooooo     oooo ",
" ooooooooooooooooooooooooooooooo       ooooooooooooooooooooo       ooo ",
" ooooooooooooooooooooooooooooooo       ooooooooooooooooooooo  ooo  ooo ",
" ooooooooooooooooooooooooooooooo       ooooooooooooooooooooo  oooooooo ",
" oooooooooooooooooooooooooooooooo     oooooooooooooooooooooo  oooooooo ",
" ooooooooooooooooooooooooooooooooo   ooooooooooooooooooooooo      oooo ",
" oooooooooooooooooooooooooooooooooooooooooooooooooooooooooooo     oooo ",
" oooooooooooooooooooooooooooooooooooooooooooooooooooooooooooooo  ooooo ",
" ooooooooooooooooooooooooooooooooooooooooooooooooooooooooooooo  oooooo ",
" oooooooooooooooooooooooooooooooooooooooooooooooooooooooooooo  oo  ooo ",
" ooooooooooooooooooooooooooooooooooooooooooooooooooooooooooo       ooo ",
" ooooooooooooooooooooooooooooooooooooooooooooooooooooooooooo       ooo ",
" ooooooooooooooooooooooooooooooooooooooooooooooooooooooooooooooooooooo ",
" ooooooooooooooooooooooooooooooooooooooooooooooooooooooooooooooooooooo ",
" XoooooooooooooooooooooooooooooooooooooooooooooooooooooooooooooooooooX ",
".                                                                     ."
};
