/* XPM */
static char *c6[] = {
/* columns rows colors chars-per-pixel */
"71 96 4 1",
"  c black",
". c #008000",
"X c #808080",
"o c white",
/* pixels */
".                                                                     .",
" XoooooooooooooooooooooooooooooooooooooooooooooooooooooooooooooooooooX ",
" ooooooooooooooooooooooooooooooooooooooooooooooooooooooooooooooooooooo ",
" ooooooooooooooooooooooooooooooooooooooooooooooooooooooooooooooooooooo ",
" ooooo    oooooooooooooooooooooooooooooooooooooooooooooooooooooooooooo ",
" oooo     oooooooooooooooooooooooooooooooooooooooooooooooooooooooooooo ",
" ooo   ooooooooooooooooooooooooooooooooooooooooooooooooooooooooooooooo ",
" ooo  oooooooooooooooooooooooooooooooooooooooooooooooooooooooooooooooo ",
" ooo      oooooooooooooooooooooooooooooooooooooooooooooooooooooooooooo ",
" ooo       ooooooooooooooooooooooooooooooooooooooooooooooooooooooooooo ",
" ooo  ooo  ooooooooooo   oooooooooooooooooooooo   oooooooooooooooooooo ",
" ooo  ooo  oooooooooo     oooooooooooooooooooo     ooooooooooooooooooo ",
" ooo  ooo  ooooooooo       oooooooooooooooooo       oooooooooooooooooo ",
" ooo  ooo  ooooooooo       oooooooooooooooooo       oooooooooooooooooo ",
" ooo       ooooooooo       oooooooooooooooooo       oooooooooooooooooo ",
" oooo     ooooooooooo     oooooooooooooooooooo     ooooooooooooooooooo ",
" ooooooooooooooooo   o   o   oooooooooooooo   o   o   oooooooooooooooo ",
" oooooooooooooooo             oooooooooooo             ooooooooooooooo ",
" oooooo   oooooo               oooooooooo               oooooooooooooo ",
" ooooo     ooooo               oooooooooo               oooooooooooooo ",
" ooooo     ooooo               oooooooooo               oooooooooooooo ",
" ooooo     oooooo     o o     oooooooooooo     o o     ooooooooooooooo ",
" ooo  o   o  ooooo   oo oo   oooooooooooooo   oo oo   oooooooooooooooo ",
" oo           oooooooo   oooooooooooooooooooooo   oooooooooooooooooooo ",
" oo           ooooooo     oooooooooooooooooooo     ooooooooooooooooooo ",
" oo           oooooooooooooooooooooooooooooooooooooooooooooooooooooooo ",
" ooo   o o   ooooooooooooooooooooooooooooooooooooooooooooooooooooooooo ",
" oooooo   oooooooooooooooooooooooooooooooooooooooooooooooooooooooooooo ",
" oooooo   oooooooooooooooooooooooooooooooooooooooooooooooooooooooooooo ",
" ooooooooooooooooooooooooooooooooooooooooooooooooooooooooooooooooooooo ",
" ooooooooooooooooooooooooooooooooooooooooooooooooooooooooooooooooooooo ",
" ooooooooooooooooooooooooooooooooooooooooooooooooooooooooooooooooooooo ",
" ooooooooooooooooooooooooooooooooooooooooooooooooooooooooooooooooooooo ",
" ooooooooooooooooooooooooooooooooooooooooooooooooooooooooooooooooooooo ",
" ooooooooooooooooooooooooooooooooooooooooooooooooooooooooooooooooooooo ",
" ooooooooooooooooooooooooooooooooooooooooooooooooooooooooooooooooooooo ",
" ooooooooooooooooooooooooooooooooooooooooooooooooooooooooooooooooooooo ",
" ooooooooooooooooooooooooooooooooooooooooooooooooooooooooooooooooooooo ",
" ooooooooooooooooooooooooooooooooooooooooooooooooooooooooooooooooooooo ",
" ooooooooooooooooooooooooooooooooooooooooooooooooooooooooooooooooooooo ",
" ooooooooooooooooooooooooooooooooooooooooooooooooooooooooooooooooooooo ",
" ooooooooooooooooooooo   oooooooooooooooooooooo   oooooooooooooooooooo ",
" oooooooooooooooooooo     oooooooooooooooooooo     ooooooooooooooooooo ",
" ooooooooooooooooooo       oooooooooooooooooo       oooooooooooooooooo ",
" ooooooooooooooooooo       oooooooooooooooooo       oooooooooooooooooo ",
" ooooooooooooooooooo       oooooooooooooooooo       oooooooooooooooooo ",
" oooooooooooooooooooo     oooooooooooooooooooo     ooooooooooooooooooo ",
" ooooooooooooooooo   o   o   oooooooooooooo   o   o   oooooooooooooooo ",
" oooooooooooooooo             oooooooooooo             ooooooooooooooo ",
" ooooooooooooooo               oooooooooo               oooooooooooooo ",
" ooooooooooooooo               oooooooooo               oooooooooooooo ",
" ooooooooooooooo               oooooooooo               oooooooooooooo ",
" oooooooooooooooo     o o     oooooooooooo     o o     ooooooooooooooo ",
" ooooooooooooooooo   oo oo   oooooooooooooo   oo oo   oooooooooooooooo ",
" ooooooooooooooooooooo   oooooooooooooooooooooo   oooooooooooooooooooo ",
" oooooooooooooooooooo     oooooooooooooooooooo     ooooooooooooooooooo ",
" ooooooooooooooooooooooooooooooooooooooooooooooooooooooooooooooooooooo ",
" ooooooooooooooooooooooooooooooooooooooooooooooooooooooooooooooooooooo ",
" ooooooooooooooooooooooooooooooooooooooooooooooooooooooooooooooooooooo ",
" ooooooooooooooooooooooooooooooooooooooooooooooooooooooooooooooooooooo ",
" ooooooooooooooooooooooooooooooooooooooooooooooooooooooooooooooooooooo ",
" ooooooooooooooooooooooooooooooooooooooooooooooooooooooooooooooooooooo ",
" ooooooooooooooooooooooooooooooooooooooooooooooooooooooooooooooooooooo ",
" ooooooooooooooooooooooooooooooooooooooooooooooooooooooooooooooooooooo ",
" ooooooooooooooooooooooooooooooooooooooooooooooooooooooooooooooooooooo ",
" ooooooooooooooooooooooooooooooooooooooooooooooooooooooooooooooooooooo ",
" ooooooooooooooooooooooooooooooooooooooooooooooooooooooooooooooooooooo ",
" oooooooooooooooooooooooooooooooooooooooooooooooooooooooooooo   oooooo ",
" oooooooooooooooooooooooooooooooooooooooooooooooooooooooooooo   oooooo ",
" ooooooooooooooooooooooooooooooooooooooooooooooooooooooooo   o o   ooo ",
" oooooooooooooooooooooooooooooooooooooooooooooooooooooooo           oo ",
" oooooooooooooooooooo     oooooooooooooooooooo     oooooo           oo ",
" ooooooooooooooooooooo   oooooooooooooooooooooo   ooooooo           oo ",
" ooooooooooooooooo   oo oo   oooooooooooooo   oo oo   oooo  o   o  ooo ",
" oooooooooooooooo     o o     oooooooooooo     o o     ooooo     ooooo ",
" ooooooooooooooo               oooooooooo               oooo     ooooo ",
" ooooooooooooooo               oooooooooo               oooo     ooooo ",
" ooooooooooooooo               oooooooooo               ooooo   oooooo ",
" oooooooooooooooo             oooooooooooo             ooooooooooooooo ",
" ooooooooooooooooo   o   o   oooooooooooooo   o   o   oooooooooooooooo ",
" oooooooooooooooooooo     oooooooooooooooooooo     oooooooooo     oooo ",
" ooooooooooooooooooo       oooooooooooooooooo       oooooooo       ooo ",
" ooooooooooooooooooo       oooooooooooooooooo       oooooooo  ooo  ooo ",
" ooooooooooooooooooo       oooooooooooooooooo       oooooooo  ooo  ooo ",
" oooooooooooooooooooo     oooooooooooooooooooo     ooooooooo  ooo  ooo ",
" ooooooooooooooooooooo   oooooooooooooooooooooo   oooooooooo  ooo  ooo ",
" ooooooooooooooooooooooooooooooooooooooooooooooooooooooooooo       ooo ",
" oooooooooooooooooooooooooooooooooooooooooooooooooooooooooooo      ooo ",
" oooooooooooooooooooooooooooooooooooooooooooooooooooooooooooooooo  ooo ",
" ooooooooooooooooooooooooooooooooooooooooooooooooooooooooooooooo   ooo ",
" oooooooooooooooooooooooooooooooooooooooooooooooooooooooooooo     oooo ",
" oooooooooooooooooooooooooooooooooooooooooooooooooooooooooooo    ooooo ",
" ooooooooooooooooooooooooooooooooooooooooooooooooooooooooooooooooooooo ",
" ooooooooooooooooooooooooooooooooooooooooooooooooooooooooooooooooooooo ",
" XoooooooooooooooooooooooooooooooooooooooooooooooooooooooooooooooooooX ",
".                                                                     ."
};
