/* XPM */
static char *c9[] = {
/* columns rows colors chars-per-pixel */
"71 96 4 1",
"  c black",
". c #008000",
"X c #808080",
"o c white",
/* pixels */
".                                                                     .",
" XoooooooooooooooooooooooooooooooooooooooooooooooooooooooooooooooooooX ",
" ooooooooooooooooooooooooooooooooooooooooooooooooooooooooooooooooooooo ",
" ooooooooooooooooooooooooooooooooooooooooooooooooooooooooooooooooooooo ",
" oooo     oooooooooooooooooooooooooooooooooooooooooooooooooooooooooooo ",
" ooo       ooooooooooooooooooooooooooooooooooooooooooooooooooooooooooo ",
" ooo  ooo  ooooooooooooooooooooooooooooooooooooooooooooooooooooooooooo ",
" ooo  ooo  ooooooooooooooooooooooooooooooooooooooooooooooooooooooooooo ",
" ooo  ooo  ooooooooooooooooooooooooooooooooooooooooooooooooooooooooooo ",
" ooo  ooo  ooooooooooooooooooooooooooooooooooooooooooooooooooooooooooo ",
" ooo       oooooooooo   ooooooooooooooooooooooo   oooooooooooooooooooo ",
" oooo      ooooooooo     ooooooooooooooooooooo     ooooooooooooooooooo ",
" oooooooo  oooooooo       ooooooooooooooooooo       oooooooooooooooooo ",
" ooooooo   oooooooo       ooooooooooooooooooo       oooooooooooooooooo ",
" oooo     ooooooooo       ooooooooooooooooooo       oooooooooooooooooo ",
" oooo    ooooooooooo     ooooooooooooooooooooo     ooooooooooooooooooo ",
" oooooooooooooooo   o   o   ooooooooooooooo   o   o   oooooooooooooooo ",
" ooooooooooooooo             ooooooooooooo             ooooooooooooooo ",
" oooooo   ooooo               ooooooooooo               oooooooooooooo ",
" ooooo     oooo               ooooooooooo               oooooooooooooo ",
" ooooo     oooo               ooooooooooo               oooooooooooooo ",
" ooooo     ooooo     o o     ooooooooooooo     o o     ooooooooooooooo ",
" ooo  o   o  oooo   oo oo   ooooooooooooooo   oo oo   oooooooooooooooo ",
" oo           ooooooo   ooooooooooooooooooooooo   oooooooooooooooooooo ",
" oo           oooooo     ooooooooooooooooooooo     ooooooooooooooooooo ",
" oo           oooooooooooooooooooooooooooooooooooooooooooooooooooooooo ",
" ooo   o o   ooooooooooooooooooooooooooooooooooooooooooooooooooooooooo ",
" oooooo   oooooooooooooooooooooooooooooooooooooooooooooooooooooooooooo ",
" oooooo   oooooooooooooooooooooooooooooooooooooooooooooooooooooooooooo ",
" ooooooooooooooooooooooooooooooooooooooooooooooooooooooooooooooooooooo ",
" ooooooooooooooooooooooooooooooooooooooooooooooooooooooooooooooooooooo ",
" oooooooooooooooooooo   ooooooooooooooooooooooo   oooooooooooooooooooo ",
" ooooooooooooooooooo     ooooooooooooooooooooo     ooooooooooooooooooo ",
" oooooooooooooooooo       ooooooooooooooooooo       oooooooooooooooooo ",
" oooooooooooooooooo       ooooooooooooooooooo       oooooooooooooooooo ",
" oooooooooooooooooo       ooooooooooooooooooo       oooooooooooooooooo ",
" ooooooooooooooooooo     ooooooooooooooooooooo     ooooooooooooooooooo ",
" oooooooooooooooo   o   o   ooooooooooooooo   o   o   oooooooooooooooo ",
" ooooooooooooooo             ooooooooooooo             ooooooooooooooo ",
" oooooooooooooo               oooo   oooo               oooooooooooooo ",
" oooooooooooooo               ooo     ooo               oooooooooooooo ",
" oooooooooooooo               oo       oo               oooooooooooooo ",
" ooooooooooooooo     o o     ooo       ooo     o o     ooooooooooooooo ",
" oooooooooooooooo   oo oo   oooo       oooo   oo oo   oooooooooooooooo ",
" oooooooooooooooooooo   ooooooooo     ooooooooo   oooooooooooooooooooo ",
" ooooooooooooooooooo     ooooo   o   o   ooooo     ooooooooooooooooooo ",
" oooooooooooooooooooooooooooo             oooooooooooooooooooooooooooo ",
" ooooooooooooooooooooooooooo               ooooooooooooooooooooooooooo ",
" ooooooooooooooooooooooooooo               ooooooooooooooooooooooooooo ",
" ooooooooooooooooooooooooooo               ooooooooooooooooooooooooooo ",
" ooooooooooooooooooo     oooo     o o     oooo     ooooooooooooooooooo ",
" oooooooooooooooooooo   oooooo   oo oo   oooooo   oooooooooooooooooooo ",
" oooooooooooooooo   oo oo   oooooo   oooooo   oo oo   oooooooooooooooo ",
" ooooooooooooooo     o o     oooo     oooo     o o     ooooooooooooooo ",
" oooooooooooooo               ooooooooooo               oooooooooooooo ",
" oooooooooooooo               ooooooooooo               oooooooooooooo ",
" oooooooooooooo               ooooooooooo               oooooooooooooo ",
" ooooooooooooooo             ooooooooooooo             ooooooooooooooo ",
" oooooooooooooooo   o   o   ooooooooooooooo   o   o   oooooooooooooooo ",
" ooooooooooooooooooo     ooooooooooooooooooooo     ooooooooooooooooooo ",
" oooooooooooooooooo       ooooooooooooooooooo       oooooooooooooooooo ",
" oooooooooooooooooo       ooooooooooooooooooo       oooooooooooooooooo ",
" oooooooooooooooooo       ooooooooooooooooooo       oooooooooooooooooo ",
" ooooooooooooooooooo     ooooooooooooooooooooo     ooooooooooooooooooo ",
" oooooooooooooooooooo   ooooooooooooooooooooooo   oooooooooooooooooooo ",
" ooooooooooooooooooooooooooooooooooooooooooooooooooooooooooooooooooooo ",
" ooooooooooooooooooooooooooooooooooooooooooooooooooooooooooooooooooooo ",
" oooooooooooooooooooooooooooooooooooooooooooooooooooooooooooo   oooooo ",
" oooooooooooooooooooooooooooooooooooooooooooooooooooooooooooo   oooooo ",
" ooooooooooooooooooooooooooooooooooooooooooooooooooooooooo   o o   ooo ",
" oooooooooooooooooooooooooooooooooooooooooooooooooooooooo           oo ",
" ooooooooooooooooooo     ooooooooooooooooooooo     oooooo           oo ",
" oooooooooooooooooooo   ooooooooooooooooooooooo   ooooooo           oo ",
" oooooooooooooooo   oo oo   ooooooooooooooo   oo oo   oooo  o   o  ooo ",
" ooooooooooooooo     o o     ooooooooooooo     o o     ooooo     ooooo ",
" oooooooooooooo               ooooooooooo               oooo     ooooo ",
" oooooooooooooo               ooooooooooo               oooo     ooooo ",
" oooooooooooooo               ooooooooooo               ooooo   oooooo ",
" ooooooooooooooo             ooooooooooooo             ooooooooooooooo ",
" oooooooooooooooo   o   o   ooooooooooooooo   o   o   oooooooooooooooo ",
" ooooooooooooooooooo     ooooooooooooooooooooo     ooooooooooo    oooo ",
" oooooooooooooooooo       ooooooooooooooooooo       ooooooooo     oooo ",
" oooooooooooooooooo       ooooooooooooooooooo       oooooooo   ooooooo ",
" oooooooooooooooooo       ooooooooooooooooooo       oooooooo  oooooooo ",
" ooooooooooooooooooo     ooooooooooooooooooooo     ooooooooo      oooo ",
" oooooooooooooooooooo   ooooooooooooooooooooooo   oooooooooo       ooo ",
" ooooooooooooooooooooooooooooooooooooooooooooooooooooooooooo  ooo  ooo ",
" ooooooooooooooooooooooooooooooooooooooooooooooooooooooooooo  ooo  ooo ",
" ooooooooooooooooooooooooooooooooooooooooooooooooooooooooooo  ooo  ooo ",
" ooooooooooooooooooooooooooooooooooooooooooooooooooooooooooo  ooo  ooo ",
" ooooooooooooooooooooooooooooooooooooooooooooooooooooooooooo       ooo ",
" oooooooooooooooooooooooooooooooooooooooooooooooooooooooooooo     oooo ",
" ooooooooooooooooooooooooooooooooooooooooooooooooooooooooooooooooooooo ",
" ooooooooooooooooooooooooooooooooooooooooooooooooooooooooooooooooooooo ",
" XoooooooooooooooooooooooooooooooooooooooooooooooooooooooooooooooooooX ",
".                                                                     ."
};
