/* XPM */
static char *cj[] = {
/* columns rows colors chars-per-pixel */
"71 96 8 1",
"  c black",
". c #008000",
"X c green",
"o c cyan",
"O c red",
"+ c yellow",
"@ c #808080",
"# c white",
/* pixels */
".                                                                     .",
" @###################################################################@ ",
" ##################################################################### ",
" ##################################################################### ",
" #####    ############################################################ ",
" #####    ############################################################ ",
" ######  ############################################################# ",
" ######  ############################################################# ",
" ######  ############################################################# ",
" ######  ############################################################# ",
" ######  ############################################################# ",
" ######  ###                                               ########### ",
" ##  ##  ### ########  OO OOO O OO O OOO O ############### ########### ",
" ##  ##  ###  ########  OO OO O OO O OO O ######   ####### ########### ",
" ##      ### O #######   OO   O    O   O ######     ###### ########### ",
" ###    #### OO ##### XX OOOOOOOOOOOOOO  #####       ##### ########### ",
" ########### OOO #### X                 ######       ##### ########### ",
" ###########      ###XX  ######## + + + ######       ##### ########### ",
" ####   #### +++ ### XX  ######## + + + #######     ###### ########### ",
" ###     ###  ++ ###   +    #   # + + + ####   #   #   ### ########### ",
" ###     ### +++ ##### +   #   #  + + + ###             ## ########### ",
" ## #   # ##  ++ ##### + ### #### + + + ##               # ########### ",
" #         # +++ ####  + ### #### + + + ##               # ########### ",
" #         #  ++ ### + + ### #### + + + ##               # ########### ",
" #         # +++ ### + + ##   ### + + +  ##     # #     ## ########### ",
" ##  # #  ##   + ###   + ######## + +  ++ ##   ## ##   ### ########### ",
" ####o o#### +++ ## ++ +# #   ### +   ++  ######   ####### ########### ",
" ####   ####   + ## + ++  ######  + ++      ###     ###### ########### ",
" ########### +++ ## +++  O #### O +  +   # # ############# ########### ",
" ########### +++  ##   O OO    OOO +++  #  #O  ##########  ########### ",
" ###########  + ##  O O  OOOO  OOO       + #OOO  ####### + ########### ",
" ########### # ####  O O O++O   O  ##  # + #OO+O#  #### ++ ########### ",
" ###########      # O O  OOOO #   ##  # ++ #O+++O#     +++ ########### ",
" ########### ##  ##  O O O++O ## ##  # +++ #++O++#     +++ ########### ",
" ###########   + ## O O  OOOO  ###  # ++   #O+++O#     +++ ########### ",
" ########### # + ##  O O O++O   #  #O ++++ #OO+OO#     +++ ########### ",
" ###########  ++ ## O O  OOOO #   #O ++    #OOOOO#     +++ ########### ",
" ########### # + # O O   O++O  # #  ++++++ #OO+OO#     +++ ########### ",
" ###########  ++    O    OOOO O # O + +    #O+++O#     +++ ########### ",
" ########### +++        O++O + O O +++++++ #++O++#     +++ ########### ",
" ########### +++  #   # OOOO  + O + +      #O+++O   OO +++ ########### ",
" ########### +++ ### ## O++O +++ +++++++++ #OO+OO OO++ +++ ########### ",
" ########### +++ # ###  OOOO    ++ +       #    OOOOOO +++ ########### ",
" ########### +++  # # # O++O +++++++++++++  ## OO++OOO +++ ########### ",
" ########### +++ # # #  OOOO  +O +   + O+ ### OOOOOO   +++ ########### ",
" ########### +++  # # #O++O +++ O ### O  #### O++OO  # +++ ########### ",
" ########### +++ # # # OOOO  +++ #   # ##### OOOOO # # +++ ########### ",
" ########### +++  # #  O++O +   # OOO # ###  O++O # #  +++ ########### ",
" ########### +++      O++O   ## # OOO #  ++ O++O       +++ ########### ",
" ########### +++ # # OOOOO ####  #   # +++  OOOO # # # +++ ########### ",
" ########### +++ #  OO++O ####  O ### O +++ O++O# # #  +++ ########### ",
" ########### +++   OOOOOO ### +O +   + O+  OOOO  # # # +++ ########### ",
" ########### +++ OOO++OO ### +++++++++++++ O++O # # #  +++ ########### ",
" ########### +++ OOOOOO            + ++    OOOO  ### # +++ ########### ",
" ########### +++ ++OO OO+OO# +++++++++ +++ O++O ## ### +++ ########### ",
" ########### +++ OO   O+++O#      + + O +  OOOO #   #  +++ ########### ",
" ########### +++     #++O++# +++++++ O O + O++O        +++ ########### ",
" ########### +++     #O+++O#    + + O # O OOOO    O    ++  ########### ",
" ########### +++     #OO+OO# ++++++  # #  O++O   O O # + # ########### ",
" ########### +++     #OOOOO#    ++ O#   # OOOO  O O ## ++  ########### ",
" ########### +++     #OO+OO# ++++ O#  #   O++O O O  ## + # ########### ",
" ########### +++     #O+++O#   ++ #  ###  OOOO  O O ## +   ########### ",
" ########### +++     #++O++# +++ #  ## ## O++O O O  ##  ## ########### ",
" ########### +++     #O+++O# ++ #  ##   # OOOO  O O #      ########### ",
" ########### ++ ####  #O+OO# +    ##  O   O++O O O  #### # ########### ",
" ########### + #######  OOO# +       OOO  OOOO  O O  ## +  ########### ",
" ###########  ##########  O#  #  +++ OOO    OO O   ##  +++ ########### ",
" ########### ############# # #   +  + O #### O  +++ ## +++ ########### ",
" ########### ######     ###      ++ +  ######  ++ + ## +   ####   #### ",
" ########### #######   ######  ++   + ###   # #+ ++ ## +++ ##### ##### ",
" ########### ###   ## ##   ## ++  + + ######## +   ### +   ##  # #  ## ",
" ########### ##     # #     ##  + + + ###   ## + + ### +++ #         # ",
" ########### #               ## + + + #### ### + + ### ++  #         # ",
" ########### #               ## + + + #### ### +  #### +++ #         # ",
" ########### #               ## + + + #### ### + ##### ++  ## #   # ## ",
" ########### ##             ### + + +  #   #   + ##### +++ ###     ### ",
" ########### ###   #   #   #### + + + #   #    +   ### ++  ###     ### ",
" ########### ######     ####### + + + ########  XX ### +++ ####   #### ",
" ########### #####       ###### + + + ########  XX###      ########### ",
" ########### #####       ######                 X #### OOO ########### ",
" ########### #####       #####  OOOOOOOOOOOOOO XX ##### OO ####    ### ",
" ########### ######     ###### O   O    O   OO   ####### O ###      ## ",
" ########### #######   ###### O OO O OO O OO OO  ########  ###  ##  ## ",
" ########### ############### O OOO O OO O OOO OO  ######## ###  ##  ## ",
" ###########                                               ###  ###### ",
" #############################################################  ###### ",
" #############################################################  ###### ",
" #############################################################  ###### ",
" #############################################################  ###### ",
" #############################################################  ###### ",
" ############################################################    ##### ",
" ############################################################    ##### ",
" ##################################################################### ",
" ##################################################################### ",
" @###################################################################@ ",
".                                                                     ."
};
