/* XPM */
static char *ck[] = {
/* columns rows colors chars-per-pixel */
"71 96 7 1",
"  c black",
". c #008000",
"X c cyan",
"o c red",
"O c yellow",
"+ c #808080",
"@ c white",
/* pixels */
".                                                                     .",
" +@@@@@@@@@@@@@@@@@@@@@@@@@@@@@@@@@@@@@@@@@@@@@@@@@@@@@@@@@@@@@@@@@@@+ ",
" @@@@@@@@@@@@@@@@@@@@@@@@@@@@@@@@@@@@@@@@@@@@@@@@@@@@@@@@@@@@@@@@@@@@@ ",
" @@@@@@@@@@@@@@@@@@@@@@@@@@@@@@@@@@@@@@@@@@@@@@@@@@@@@@@@@@@@@@@@@@@@@ ",
" @    @    @@@@@@@@@@@@@@@@@@@@@@@@@@@@@@@@@@@@@@@@@@@@@@@@@@@@@@@@@@@ ",
" @    @    @@@@@@@@@@@@@@@@@@@@@@@@@@@@@@@@@@@@@@@@@@@@@@@@@@@@@@@@@@@ ",
" @@  @@  @@@@@@@@@@@@@@@@@@@@@@@@@@@@@@@@@@@@@@@@@@@@@@@@@@@@@@@@@@@@@ ",
" @@  @  @@@@@@@@@@@@@@@@@@@@@@@@@@@@@@@@@@@@@@@@@@@@@@@@@@@@@@@@@@@@@@ ",
" @@    @@@@@@@@@@@@@@@@@@@@@@@@@@@@@@@@@@@@@@@@@@@@@@@@@@@@@@@@@@@@@@@ ",
" @@   @@@@@@@@@@@@@@@@@@@@@@@@@@@@@@@@@@@@@@@@@@@@@@@@@@@@@@@@@@@@@@@@ ",
" @@    @@@@@@@@@@@@@@@@@@@@@@@@@@@@@@@@@@@@@@@@@@@@@@@@@@@@@@@@@@@@@@@ ",
" @@  @  @@@@                                               @@@@@@@@@@@ ",
" @@  @@  @@@ @@@@@@@@@@@@@@@@ OOO OOO OOO OOOOOOOO @@@@@@@ @@@@@@@@@@@ ",
" @@  @@@  @@ @@@@@@@   @@@@@@@ O   O   O   OO OOO @@@@@@@@ @@@@@@@@@@@ ",
" @    @    @ @@@@@@     @@@@@@@ oooooooooooo   O @@@@@@@@@ @@@@@@@@@@@ ",
" @    @    @ @@@@@       @@@@@@@            ooo @@@@@@@@ @ @@@@@@@@@@@ ",
" @@@@@@@@@@@ @@@@@       @@@@@@@                @@@@@@@    @@@@@@@@@@@ ",
" @@@@@@@@@@@ @@@@@       @@@@@@  @@@@@@@@ @     @@@@@@ @ o @@@@@@@@@@@ ",
" @@@@   @@@@ @@@@@@     @@@@@@ @ @@@@@@@@ @ @   @@@@@@ @ o @@@@@@@@@@@ ",
" @@@     @@@ @@@   @   @   @@@ @    @     @ @ @ @@@@@@ @ o @@@@@@@@@@@ ",
" @@@     @@@ @@             @@     @   @  @ @ @ @@@@@@ @ o @@@@@@@@@@@ ",
" @@ @   @ @@ @               @ @ @@@ @@@@ @ @ @ @@@@@@ @ o @@@@@@@@@@@ ",
" @         @ @               @ @ @@@ @@@@ @ @ @ @@@@@@ @ o @@@@@@@@@@@ ",
" @         @ @               @ @ @@@ @@@@ @ @ @ @@@@@@ @ o @@@@@@@@@@@ ",
" @         @ @@     @ @     @@ @ @@   @@@ @ @ @ @@@@@@ @ o @@@@@@@@@@@ ",
" @@  @ @  @@ @@@   @@ @@   @@ @@   @@@  @ @ @ @   @@@@ @ o @@@@@@@@@@@ ",
" @@@@X X@@@@ @@@@@@@   @@@@@@    @@   @@@ @ @ @ @@ @@@ @ o @@@@@@@@@@@ ",
" @@@@   @@@@ @@@@@@     @@@@@@ @ @@@@@@@@ @ @@ @ @  @@ @ o @@@@@@@@@@@ ",
" @@@@@@@@@@@ @@@@@@@@@@@@@@@   @ @ @@@ @  @ @   @  o   @ o @@@@@@@@@@@ ",
" @@@@@@@@@@@ @@@@@@@@@@@@@@ @@ @ @ @ @ @ @  @ @ @ oooo @ o @@@@@@@@@@@ ",
" @@@@@@@@@@@ @@@@@@@@@@@@@@ @ @@ @ @ @ @  @ @@@  oOooo @ o @@@@@@@@@@@ ",
" @@@@@@@@@@@ @@@@@@@@@@@    @@@ @ @ o @ @@ o   ooOOooo @ o @@@@@@@@@@@ ",
" @@@@@@@@@@@ @@@@@@@@            o ooo o  oooo oooooO  @ o @@@@@@@@@@@ ",
" @@@@@@@@@@@ @@@@@   oo OO  @  O  oooooooooo  oOoooo @ @ o @@@@@@@@@@@ ",
" @@@@@@@@@@@ @@@@ oooooo OO     O   oooooo   oOOooO @@ @ o @@@@@@@@@@@ ",
" @@@@@@@@@@@ @@  o@o@o@o@ OO  @ O O   oo   O ooooo @@  @ o @@@@@@@@@@@ ",
" @@@@@@@@@@@ @   ooooooooo OO    O O      O ooooO @@   @ o @@@@@@@@@@@ ",
" @@@@@@@@@@@ o   @o@o@o@o@o OO   O OO    OO oOooo @    @ o @@@@@@@@@@@ ",
" @@@@@@@@@@@ o   oooooooooo  Oo   O  O  O  oOOoo @@    @ o @@@@@@@@@@@ ",
" @@@@@@@@@@@ o   o@o@o@o@o@   Oo  O OOOOOO ooooO @  o  @ o @@@@@@@@@@@ ",
" @@@@@@@@@@@ o   ooooo    o  o O   O   o   ooooo @     @ o @@@@@@@@@@@ ",
" @@@@@@@@@@@  OO  o@o @@@@      O  O OOOOO oOoO @@  o  @ o @@@@@@@@@@@ ",
" @@@@@@@@@@@ OOOO oo @@  @@  oo O  O   o  oOOoo @      @ o @@@@@@@@@@@ ",
" @@@@@@@@@@@  OO   o @ oo @      O  O OOO ooooO @        o @@@@@@@@@@@ ",
" @@@@@@@@@@@         @ oo @  ooo O  O  o  ooooo @   @@ @@  @@@@@@@@@@@ ",
" @@@@@@@@@@@  oo     @@  @@       O O OOO ooOoO @  @@@@    @@@@@@@@@@@ ",
" @@@@@@@@@@@          @@@@                oOOoo @  @  @@@  @@@@@@@@@@@ ",
" @@@@@@@@@@@  @@ @@       oo @@@@ ooo      oooO @  @@@     @@@@@@@@@@@ ",
" @@@@@@@@@@@     @@@  @ Oooo      ooo @@@@ oo       @@ @@  @@@@@@@@@@@ ",
" @@@@@@@@@@@  @@@  @  @ ooOOo                @@@@          @@@@@@@@@@@ ",
" @@@@@@@@@@@    @@@@  @ OoOoo OOO O O       @@  @@     oo  @@@@@@@@@@@ ",
" @@@@@@@@@@@  @@ @@   @ ooooo  o  O  O ooo  @ oo @         @@@@@@@@@@@ ",
" @@@@@@@@@@@ o        @ Ooooo OOO O  O      @ oo @ o   OO  @@@@@@@@@@@ ",
" @@@@@@@@@@@ o @      @ ooOOo  o   O  O oo  @@  @@ oo OOOO @@@@@@@@@@@ ",
" @@@@@@@@@@@ o @  o  @@ OoOo OOOOO O  O      @@@@ o@o  OO  @@@@@@@@@@@ ",
" @@@@@@@@@@@ o @     @ ooooo   o   O   O o  o    ooooo   o @@@@@@@@@@@ ",
" @@@@@@@@@@@ o @  o  @ Ooooo OOOOOO O  oO   @o@o@o@o@o   o @@@@@@@@@@@ ",
" @@@@@@@@@@@ o @    @@ ooOOo  O  O  O   oO  oooooooooo   o @@@@@@@@@@@ ",
" @@@@@@@@@@@ o @    @ oooOo OO    OO O   OO o@o@o@o@o@   o @@@@@@@@@@@ ",
" @@@@@@@@@@@ o @   @@ Ooooo O      O O    OO ooooooooo   @ @@@@@@@@@@@ ",
" @@@@@@@@@@@ o @  @@ ooooo O   oo   O O @  OO @o@o@o@o  @@ @@@@@@@@@@@ ",
" @@@@@@@@@@@ o @ @@ OooOOo   oooooo   O     OO oooooo @@@@ @@@@@@@@@@@ ",
" @@@@@@@@@@@ o @ @ ooooOo  oooooooooo  O  @  OO oo   @@@@@ @@@@@@@@@@@ ",
" @@@@@@@@@@@ o @  Oooooo oooo  o ooo o            @@@@@@@@ @@@@@@@@@@@ ",
" @@@@@@@@@@@ o @ oooOOoo   o @@ @ o @ @ @@@    @@@@@@@@@@@ @@@@@@@@@@@ ",
" @@@@@@@@@@@ o @ oooOo  @@@ @  @ @ @ @ @@ @ @@@@@@@@@@@@@@ @@@@@@@@@@@ ",
" @@@@@@@@@@@ o @ oooo @ @ @  @ @ @ @ @ @ @@ @@@@@@@@@@@@@@ @@@@@@@@@@@ ",
" @@@@@@@@@@@ o @   o  @   @ @  @ @@@ @ @   @@@@@@@@@@@@@@@ @@@@@@@@@@@ ",
" @@@@@@@@@@@ o @ @@  @ @ @@ @ @@@@@@@@ @ @@@@@@     @@@@@@ @@@@   @@@@ ",
" @@@@@@@@@@@ o @ @@@ @@ @ @ @ @@@   @@    @@@@@@   @@@@@@@ @@@@@ @@@@@ ",
" @@@@@@@@@@@ o @ @@@@   @ @ @ @  @@@   @@ @@   @@ @@   @@@ @@  @ @  @@ ",
" @@@@@@@@@@@ o @ @@@@@@ @ @ @ @@@   @@ @ @@     @ @     @@ @         @ ",
" @@@@@@@@@@@ o @ @@@@@@ @ @ @ @@@@ @@@ @ @               @ @         @ ",
" @@@@@@@@@@@ o @ @@@@@@ @ @ @ @@@@ @@@ @ @               @ @         @ ",
" @@@@@@@@@@@ o @ @@@@@@ @ @ @ @@@@ @@@ @ @               @ @@ @   @ @@ ",
" @@@@@@@@@@@ o @ @@@@@@ @ @ @  @   @     @@             @@ @@@     @@@ ",
" @@@@@@@@@@@ o @ @@@@@@ @ @ @     @    @ @@@   @   @   @@@ @@@     @@@ ",
" @@@@@@@@@@@ o @ @@@@@@   @ @ @@@@@@@@ @ @@@@@@     @@@@@@ @@@@   @@@@ ",
" @@@@@@@@@@@ o @ @@@@@@     @ @@@@@@@@  @@@@@@       @@@@@ @@@@@@@@@@@ ",
" @@@@@@@@@@@    @@@@@@@                @@@@@@@       @@@@@ @@@@@@@@@@@ ",
" @@@@@@@@@@@ @ @@@@@@@@ ooo            @@@@@@@       @@@@@ @    @    @ ",
" @@@@@@@@@@@ @@@@@@@@@ O   oooooooooooo @@@@@@@     @@@@@@ @    @    @ ",
" @@@@@@@@@@@ @@@@@@@@ OOO OO   O   O   O @@@@@@@   @@@@@@@ @@  @@@  @@ ",
" @@@@@@@@@@@ @@@@@@@ OOOOOOOO OOO OOO OOO @@@@@@@@@@@@@@@@ @@@  @@  @@ ",
" @@@@@@@@@@@                                               @@@@  @  @@ ",
" @@@@@@@@@@@@@@@@@@@@@@@@@@@@@@@@@@@@@@@@@@@@@@@@@@@@@@@@@@@@@@@    @@ ",
" @@@@@@@@@@@@@@@@@@@@@@@@@@@@@@@@@@@@@@@@@@@@@@@@@@@@@@@@@@@@@@@@   @@ ",
" @@@@@@@@@@@@@@@@@@@@@@@@@@@@@@@@@@@@@@@@@@@@@@@@@@@@@@@@@@@@@@@    @@ ",
" @@@@@@@@@@@@@@@@@@@@@@@@@@@@@@@@@@@@@@@@@@@@@@@@@@@@@@@@@@@@@@  @  @@ ",
" @@@@@@@@@@@@@@@@@@@@@@@@@@@@@@@@@@@@@@@@@@@@@@@@@@@@@@@@@@@@@  @@  @@ ",
" @@@@@@@@@@@@@@@@@@@@@@@@@@@@@@@@@@@@@@@@@@@@@@@@@@@@@@@@@@@    @    @ ",
" @@@@@@@@@@@@@@@@@@@@@@@@@@@@@@@@@@@@@@@@@@@@@@@@@@@@@@@@@@@    @    @ ",
" @@@@@@@@@@@@@@@@@@@@@@@@@@@@@@@@@@@@@@@@@@@@@@@@@@@@@@@@@@@@@@@@@@@@@ ",
" @@@@@@@@@@@@@@@@@@@@@@@@@@@@@@@@@@@@@@@@@@@@@@@@@@@@@@@@@@@@@@@@@@@@@ ",
" +@@@@@@@@@@@@@@@@@@@@@@@@@@@@@@@@@@@@@@@@@@@@@@@@@@@@@@@@@@@@@@@@@@@+ ",
".                                                                     ."
};
