/* XPM */
static char *cq[] = {
/* columns rows colors chars-per-pixel */
"71 96 7 1",
"  c black",
". c #008000",
"X c cyan",
"o c red",
"O c yellow",
"+ c #808080",
"@ c white",
/* pixels */
".                                                                     .",
" +@@@@@@@@@@@@@@@@@@@@@@@@@@@@@@@@@@@@@@@@@@@@@@@@@@@@@@@@@@@@@@@@@@@+ ",
" @@@@@@@@@@@@@@@@@@@@@@@@@@@@@@@@@@@@@@@@@@@@@@@@@@@@@@@@@@@@@@@@@@@@@ ",
" @@@@@@@@@@@@@@@@@@@@@@@@@@@@@@@@@@@@@@@@@@@@@@@@@@@@@@@@@@@@@@@@@@@@@ ",
" @@@     @@@@@@@@@@@@@@@@@@@@@@@@@@@@@@@@@@@@@@@@@@@@@@@@@@@@@@@@@@@@@ ",
" @@       @@@@@@@@@@@@@@@@@@@@@@@@@@@@@@@@@@@@@@@@@@@@@@@@@@@@@@@@@@@@ ",
" @@  @@@  @@@@@@@@@@@@@@@@@@@@@@@@@@@@@@@@@@@@@@@@@@@@@@@@@@@@@@@@@@@@ ",
" @@  @@@  @@@@@@@@@@@@@@@@@@@@@@@@@@@@@@@@@@@@@@@@@@@@@@@@@@@@@@@@@@@@ ",
" @@  @@@  @@@@@@@@@@@@@@@@@@@@@@@@@@@@@@@@@@@@@@@@@@@@@@@@@@@@@@@@@@@@ ",
" @@  @@@  @@@@@@@@@@@@@@@@@@@@@@@@@@@@@@@@@@@@@@@@@@@@@@@@@@@@@@@@@@@@ ",
" @@  @@@  @@@@@@@@@@@@@@@@@@@@@@@@@@@@@@@@@@@@@@@@@@@@@@@@@@@@@@@@@@@@ ",
" @@  @@@  @@                                               @@@@@@@@@@@ ",
" @@  @@@  @@ OOOOOOOOOOo  o@ @ @  @ @@@@@@@@@@@@@@@@@@@@@@ @@@@@@@@@@@ ",
" @@  @@@  @@  OOOOOOOOOo  o@  @ @   @@@@@@@@@@@@   @@@@@@@ @@@@@@@@@@@ ",
" @@       @@ @ OOOOO  Oo  o@ @@  @  @@@@@@@@@@@     @@@@@@ @@@@@@@@@@@ ",
" @@@     @@@ @@ OOOO Ooo  o@ @ @@ @ @@@@@@@@@@       @@@@@ @@@@@@@@@@@ ",
" @@@@@@   @@ @@ OOOOOoo  oo@  @@@@   @@@@@@@@@       @@@@@ @@@@@@@@@@@ ",
" @@@@@@@  @@ @@@ OOOOoo  o@@ @@@@@@  @@@@@@@@@       @@@@@ @@@@@@@@@@@ ",
" @@@@   @@@@ @@@ O  Oo   o@@   @    o @@@@@@@@@     @@@@@@ @@@@@@@@@@@ ",
" @@@     @@@ @@@ O Ooo  oo@ @  @@   o @@@@@@   @   @   @@@ @@@@@@@@@@@ ",
" @@@     @@@ @@ OOOoo   o@@ @@@ @@@  o @@@@             @@ @@@@@@@@@@@ ",
" @@ @   @ @@ @@ OOOoo  oo@ @@@@ @@@  o @@@               @ @@@@@@@@@@@ ",
" @         @ @ O  oo  oo@@ @@@@ @@@   o @@               @ @@@@@@@@@@@ ",
" @         @  OO oo   o@@ @@@@   @@ o oo @               @ @@@@@@@@@@@ ",
" @         @ @  oo   oo@@ @@@@@@@@@ oo oo @     @ @     @@ @@@@@@@@@@@ ",
" @@  @ @  @@ @@@    oo@@ o @@@   @   o  oo @   @@ @@   @@@ @@@@@@@@@@@ ",
" @@@@X X@@@@ @@@@   o@@@  o @@@ @@    o  oo @@@@   @@@@@@@ @@@@@@@@@@@ ",
" @@@@   @@@@ @@@   oo@@  O   @@@@ O    o  oo @@     @@@@@@ @@@@@@@@@@@ ",
" @@@@@@@@@@@ @@   oo@  oOoO O    O oOOo oo  o @@@@@@@@@@@@ @@@@@@@@@@@ ",
" @@@@@@@@@@@ @   oo@ @@ oOooO O OooOOo @ oo  o @@@  @@@@@@ @@@@@@@@@@@ ",
" @@@@@@@@@@@    o        oOOoooooOOOo     oo o @@ oo  @@@@ @@@@@@@@@@@ ",
" @@@@@@@@@@@   oOOO     @  oOOOOOOoo @ @ O o o @ o  oo @@@ @@@@@@@@@@@ ",
" @@@@@@@@@@@  OO OOO @@ @@   o   o  @@  O O o @ ooooo @@@@ @@@@@@@@@@@ ",
" @@@@@@@@@@@ OOOO O O @ @   @ ooo @    OOO   @@@   o @   @ @@@@@@@@@@@ ",
" @@@@@@@@@@@ ooooo OOO    @ @ oOo @ @ O O   O @@@@@ @ OOO  @@@@@@@@@@@ ",
" @@@@@@@@@@@ oooooo OO O  @ @ ooo @  OOO o  O  @   @ OO  @ @@@@@@@@@@@ ",
" @@@@@@@@@@@ ooooooo  OOOO     o    O O oo  O   OOO     @@ @@@@@@@@@@@ ",
" @@@@@@@@@@@ O O O ooo  O OOOO   OOOO   Oo  O  OOO @ @@@ @ @@@@@@@@@@@ ",
" @@@@@@@@@@@  O O O O oo   OOOOOOOO     Ooo  O     @@    @ @@@@@@@@@@@ ",
" @@@@@@@@@@@ O O        ooO          O  Ooo   oo o  @ @@ @ @@@@@@@@@@@ ",
" @@@@@@@@@@@  O  OOOOOOO  ooO    O  O  Ooooo o@@o        @ @@@@@@@@@@@ ",
" @@@@@@@@@@@ O OOO     OOO oo     O O  Oooo O o@oo o @@@ @ @@@@@@@@@@@ ",
" @@@@@@@@@@@  OO   O O   OO oO     O   Ooo OO  oooo     @@ @@@@@@@@@@@ ",
" @@@@@@@@@@@ o   O O O O  OO o    O O  Ooo O OO o@@o o @@@ @@@@@@@@@@@ ",
" @@@@@@@@@@@ oo  O      OO O oO  O   O Oo OO     o@oo   @@ @@@@@@@@@@@ ",
" @@@@@@@@@@@ o@o  ooooo    OO o O      Oo O OO oo oooo o @ @@@@@@@@@@@ ",
" @@@@@@@@@@@ o@@o o@@@oo OO O      OO     O    o@@ o@@o    @@@@@@@@@@@ ",
" @@@@@@@@@@@  oooo @  @o    O ooo oooo OO O OO o@ @ o@oo o @@@@@@@@@@@ ",
" @@@@@@@@@@@ o oo@o @ @o OO O OOO oooo oo O    o@  @ oooo  @@@@@@@@@@@ ",
" @@@@@@@@@@@    o@@o @@o    O      OO     O OO oo@@@o o@@o @@@@@@@@@@@ ",
" @@@@@@@@@@@ @ o oooo oo OO O oO O      o OO    ooooo  o@o @@@@@@@@@@@ ",
" @@@@@@@@@@@ @@   oo@o     OO oO  O   O Oo O OO      O  oo @@@@@@@@@@@ ",
" @@@@@@@@@@@ @@@ o o@@o OO O ooO   O O   o OO  O O O O   o @@@@@@@@@@@ ",
" @@@@@@@@@@@ @@     oooo  OO ooO    O    Oo OO   O O   OO  @@@@@@@@@@@ ",
" @@@@@@@@@@@ @ @@@ o oo@o O oooO   O O    oo OOO     OOO O @@@@@@@@@@@ ",
" @@@@@@@@@@@ @        o@@o ooooO   O  OO  Ooo  OOOOOOO  O  @@@@@@@@@@@ ",
" @@@@@@@@@@@ @ @@ @  o oo   ooO   O         Ooo        O O @@@@@@@@@@@ ",
" @@@@@@@@@@@ @    @@     O  ooO     OOOOOOOO   oo O O O O  @@@@@@@@@@@ ",
" @@@@@@@@@@@ @ @@@ @ OOO  O  oO   OOOO   OOOO O  ooo O O O @@@@@@@@@@@ ",
" @@@@@@@@@@@ @@     OOO   O  oo OOO    o     OOOO  ooooooo @@@@@@@@@@@ ",
" @@@@@@@@@@@ @  OO @   @  O  o OOO  @ ooo @ @  O OO oooooo @@@@@@@@@@@ ",
" @@@@@@@@@@@  OOO @ @@@@@ O   O O @ @ oOo @ @    OOO ooooo @@@@@@@@@@@ ",
" @@@@@@@@@@@ @   @ o   @@@   OOO    @ ooo @   @ @ O O OOOO @@@@@@@@@@@ ",
" @@@@@@@@@@@ @@@@ ooooo @ o O O  @@  o   o   @@ @@ OOO OO  @@@@@@@@@@@ ",
" @@@@@@@@@@@ @@@ oo  o @ o o O @ @ ooOOOOOOo  @     OOOo   @@@@@@@@@@@ ",
" @@@@@@@@@@@ @@@@  oo @@ o oo     oOOOoooooOOo        o    @@@@@@@@@@@ ",
" @@@@@@@@@@@ @@@@@@  @@@ o  oo @ oOOooO O OooOo @@ @oo   @ @@@@@@@@@@@ ",
" @@@@@@@@@@@ @@@@@@@@@@@@ o  oo oOOo O    O OoOo  @oo   @@ @@@@@@@@@@@ ",
" @@@@@@@@@@@ @@@@@@     @@ oo  o    O @@@@   O  @@oo   @@@ @@@@   @@@@ ",
" @@@@@@@@@@@ @@@@@@@   @@@@ oo  o    @@ @@@ o  @@@o   @@@@ @@@@X X@@@@ ",
" @@@@@@@@@@@ @@@   @@ @@   @ oo  o   @   @@@ o @@oo    @@@ @@  @ @  @@ ",
" @@@@@@@@@@@ @@     @ @     @ oo oo @@@@@@@@@ @@oo   oo  @ @         @ ",
" @@@@@@@@@@@ @               @ oo o @@   @@@@ @@o   oo OO  @         @ ",
" @@@@@@@@@@@ @               @@ o   @@@ @@@@ @@oo  oo  O @ @         @ ",
" @@@@@@@@@@@ @               @@@ o  @@@ @@@@ @oo  ooOOO @@ @@ @   @ @@ ",
" @@@@@@@@@@@ @@             @@@@ o  @@@ @@@ @@o   ooOOO @@ @@@     @@@ ",
" @@@@@@@@@@@ @@@   @   @   @@@@@@ o   @@  @ @oo  ooO O @@@ @@@     @@@ ",
" @@@@@@@@@@@ @@@@@@     @@@@@@@@@ o    @   @@o   oO  O @@@ @@@@   @@@@ ",
" @@@@@@@@@@@ @@@@@       @@@@@@@@@  @@@@@@ @@o  ooOOOO @@@ @@  @@@@@@@ ",
" @@@@@@@@@@@ @@@@@       @@@@@@@@@   @@@@  @oo  ooOOOOO @@ @@   @@@@@@ ",
" @@@@@@@@@@@ @@@@@       @@@@@@@@@@ @ @@ @ @o  ooO OOOO @@ @@@     @@@ ",
" @@@@@@@@@@@ @@@@@@     @@@@@@@@@@@  @  @@ @o  oO  OOOOO @ @@       @@ ",
" @@@@@@@@@@@ @@@@@@@   @@@@@@@@@@@@   @ @  @o  oOOOOOOOOO  @@  @@@  @@ ",
" @@@@@@@@@@@ @@@@@@@@@@@@@@@@@@@@@@ @  @ @ @o  oOOOOOOOOOO @@  @@@  @@ ",
" @@@@@@@@@@@                                               @@  @@@  @@ ",
" @@@@@@@@@@@@@@@@@@@@@@@@@@@@@@@@@@@@@@@@@@@@@@@@@@@@@@@@@@@@  @@@  @@ ",
" @@@@@@@@@@@@@@@@@@@@@@@@@@@@@@@@@@@@@@@@@@@@@@@@@@@@@@@@@@@@  @@@  @@ ",
" @@@@@@@@@@@@@@@@@@@@@@@@@@@@@@@@@@@@@@@@@@@@@@@@@@@@@@@@@@@@  @@@  @@ ",
" @@@@@@@@@@@@@@@@@@@@@@@@@@@@@@@@@@@@@@@@@@@@@@@@@@@@@@@@@@@@  @@@  @@ ",
" @@@@@@@@@@@@@@@@@@@@@@@@@@@@@@@@@@@@@@@@@@@@@@@@@@@@@@@@@@@@  @@@  @@ ",
" @@@@@@@@@@@@@@@@@@@@@@@@@@@@@@@@@@@@@@@@@@@@@@@@@@@@@@@@@@@@       @@ ",
" @@@@@@@@@@@@@@@@@@@@@@@@@@@@@@@@@@@@@@@@@@@@@@@@@@@@@@@@@@@@@     @@@ ",
" @@@@@@@@@@@@@@@@@@@@@@@@@@@@@@@@@@@@@@@@@@@@@@@@@@@@@@@@@@@@@@@@@@@@@ ",
" @@@@@@@@@@@@@@@@@@@@@@@@@@@@@@@@@@@@@@@@@@@@@@@@@@@@@@@@@@@@@@@@@@@@@ ",
" +@@@@@@@@@@@@@@@@@@@@@@@@@@@@@@@@@@@@@@@@@@@@@@@@@@@@@@@@@@@@@@@@@@@+ ",
".                                                                     ."
};
