/* XPM */
static char *d10[] = {
/* columns rows colors chars-per-pixel */
"71 96 5 1",
"  c black",
". c #008000",
"X c red",
"o c #808080",
"O c white",
/* pixels */
".                                                                     .",
" oOOOOOOOOOOOOOOOOOOOOOOOOOOOOOOOOOOOOOOOOOOOOOOOOOOOOOOOOOOOOOOOOOOOo ",
" OOOOOOOOOOOOOOOOOOOOOOOOOOOOOOOOOOOOOOOOOOOOOOOOOOOOOOOOOOOOOOOOOOOOO ",
" OOOOOOOOOOOOOOOOOOOOOOOOOOOOOOOOOOOOOOOOOOOOOOOOOOOOOOOOOOOOOOOOOOOOO ",
" OOXXOOXXXXOOOOOOOOOOOOOOOOOOOOOOOOOOOOOOOOOOOOOOOOOOOOOOOOOOOOOOOOOOO ",
" OOXXOXXXXXXOOOOOOOOOOOOOOOOOOOOOOOOOOOOOOOOOOOOOOOOOOOOOOOOOOOOOOOOOO ",
" OOXXOXXOOXXOOOOOOOOOOOOOOOOOOOOOOOOOOOOOOOOOOOOOOOOOOOOOOOOOOOOOOOOOO ",
" OOXXOXXOOXXOOOOOOOOOOOOOOOOOOOOOOOOOOOOOOOOOOOOOOOOOOOOOOOOOOOOOOOOOO ",
" OOXXOXXOOXXOOOOOOOOOOOOOOOOOOOOOOOOOOOOOOOOOOOOOOOOOOOOOOOOOOOOOOOOOO ",
" OOXXOXXOOXXOOOOOOOOOOOOOOOOOOOOOOOOOOOOOOOOOOOOOOOOOOOOOOOOOOOOOOOOOO ",
" OOXXOXXOOXXOOOOOOOOOXOOOOOOOOOOOOOOOOOOOOOOOOOOOXOOOOOOOOOOOOOOOOOOOO ",
" OOXXOXXOOXXOOOOOOOOXXXOOOOOOOOOOOOOOOOOOOOOOOOOXXXOOOOOOOOOOOOOOOOOOO ",
" OOXXOXXOOXXOOOOOOOXXXXXOOOOOOOOOOOOOOOOOOOOOOOXXXXXOOOOOOOOOOOOOOOOOO ",
" OOXXOXXOOXXOOOOOOXXXXXXXOOOOOOOOOOOOOOOOOOOOOXXXXXXXOOOOOOOOOOOOOOOOO ",
" OOXXOXXXXXXOOOOOXXXXXXXXXOOOOOOOOOOOOOOOOOOOXXXXXXXXXOOOOOOOOOOOOOOOO ",
" OOXXOOXXXXOOOOOOXXXXXXXXXOOOOOOOOOOOOOOOOOOOXXXXXXXXXOOOOOOOOOOOOOOOO ",
" OOOOOOOOOOOOOOOXXXXXXXXXXXOOOOOOOOOOOOOOOOOXXXXXXXXXXXOOOOOOOOOOOOOOO ",
" OOOOOOOOOOOOOOXXXXXXXXXXXXXOOOOOOOOOOOOOOOXXXXXXXXXXXXXOOOOOOOOOOOOOO ",
" OOOOOXOOOOOOOOOXXXXXXXXXXXOOOOOOOOOOOOOOOOOXXXXXXXXXXXOOOOOOOOOOOOOOO ",
" OOOOXXXOOOOOOOOOXXXXXXXXXOOOOOOOOOOOOOOOOOOOXXXXXXXXXOOOOOOOOOOOOOOOO ",
" OOOXXXXXOOOOOOOOXXXXXXXXXOOOOOOOOOOOOOOOOOOOXXXXXXXXXOOOOOOOOOOOOOOOO ",
" OOXXXXXXXOOOOOOOOXXXXXXXOOOOOOOOOOXOOOOOOOOOOXXXXXXXOOOOOOOOOOOOOOOOO ",
" OOXXXXXXXOOOOOOOOOXXXXXOOOOOOOOOOXXXOOOOOOOOOOXXXXXOOOOOOOOOOOOOOOOOO ",
" OOXXXXXXXOOOOOOOOOOXXXOOOOOOOOOOXXXXXOOOOOOOOOOXXXOOOOOOOOOOOOOOOOOOO ",
" OOOXXXXXOOOOOOOOOOOOXOOOOOOOOOOXXXXXXXOOOOOOOOOOXOOOOOOOOOOOOOOOOOOOO ",
" OOOOXXXOOOOOOOOOOOOOOOOOOOOOOOXXXXXXXXXOOOOOOOOOOOOOOOOOOOOOOOOOOOOOO ",
" OOOOOXOOOOOOOOOOOOOOOOOOOOOOOOXXXXXXXXXOOOOOOOOOOOOOOOOOOOOOOOOOOOOOO ",
" OOOOOOOOOOOOOOOOOOOOOOOOOOOOOXXXXXXXXXXXOOOOOOOOOOOOOOOOOOOOOOOOOOOOO ",
" OOOOOOOOOOOOOOOOOOOOOOOOOOOOXXXXXXXXXXXXXOOOOOOOOOOOOOOOOOOOOOOOOOOOO ",
" OOOOOOOOOOOOOOOOOOOOOOOOOOOOOXXXXXXXXXXXOOOOOOOOOOOOOOOOOOOOOOOOOOOOO ",
" OOOOOOOOOOOOOOOOOOOOXOOOOOOOOOXXXXXXXXXOOOOOOOOOXOOOOOOOOOOOOOOOOOOOO ",
" OOOOOOOOOOOOOOOOOOOXXXOOOOOOOOXXXXXXXXXOOOOOOOOXXXOOOOOOOOOOOOOOOOOOO ",
" OOOOOOOOOOOOOOOOOOXXXXXOOOOOOOOXXXXXXXOOOOOOOOXXXXXOOOOOOOOOOOOOOOOOO ",
" OOOOOOOOOOOOOOOOOXXXXXXXOOOOOOOOXXXXXOOOOOOOOXXXXXXXOOOOOOOOOOOOOOOOO ",
" OOOOOOOOOOOOOOOOXXXXXXXXXOOOOOOOOXXXOOOOOOOOXXXXXXXXXOOOOOOOOOOOOOOOO ",
" OOOOOOOOOOOOOOOOXXXXXXXXXOOOOOOOOOXOOOOOOOOOXXXXXXXXXOOOOOOOOOOOOOOOO ",
" OOOOOOOOOOOOOOOXXXXXXXXXXXOOOOOOOOOOOOOOOOOXXXXXXXXXXXOOOOOOOOOOOOOOO ",
" OOOOOOOOOOOOOOXXXXXXXXXXXXXOOOOOOOOOOOOOOOXXXXXXXXXXXXXOOOOOOOOOOOOOO ",
" OOOOOOOOOOOOOOOXXXXXXXXXXXOOOOOOOOOOOOOOOOOXXXXXXXXXXXOOOOOOOOOOOOOOO ",
" OOOOOOOOOOOOOOOOXXXXXXXXXOOOOOOOOOOOOOOOOOOOXXXXXXXXXOOOOOOOOOOOOOOOO ",
" OOOOOOOOOOOOOOOOXXXXXXXXXOOOOOOOOOOOOOOOOOOOXXXXXXXXXOOOOOOOOOOOOOOOO ",
" OOOOOOOOOOOOOOOOOXXXXXXXOOOOOOOOOOOOOOOOOOOOOXXXXXXXOOOOOOOOOOOOOOOOO ",
" OOOOOOOOOOOOOOOOOOXXXXXOOOOOOOOOOOOOOOOOOOOOOOXXXXXOOOOOOOOOOOOOOOOOO ",
" OOOOOOOOOOOOOOOOOOOXXXOOOOOOOOOOOOOOOOOOOOOOOOOXXXOOOOOOOOOOOOOOOOOOO ",
" OOOOOOOOOOOOOOOOOOOOXOOOOOOOOOOOOOOOOOOOOOOOOOOOXOOOOOOOOOOOOOOOOOOOO ",
" OOOOOOOOOOOOOOOOOOOOOOOOOOOOOOOOOOOOOOOOOOOOOOOOOOOOOOOOOOOOOOOOOOOOO ",
" OOOOOOOOOOOOOOOOOOOOOOOOOOOOOOOOOOOOOOOOOOOOOOOOOOOOOOOOOOOOOOOOOOOOO ",
" OOOOOOOOOOOOOOOOOOOOOOOOOOOOOOOOOOOOOOOOOOOOOOOOOOOOOOOOOOOOOOOOOOOOO ",
" OOOOOOOOOOOOOOOOOOOOOOOOOOOOOOOOOOOOOOOOOOOOOOOOOOOOOOOOOOOOOOOOOOOOO ",
" OOOOOOOOOOOOOOOOOOOOOOOOOOOOOOOOOOOOOOOOOOOOOOOOOOOOOOOOOOOOOOOOOOOOO ",
" OOOOOOOOOOOOOOOOOOOOOOOOOOOOOOOOOOOOOOOOOOOOOOOOOOOOOOOOOOOOOOOOOOOOO ",
" OOOOOOOOOOOOOOOOOOOOXOOOOOOOOOOOOOOOOOOOOOOOOOOOXOOOOOOOOOOOOOOOOOOOO ",
" OOOOOOOOOOOOOOOOOOOXXXOOOOOOOOOOOOOOOOOOOOOOOOOXXXOOOOOOOOOOOOOOOOOOO ",
" OOOOOOOOOOOOOOOOOOXXXXXOOOOOOOOOOOOOOOOOOOOOOOXXXXXOOOOOOOOOOOOOOOOOO ",
" OOOOOOOOOOOOOOOOOXXXXXXXOOOOOOOOOOOOOOOOOOOOOXXXXXXXOOOOOOOOOOOOOOOOO ",
" OOOOOOOOOOOOOOOOXXXXXXXXXOOOOOOOOOOOOOOOOOOOXXXXXXXXXOOOOOOOOOOOOOOOO ",
" OOOOOOOOOOOOOOOOXXXXXXXXXOOOOOOOOOOOOOOOOOOOXXXXXXXXXOOOOOOOOOOOOOOOO ",
" OOOOOOOOOOOOOOOXXXXXXXXXXXOOOOOOOOOOOOOOOOOXXXXXXXXXXXOOOOOOOOOOOOOOO ",
" OOOOOOOOOOOOOOXXXXXXXXXXXXXOOOOOOOOOOOOOOOXXXXXXXXXXXXXOOOOOOOOOOOOOO ",
" OOOOOOOOOOOOOOOXXXXXXXXXXXOOOOOOOOOOOOOOOOOXXXXXXXXXXXOOOOOOOOOOOOOOO ",
" OOOOOOOOOOOOOOOOXXXXXXXXXOOOOOOOOOXOOOOOOOOOXXXXXXXXXOOOOOOOOOOOOOOOO ",
" OOOOOOOOOOOOOOOOXXXXXXXXXOOOOOOOOXXXOOOOOOOOXXXXXXXXXOOOOOOOOOOOOOOOO ",
" OOOOOOOOOOOOOOOOOXXXXXXXOOOOOOOOXXXXXOOOOOOOOXXXXXXXOOOOOOOOOOOOOOOOO ",
" OOOOOOOOOOOOOOOOOOXXXXXOOOOOOOOXXXXXXXOOOOOOOOXXXXXOOOOOOOOOOOOOOOOOO ",
" OOOOOOOOOOOOOOOOOOOXXXOOOOOOOOXXXXXXXXXOOOOOOOOXXXOOOOOOOOOOOOOOOOOOO ",
" OOOOOOOOOOOOOOOOOOOOXOOOOOOOOOXXXXXXXXXOOOOOOOOOXOOOOOOOOOOOOOOOOOOOO ",
" OOOOOOOOOOOOOOOOOOOOOOOOOOOOOXXXXXXXXXXXOOOOOOOOOOOOOOOOOOOOOOOOOOOOO ",
" OOOOOOOOOOOOOOOOOOOOOOOOOOOOXXXXXXXXXXXXXOOOOOOOOOOOOOOOOOOOOOOOOOOOO ",
" OOOOOOOOOOOOOOOOOOOOOOOOOOOOOXXXXXXXXXXXOOOOOOOOOOOOOOOOOOOOOOOOOOOOO ",
" OOOOOOOOOOOOOOOOOOOOOOOOOOOOOOXXXXXXXXXOOOOOOOOOOOOOOOOOOOOOOOOXOOOOO ",
" OOOOOOOOOOOOOOOOOOOOOOOOOOOOOOXXXXXXXXXOOOOOOOOOOOOOOOOOOOOOOOXXXOOOO ",
" OOOOOOOOOOOOOOOOOOOOXOOOOOOOOOOXXXXXXXOOOOOOOOOOXOOOOOOOOOOOOXXXXXOOO ",
" OOOOOOOOOOOOOOOOOOOXXXOOOOOOOOOOXXXXXOOOOOOOOOOXXXOOOOOOOOOOXXXXXXXOO ",
" OOOOOOOOOOOOOOOOOOXXXXXOOOOOOOOOOXXXOOOOOOOOOOXXXXXOOOOOOOOOXXXXXXXOO ",
" OOOOOOOOOOOOOOOOOXXXXXXXOOOOOOOOOOXOOOOOOOOOOXXXXXXXOOOOOOOOXXXXXXXOO ",
" OOOOOOOOOOOOOOOOXXXXXXXXXOOOOOOOOOOOOOOOOOOOXXXXXXXXXOOOOOOOOXXXXXOOO ",
" OOOOOOOOOOOOOOOOXXXXXXXXXOOOOOOOOOOOOOOOOOOOXXXXXXXXXOOOOOOOOOXXXOOOO ",
" OOOOOOOOOOOOOOOXXXXXXXXXXXOOOOOOOOOOOOOOOOOXXXXXXXXXXXOOOOOOOOOXOOOOO ",
" OOOOOOOOOOOOOOXXXXXXXXXXXXXOOOOOOOOOOOOOOOXXXXXXXXXXXXXOOOOOOOOOOOOOO ",
" OOOOOOOOOOOOOOOXXXXXXXXXXXOOOOOOOOOOOOOOOOOXXXXXXXXXXXOOOOOOOOOOOOOOO ",
" OOOOOOOOOOOOOOOOXXXXXXXXXOOOOOOOOOOOOOOOOOOOXXXXXXXXXOOOOOOXXXXOOXXOO ",
" OOOOOOOOOOOOOOOOXXXXXXXXXOOOOOOOOOOOOOOOOOOOXXXXXXXXXOOOOOXXXXXXOXXOO ",
" OOOOOOOOOOOOOOOOOXXXXXXXOOOOOOOOOOOOOOOOOOOOOXXXXXXXOOOOOOXXOOXXOXXOO ",
" OOOOOOOOOOOOOOOOOOXXXXXOOOOOOOOOOOOOOOOOOOOOOOXXXXXOOOOOOOXXOOXXOXXOO ",
" OOOOOOOOOOOOOOOOOOOXXXOOOOOOOOOOOOOOOOOOOOOOOOOXXXOOOOOOOOXXOOXXOXXOO ",
" OOOOOOOOOOOOOOOOOOOOXOOOOOOOOOOOOOOOOOOOOOOOOOOOXOOOOOOOOOXXOOXXOXXOO ",
" OOOOOOOOOOOOOOOOOOOOOOOOOOOOOOOOOOOOOOOOOOOOOOOOOOOOOOOOOOXXOOXXOXXOO ",
" OOOOOOOOOOOOOOOOOOOOOOOOOOOOOOOOOOOOOOOOOOOOOOOOOOOOOOOOOOXXOOXXOXXOO ",
" OOOOOOOOOOOOOOOOOOOOOOOOOOOOOOOOOOOOOOOOOOOOOOOOOOOOOOOOOOXXOOXXOXXOO ",
" OOOOOOOOOOOOOOOOOOOOOOOOOOOOOOOOOOOOOOOOOOOOOOOOOOOOOOOOOOXXOOXXOXXOO ",
" OOOOOOOOOOOOOOOOOOOOOOOOOOOOOOOOOOOOOOOOOOOOOOOOOOOOOOOOOOXXXXXXOXXOO ",
" OOOOOOOOOOOOOOOOOOOOOOOOOOOOOOOOOOOOOOOOOOOOOOOOOOOOOOOOOOOXXXXOOXXOO ",
" OOOOOOOOOOOOOOOOOOOOOOOOOOOOOOOOOOOOOOOOOOOOOOOOOOOOOOOOOOOOOOOOOOOOO ",
" OOOOOOOOOOOOOOOOOOOOOOOOOOOOOOOOOOOOOOOOOOOOOOOOOOOOOOOOOOOOOOOOOOOOO ",
" oOOOOOOOOOOOOOOOOOOOOOOOOOOOOOOOOOOOOOOOOOOOOOOOOOOOOOOOOOOOOOOOOOOOo ",
".                                                                     ."
};
