/* XPM */
static char *d8[] = {
/* columns rows colors chars-per-pixel */
"71 96 5 1",
"  c black",
". c #008000",
"X c red",
"o c #808080",
"O c white",
/* pixels */
".                                                                     .",
" oOOOOOOOOOOOOOOOOOOOOOOOOOOOOOOOOOOOOOOOOOOOOOOOOOOOOOOOOOOOOOOOOOOOo ",
" OOOOOOOOOOOOOOOOOOOOOOOOOOOOOOOOOOOOOOOOOOOOOOOOOOOOOOOOOOOOOOOOOOOOO ",
" OOOOOOOOOOOOOOOOOOOOOOOOOOOOOOOOOOOOOOOOOOOOOOOOOOOOOOOOOOOOOOOOOOOOO ",
" OOOOXXXXXOOOOOOOOOOOOOOOOOOOOOOOOOOOOOOOOOOOOOOOOOOOOOOOOOOOOOOOOOOOO ",
" OOOXXXXXXXOOOOOOOOOOOOOOOOOOOOOOOOOOOOOOOOOOOOOOOOOOOOOOOOOOOOOOOOOOO ",
" OOOXXOOOXXOOOOOOOOOOOOOOOOOOOOOOOOOOOOOOOOOOOOOOOOOOOOOOOOOOOOOOOOOOO ",
" OOOXXOOOXXOOOOOOOOOOOOOOOOOOOOOOOOOOOOOOOOOOOOOOOOOOOOOOOOOOOOOOOOOOO ",
" OOOXXOOOXXOOOOOOOOOOOOOOOOOOOOOOOOOOOOOOOOOOOOOOOOOOOOOOOOOOOOOOOOOOO ",
" OOOOXXXXXOOOOOOOOOOOOOOOOOOOOOOOOOOOOOOOOOOOOOOOOOOOOOOOOOOOOOOOOOOOO ",
" OOOXXXXXXXOOOOOOOOOOXOOOOOOOOOOOOOOOOOOOOOOOOOOOXOOOOOOOOOOOOOOOOOOOO ",
" OOOXXOOOXXOOOOOOOOOXXXOOOOOOOOOOOOOOOOOOOOOOOOOXXXOOOOOOOOOOOOOOOOOOO ",
" OOOXXOOOXXOOOOOOOOXXXXXOOOOOOOOOOOOOOOOOOOOOOOXXXXXOOOOOOOOOOOOOOOOOO ",
" OOOXXOOOXXOOOOOOOXXXXXXXOOOOOOOOOOOOOOOOOOOOOXXXXXXXOOOOOOOOOOOOOOOOO ",
" OOOXXXXXXXOOOOOOXXXXXXXXXOOOOOOOOOOOOOOOOOOOXXXXXXXXXOOOOOOOOOOOOOOOO ",
" OOOOXXXXXOOOOOOOXXXXXXXXXOOOOOOOOOOOOOOOOOOOXXXXXXXXXOOOOOOOOOOOOOOOO ",
" OOOOOOOOOOOOOOOXXXXXXXXXXXOOOOOOOOOOOOOOOOOXXXXXXXXXXXOOOOOOOOOOOOOOO ",
" OOOOOOOOOOOOOOXXXXXXXXXXXXXOOOOOOOOOOOOOOOXXXXXXXXXXXXXOOOOOOOOOOOOOO ",
" OOOOOXOOOOOOOOOXXXXXXXXXXXOOOOOOOOOOOOOOOOOXXXXXXXXXXXOOOOOOOOOOOOOOO ",
" OOOOXXXOOOOOOOOOXXXXXXXXXOOOOOOOOOOOOOOOOOOOXXXXXXXXXOOOOOOOOOOOOOOOO ",
" OOOXXXXXOOOOOOOOXXXXXXXXXOOOOOOOOOOOOOOOOOOOXXXXXXXXXOOOOOOOOOOOOOOOO ",
" OOXXXXXXXOOOOOOOOXXXXXXXOOOOOOOOOOOOOOOOOOOOOXXXXXXXOOOOOOOOOOOOOOOOO ",
" OOXXXXXXXOOOOOOOOOXXXXXOOOOOOOOOOOOOOOOOOOOOOOXXXXXOOOOOOOOOOOOOOOOOO ",
" OOXXXXXXXOOOOOOOOOOXXXOOOOOOOOOOOOOOOOOOOOOOOOOXXXOOOOOOOOOOOOOOOOOOO ",
" OOOXXXXXOOOOOOOOOOOOXOOOOOOOOOOOOOOOOOOOOOOOOOOOXOOOOOOOOOOOOOOOOOOOO ",
" OOOOXXXOOOOOOOOOOOOOOOOOOOOOOOOOOOOOOOOOOOOOOOOOOOOOOOOOOOOOOOOOOOOOO ",
" OOOOOXOOOOOOOOOOOOOOOOOOOOOOOOOOOOXOOOOOOOOOOOOOOOOOOOOOOOOOOOOOOOOOO ",
" OOOOOOOOOOOOOOOOOOOOOOOOOOOOOOOOOXXXOOOOOOOOOOOOOOOOOOOOOOOOOOOOOOOOO ",
" OOOOOOOOOOOOOOOOOOOOOOOOOOOOOOOOXXXXXOOOOOOOOOOOOOOOOOOOOOOOOOOOOOOOO ",
" OOOOOOOOOOOOOOOOOOOOOOOOOOOOOOOXXXXXXXOOOOOOOOOOOOOOOOOOOOOOOOOOOOOOO ",
" OOOOOOOOOOOOOOOOOOOOOOOOOOOOOOXXXXXXXXXOOOOOOOOOOOOOOOOOOOOOOOOOOOOOO ",
" OOOOOOOOOOOOOOOOOOOOOOOOOOOOOOXXXXXXXXXOOOOOOOOOOOOOOOOOOOOOOOOOOOOOO ",
" OOOOOOOOOOOOOOOOOOOOOOOOOOOOOXXXXXXXXXXXOOOOOOOOOOOOOOOOOOOOOOOOOOOOO ",
" OOOOOOOOOOOOOOOOOOOOOOOOOOOOXXXXXXXXXXXXXOOOOOOOOOOOOOOOOOOOOOOOOOOOO ",
" OOOOOOOOOOOOOOOOOOOOOOOOOOOOOXXXXXXXXXXXOOOOOOOOOOOOOOOOOOOOOOOOOOOOO ",
" OOOOOOOOOOOOOOOOOOOOOOOOOOOOOOXXXXXXXXXOOOOOOOOOOOOOOOOOOOOOOOOOOOOOO ",
" OOOOOOOOOOOOOOOOOOOOOOOOOOOOOOXXXXXXXXXOOOOOOOOOOOOOOOOOOOOOOOOOOOOOO ",
" OOOOOOOOOOOOOOOOOOOOOOOOOOOOOOOXXXXXXXOOOOOOOOOOOOOOOOOOOOOOOOOOOOOOO ",
" OOOOOOOOOOOOOOOOOOOOOOOOOOOOOOOOXXXXXOOOOOOOOOOOOOOOOOOOOOOOOOOOOOOOO ",
" OOOOOOOOOOOOOOOOOOOOOOOOOOOOOOOOOXXXOOOOOOOOOOOOOOOOOOOOOOOOOOOOOOOOO ",
" OOOOOOOOOOOOOOOOOOOOXOOOOOOOOOOOOOXOOOOOOOOOOOOOXOOOOOOOOOOOOOOOOOOOO ",
" OOOOOOOOOOOOOOOOOOOXXXOOOOOOOOOOOOOOOOOOOOOOOOOXXXOOOOOOOOOOOOOOOOOOO ",
" OOOOOOOOOOOOOOOOOOXXXXXOOOOOOOOOOOOOOOOOOOOOOOXXXXXOOOOOOOOOOOOOOOOOO ",
" OOOOOOOOOOOOOOOOOXXXXXXXOOOOOOOOOOOOOOOOOOOOOXXXXXXXOOOOOOOOOOOOOOOOO ",
" OOOOOOOOOOOOOOOOXXXXXXXXXOOOOOOOOOOOOOOOOOOOXXXXXXXXXOOOOOOOOOOOOOOOO ",
" OOOOOOOOOOOOOOOOXXXXXXXXXOOOOOOOOOOOOOOOOOOOXXXXXXXXXOOOOOOOOOOOOOOOO ",
" OOOOOOOOOOOOOOOXXXXXXXXXXXOOOOOOOOOOOOOOOOOXXXXXXXXXXXOOOOOOOOOOOOOOO ",
" OOOOOOOOOOOOOOXXXXXXXXXXXXXOOOOOOOOOOOOOOOOXXXXXXXXXXXXOOOOOOOOOOOOOO ",
" OOOOOOOOOOOOOOXXXXXXXXXXXXOOOOOOOOOOOOOOOOXXXXXXXXXXXXXOOOOOOOOOOOOOO ",
" OOOOOOOOOOOOOOOXXXXXXXXXXXOOOOOOOOOOOOOOOOOXXXXXXXXXXXOOOOOOOOOOOOOOO ",
" OOOOOOOOOOOOOOOOXXXXXXXXXOOOOOOOOOOOOOOOOOOOXXXXXXXXXOOOOOOOOOOOOOOOO ",
" OOOOOOOOOOOOOOOOXXXXXXXXXOOOOOOOOOOOOOOOOOOOXXXXXXXXXOOOOOOOOOOOOOOOO ",
" OOOOOOOOOOOOOOOOOXXXXXXXOOOOOOOOOOOOOOOOOOOOOXXXXXXXOOOOOOOOOOOOOOOOO ",
" OOOOOOOOOOOOOOOOOOXXXXXOOOOOOOOOOOOOOOOOOOOOOOXXXXXOOOOOOOOOOOOOOOOOO ",
" OOOOOOOOOOOOOOOOOOOXXXOOOOOOOOOOOOOOOOOOOOOOOOOXXXOOOOOOOOOOOOOOOOOOO ",
" OOOOOOOOOOOOOOOOOOOOXOOOOOOOOOOOOOXOOOOOOOOOOOOOXOOOOOOOOOOOOOOOOOOOO ",
" OOOOOOOOOOOOOOOOOOOOOOOOOOOOOOOOOXXXOOOOOOOOOOOOOOOOOOOOOOOOOOOOOOOOO ",
" OOOOOOOOOOOOOOOOOOOOOOOOOOOOOOOOXXXXXOOOOOOOOOOOOOOOOOOOOOOOOOOOOOOOO ",
" OOOOOOOOOOOOOOOOOOOOOOOOOOOOOOOXXXXXXXOOOOOOOOOOOOOOOOOOOOOOOOOOOOOOO ",
" OOOOOOOOOOOOOOOOOOOOOOOOOOOOOOXXXXXXXXXOOOOOOOOOOOOOOOOOOOOOOOOOOOOOO ",
" OOOOOOOOOOOOOOOOOOOOOOOOOOOOOOXXXXXXXXXOOOOOOOOOOOOOOOOOOOOOOOOOOOOOO ",
" OOOOOOOOOOOOOOOOOOOOOOOOOOOOOXXXXXXXXXXXOOOOOOOOOOOOOOOOOOOOOOOOOOOOO ",
" OOOOOOOOOOOOOOOOOOOOOOOOOOOOXXXXXXXXXXXXXOOOOOOOOOOOOOOOOOOOOOOOOOOOO ",
" OOOOOOOOOOOOOOOOOOOOOOOOOOOOOXXXXXXXXXXXOOOOOOOOOOOOOOOOOOOOOOOOOOOOO ",
" OOOOOOOOOOOOOOOOOOOOOOOOOOOOOOXXXXXXXXXOOOOOOOOOOOOOOOOOOOOOOOOOOOOOO ",
" OOOOOOOOOOOOOOOOOOOOOOOOOOOOOOXXXXXXXXXOOOOOOOOOOOOOOOOOOOOOOOOOOOOOO ",
" OOOOOOOOOOOOOOOOOOOOOOOOOOOOOOOXXXXXXXOOOOOOOOOOOOOOOOOOOOOOOOOOOOOOO ",
" OOOOOOOOOOOOOOOOOOOOOOOOOOOOOOOOXXXXXOOOOOOOOOOOOOOOOOOOOOOOOOOOOOOOO ",
" OOOOOOOOOOOOOOOOOOOOOOOOOOOOOOOOOXXXOOOOOOOOOOOOOOOOOOOOOOOOOOOOOOOOO ",
" OOOOOOOOOOOOOOOOOOOOOOOOOOOOOOOOOOXOOOOOOOOOOOOOOOOOOOOOOOOOOOOXOOOOO ",
" OOOOOOOOOOOOOOOOOOOOOOOOOOOOOOOOOOOOOOOOOOOOOOOOOOOOOOOOOOOOOOXXXOOOO ",
" OOOOOOOOOOOOOOOOOOOOXOOOOOOOOOOOOOOOOOOOOOOOOOOOXOOOOOOOOOOOOXXXXXOOO ",
" OOOOOOOOOOOOOOOOOOOXXXOOOOOOOOOOOOOOOOOOOOOOOOOXXXOOOOOOOOOOXXXXXXXOO ",
" OOOOOOOOOOOOOOOOOOXXXXXOOOOOOOOOOOOOOOOOOOOOOOXXXXXOOOOOOOOOXXXXXXXOO ",
" OOOOOOOOOOOOOOOOOXXXXXXXOOOOOOOOOOOOOOOOOOOOOXXXXXXXOOOOOOOOXXXXXXXOO ",
" OOOOOOOOOOOOOOOOXXXXXXXXXOOOOOOOOOOOOOOOOOOOXXXXXXXXXOOOOOOOOXXXXXOOO ",
" OOOOOOOOOOOOOOOOXXXXXXXXXOOOOOOOOOOOOOOOOOOOXXXXXXXXXOOOOOOOOOXXXOOOO ",
" OOOOOOOOOOOOOOOXXXXXXXXXXXOOOOOOOOOOOOOOOOOXXXXXXXXXXXOOOOOOOOOXOOOOO ",
" OOOOOOOOOOOOOOXXXXXXXXXXXXXOOOOOOOOOOOOOOOXXXXXXXXXXXXXOOOOOOOOOOOOOO ",
" OOOOOOOOOOOOOOOXXXXXXXXXXXOOOOOOOOOOOOOOOOOXXXXXXXXXXXOOOOOOOOOOOOOOO ",
" OOOOOOOOOOOOOOOOXXXXXXXXXOOOOOOOOOOOOOOOOOOOXXXXXXXXXOOOOOOOXXXXXOOOO ",
" OOOOOOOOOOOOOOOOXXXXXXXXXOOOOOOOOOOOOOOOOOOOXXXXXXXXXOOOOOOXXXXXXXOOO ",
" OOOOOOOOOOOOOOOOOXXXXXXXOOOOOOOOOOOOOOOOOOOOOXXXXXXXOOOOOOOXXOOOXXOOO ",
" OOOOOOOOOOOOOOOOOOXXXXXOOOOOOOOOOOOOOOOOOOOOOOXXXXXOOOOOOOOXXOOOXXOOO ",
" OOOOOOOOOOOOOOOOOOOXXXOOOOOOOOOOOOOOOOOOOOOOOOOXXXOOOOOOOOOXXOOOXXOOO ",
" OOOOOOOOOOOOOOOOOOOOXOOOOOOOOOOOOOOOOOOOOOOOOOOOXOOOOOOOOOOXXXXXXXOOO ",
" OOOOOOOOOOOOOOOOOOOOOOOOOOOOOOOOOOOOOOOOOOOOOOOOOOOOOOOOOOOOXXXXXOOOO ",
" OOOOOOOOOOOOOOOOOOOOOOOOOOOOOOOOOOOOOOOOOOOOOOOOOOOOOOOOOOOXXOOOXXOOO ",
" OOOOOOOOOOOOOOOOOOOOOOOOOOOOOOOOOOOOOOOOOOOOOOOOOOOOOOOOOOOXXOOOXXOOO ",
" OOOOOOOOOOOOOOOOOOOOOOOOOOOOOOOOOOOOOOOOOOOOOOOOOOOOOOOOOOOXXOOOXXOOO ",
" OOOOOOOOOOOOOOOOOOOOOOOOOOOOOOOOOOOOOOOOOOOOOOOOOOOOOOOOOOOXXXXXXXOOO ",
" OOOOOOOOOOOOOOOOOOOOOOOOOOOOOOOOOOOOOOOOOOOOOOOOOOOOOOOOOOOOXXXXXOOOO ",
" OOOOOOOOOOOOOOOOOOOOOOOOOOOOOOOOOOOOOOOOOOOOOOOOOOOOOOOOOOOOOOOOOOOOO ",
" OOOOOOOOOOOOOOOOOOOOOOOOOOOOOOOOOOOOOOOOOOOOOOOOOOOOOOOOOOOOOOOOOOOOO ",
" oOOOOOOOOOOOOOOOOOOOOOOOOOOOOOOOOOOOOOOOOOOOOOOOOOOOOOOOOOOOOOOOOOOOo ",
".                                                                     ."
};
