/* XPM */
static char * diamonds_xpm[] = {
"13 15 2 1",
" 	c None",
".	c #FF0000",
"      .      ",
"     ...     ",
"    .....    ",
"   .......   ",
"  .........  ",
"  .........  ",
" ........... ",
".............",
" ........... ",
"  .........  ",
"  .........  ",
"   .......   ",
"    .....    ",
"     ...     ",
"      .      "};
