/* XPM */
static char *dj[] = {
/* columns rows colors chars-per-pixel */
"71 96 7 1",
"  c black",
". c #008000",
"X c red",
"o c magenta",
"O c yellow",
"+ c #808080",
"@ c white",
/* pixels */
".                                                                     .",
" +@@@@@@@@@@@@@@@@@@@@@@@@@@@@@@@@@@@@@@@@@@@@@@@@@@@@@@@@@@@@@@@@@@@+ ",
" @@@@@@@@@@@@@@@@@@@@@@@@@@@@@@@@@@@@@@@@@@@@@@@@@@@@@@@@@@@@@@@@@@@@@ ",
" @@@@@@@@@@@@@@@@@@@@@@@@@@@@@@@@@@@@@@@@@@@@@@@@@@@@@@@@@@@@@@@@@@@@@ ",
" @@@@@XXXX@@@@@@@@@@@@@@@@@@@@@@@@@@@@@@@@@@@@@@@@@@@@@@@@@@@@@@@@@@@@ ",
" @@@@@XXXX@@@@@@@@@@@@@@@@@@@@@@@@@@@@@@@@@@@@@@@@@@@@@@@@@@@@@@@@@@@@ ",
" @@@@@@XX@@@@@@@@@@@@@@@@@@@@@@@@@@@@@@@@@@@@@@@@@@@@@@@@@@@@@@@@@@@@@ ",
" @@@@@@XX@@@@@@@@@@@@@@@@@@@@@@@@@@@@@@@@@@@@@@@@@@@@@@@@@@@@@@@@@@@@@ ",
" @@@@@@XX@@@@@@@@@@@@@@@@@@@@@@@@@@@@@@@@@@@@@@@@@@@@@@@@@@@@@@@@@@@@@ ",
" @@@@@@XX@@@@@@@@@@@@@@@@@@@@@@@@@@@@@@@@@@@@@@@@@@@@@@@@@@@@@@@@@@@@@ ",
" @@@@@@XX@@@@@@@@@@@@@@@@@@@@@@@@@@@@@@@@@@@@@@@@@@@@@@@@@@@@@@@@@@@@@ ",
" @@@@@@XX@@@                                               @@@@@@@@@@@ ",
" @@XX@@XX@@@ @@@@@@@@@ X@XXX@XX@XX@XX@XX@X  @@@@@@@@@@@@@@ @@@@@@@@@@@ ",
" @@XX@@XX@@@ @@@@@@@@@@ X@XX@XX@XX@XX@X@X  @@@@@@@X@@@@@@@ @@@@@@@@@@@ ",
" @@XXXXXX@@@ @@@@@@@@@@@ X@@@XX@@@@XX@@X  @@@@@@@XXX@@@@@@ @@@@@@@@@@@ ",
" @@@XXXX@@@@  @@@@@@@@@@@ XXXXXXXXXXXXXX @@@@@@@XXXXX@@@@@ @@@@@@@@@@@ ",
" @@@@@@@@@@@   @@@@@@@@@@                @@@@@@oXXXXXo@@@@ @@@@@@@@@@@ ",
" @@@@@@@@@@@  O @@@@@@@@@     O @@@@@@@@  @@@@oXXXXXXXo@@@ @@@@@@@@@@@ ",
" @@@@@X@@@@@  O @@@@@@@@@   O O @@@@@@@@  @@@@oXXXXXXXo@@@ @@@@@@@@@@@ ",
" @@@@XXX@@@@  O @@@@@@@@@ O O O @   @    O @@XXXXXXXXXXX@@ @@@@@@@@@@@ ",
" @@@oXXXo@@@  O @@@@ @@@@ O O O  @   @   O @XXXXXXXXXXXXX@ @@@@@@@@@@@ ",
" @@oXXXXXo@@  O @@@  @@@@ O O O @@@@ @@@ O @@XXXXXXXXXXX@@ @@@@@@@@@@@ ",
" @@XXXXXXX@@  O @  O @@@@ O O O @@@@ @@@ O @@@oXXXXXXXo@@@ @@@@@@@@@@@ ",
" @@oXXXXXo@@     OO @@@@@ O O O @@@@ @@@ O @@@oXXXXXXXo@@@ @@@@@@@@@@@ ",
" @@@oXXXo@@@ XOOO   @@@@@ O O O @@@   @@ O @@@@oXXXXXo@@@@ @@@@@@@@@@@ ",
" @@@@XXX@@@@  O    @@@@@@ O O O @@@@@@@@ O   @@@XXXXX@@@@@ @@@@@@@@@@@ ",
" @@@@@X@@@@@ XO  @@@@@@  OO O O @@@   @ @O OO @@@XXX@@@@@@ @@@@@@@@@@@ ",
" @@@@@@@@@@@  O @@@@@@ OO O O O  @@@@@@  OO O @@@@X@@@@@@@ @@@@@@@@@@@ ",
" @@@@@@@@@@@ XO @@@@@@ O  O  O X@ @@@@ @X OOO @@@@@@@@@@@  @@@@@@@@@@@ ",
" @@@@@@@@@@@  O @@@@@@ OOO OO XXXX    XXXX     @@@@@@@@@ X @@@@@@@@@@@ ",
" @@@@@@@@@@@ XO @@@@@@        XXXXXXXXXXX  @ O   @@@@@@ O  @@@@@@@@@@@ ",
" @@@@@@@@@@@  O @@@@  X   @     XXXXXXX      O @   @@@@ OX @@@@@@@@@@@ ",
" @@@@@@@@@@@ XO @@   O X    @             @  O   OO  @@ O  @@@@@@@@@@@ ",
" @@@@@@@@@@@  O       O X     @         @    O @ OO X   OX @@@@@@@@@@@ ",
" @@@@@@@@@@@ XO        O X      @ @ @ @   X  O    O XXX O  @@@@@@@@@@@ ",
" @@@@@@@@@@@  O   X     O X             X X  OO @ OO  X OX @@@@@@@@@@@ ",
" @@@@@@@@@@@    @  X     O X  X X X X X X X @ O    OOO  O  @@@@@@@@@@@ ",
" @@@@@@@@@@@ @@ @ O X     O X  XOXOXOXOXOXO @ OO @   OO OX @@@@@@@@@@@ ",
" @@@@@@@@@@@    @  O X     O X  X X X X X X @  OO  @    O  @@@@@@@@@@@ ",
" @@@@@@@@@@@ @@   O O X     O X   X X X X X @   OOO   @ OX @@@@@@@@@@@ ",
" @@@@@@@@@@@    XX O   O     O X  X X X X X @  @  OOO   O  @@@@@@@@@@@ ",
" @@@@@@@@@@@ @  @X O OO X     O X  XOXOXOXO @  @ @  OOO OX @@@@@@@@@@@ ",
" @@@@@@@@@@@  O XXX O   XO     O X  X X X X @  @  O     O  @@@@@@@@@@@ ",
" @@@@@@@@@@@  O @@X O O XOX     O X   X X X @  @    O X OX @@@@@@@@@@@ ",
" @@@@@@@@@@@ XO XXX O   XOXO  @  O X  X X X @  @ OO O @ O  @@@@@@@@@@@ ",
" @@@@@@@@@@@  O @@X O O XOX      XO X  XOXO    @   O XX OX @@@@@@@@@@@ ",
" @@@@@@@@@@@ XO XXX O   XO  @   OXXO X  X X     OO O X@ O  @@@@@@@@@@@ ",
" @@@@@@@@@@@  O @@X O O X      X OXXO X  X  @     O XXX OX @@@@@@@@@@@ ",
" @@@@@@@@@@@ XO XXX O     @     X OXXO X      X O O X@@ O  @@@@@@@@@@@ ",
" @@@@@@@@@@@  O @X O O      X X  X OXXO   @  OX   O XXX OX @@@@@@@@@@@ ",
" @@@@@@@@@@@ XO XX O   @    OXOX  X OX      XOX O O X@@ O  @@@@@@@@@@@ ",
" @@@@@@@@@@@  O @ O OO @  @ X X X  X O  @  OXOX   O XXX OX @@@@@@@@@@@ ",
" @@@@@@@@@@@ XO X O    @  @ X X X   X O     XOX O O X@@ O  @@@@@@@@@@@ ",
" @@@@@@@@@@@  O     O  @  @ X X X X  X O     OX   O XXX O  @@@@@@@@@@@ ",
" @@@@@@@@@@@ XO OOO  @ @  @ OXOXOXOX  X O     X OO O X@  @ @@@@@@@@@@@ ",
" @@@@@@@@@@@  O   OOO  @  @ X X X X X  X O     O   O XX    @@@@@@@@@@@ ",
" @@@@@@@@@@@ XO @   OOO   @ X X X X X   X O     X O O   @@ @@@@@@@@@@@ ",
" @@@@@@@@@@@  O    @  OO  @ X X X X X X  X O     X O  @    @@@@@@@@@@@ ",
" @@@@@@@@@@@ XO OO   @ OO @ OXOXOXOXOXOX  X O     X O @ @@ @@@@@@@@@@@ ",
" @@@@@@@@@@@  O  OOO    O @ X X X X X X X  X O     X  @    @@@@@@@@@@@ ",
" @@@@@@@@@@@ XO X  OO @ OO  X X             X O     X   O  @@@@@@@@@@@ ",
" @@@@@@@@@@@  O XXX O    O  X   @ @ @ @      X O        OX @@@@@@@@@@@ ",
" @@@@@@@@@@@ XO   X OO @ O    @         @     X O       O  @@@@@@@@@@@ ",
" @@@@@@@@@@@  O @@  OO   O  @             @    X O   @@ OX @@@@@@@@@@@ ",
" @@@@@@@@@@@ XO @@@@   @ O      XXXXXXX     @   X  @@@@ O  @@@@@@@@@@@ ",
" @@@@@@@@@@@  O @@@@@@   O @  XXXXXXXXXXX        @@@@@@ OX @@@@@@@@@@@ ",
" @@@@@@@@@@@ X @@@@@@@@@     XXXX    XXXX OO OOO @@@@@@ O  @@@@@@@@@@@ ",
" @@@@@@@@@@@  @@@@@@@@@@@ OOO X@ @@@@ @X O  O  O @@@@@@ OX @@@@@@@@@@@ ",
" @@@@@@@@@@@ @@@@@@@X@@@@ O OO  @@@@@@  O O O OO @@@@@@ O  @@@@@@@@@@@ ",
" @@@@@@@@@@@ @@@@@@XXX@@@ OO O@ @   @@@ O O OO  @@@@@@  OX @@@@@X@@@@@ ",
" @@@@@@@@@@@ @@@@@XXXXX@@@   O @@@@@@@@ O O O @@@@@@    O  @@@@XXX@@@@ ",
" @@@@@@@@@@@ @@@@oXXXXXo@@@@ O @@   @@@ O O O @@@@@   OOOX @@@oXXXo@@@ ",
" @@@@@@@@@@@ @@@oXXXXXXXo@@@ O @@@ @@@@ O O O @@@@@ OO     @@oXXXXXo@@ ",
" @@@@@@@@@@@ @@@oXXXXXXXo@@@ O @@@ @@@@ O O O @@@@ O  @ O  @@XXXXXXX@@ ",
" @@@@@@@@@@@ @@XXXXXXXXXXX@@ O @@@ @@@@ O O O @@@@  @@@ O  @@oXXXXXo@@ ",
" @@@@@@@@@@@ @XXXXXXXXXXXXX@ O   @   @  O O O @@@@ @@@@ O  @@@oXXXo@@@ ",
" @@@@@@@@@@@ @@XXXXXXXXXXX@@ O    @   @ O O O @@@@@@@@@ O  @@@@XXX@@@@ ",
" @@@@@@@@@@@ @@@oXXXXXXXo@@@@  @@@@@@@@ O O   @@@@@@@@@ O  @@@@@X@@@@@ ",
" @@@@@@@@@@@ @@@oXXXXXXXo@@@@  @@@@@@@@ O     @@@@@@@@@ O  @@@@@@@@@@@ ",
" @@@@@@@@@@@ @@@@oXXXXXo@@@@@@                @@@@@@@@@@   @@@@@@@@@@@ ",
" @@@@@@@@@@@ @@@@@XXXXX@@@@@@@ XXXXXXXXXXXXXX @@@@@@@@@@@  @@@@XXXX@@@ ",
" @@@@@@@@@@@ @@@@@@XXX@@@@@@@  X@@XX@@@@XX@@@X @@@@@@@@@@@ @@@XXXXXX@@ ",
" @@@@@@@@@@@ @@@@@@@X@@@@@@@  X@X@XX@XX@XX@XX@X @@@@@@@@@@ @@@XX@@XX@@ ",
" @@@@@@@@@@@ @@@@@@@@@@@@@@  X@XX@XX@XX@XX@XXX@X @@@@@@@@@ @@@XX@@XX@@ ",
" @@@@@@@@@@@                                               @@@XX@@@@@@ ",
" @@@@@@@@@@@@@@@@@@@@@@@@@@@@@@@@@@@@@@@@@@@@@@@@@@@@@@@@@@@@@XX@@@@@@ ",
" @@@@@@@@@@@@@@@@@@@@@@@@@@@@@@@@@@@@@@@@@@@@@@@@@@@@@@@@@@@@@XX@@@@@@ ",
" @@@@@@@@@@@@@@@@@@@@@@@@@@@@@@@@@@@@@@@@@@@@@@@@@@@@@@@@@@@@@XX@@@@@@ ",
" @@@@@@@@@@@@@@@@@@@@@@@@@@@@@@@@@@@@@@@@@@@@@@@@@@@@@@@@@@@@@XX@@@@@@ ",
" @@@@@@@@@@@@@@@@@@@@@@@@@@@@@@@@@@@@@@@@@@@@@@@@@@@@@@@@@@@@@XX@@@@@@ ",
" @@@@@@@@@@@@@@@@@@@@@@@@@@@@@@@@@@@@@@@@@@@@@@@@@@@@@@@@@@@@XXXX@@@@@ ",
" @@@@@@@@@@@@@@@@@@@@@@@@@@@@@@@@@@@@@@@@@@@@@@@@@@@@@@@@@@@@XXXX@@@@@ ",
" @@@@@@@@@@@@@@@@@@@@@@@@@@@@@@@@@@@@@@@@@@@@@@@@@@@@@@@@@@@@@@@@@@@@@ ",
" @@@@@@@@@@@@@@@@@@@@@@@@@@@@@@@@@@@@@@@@@@@@@@@@@@@@@@@@@@@@@@@@@@@@@ ",
" +@@@@@@@@@@@@@@@@@@@@@@@@@@@@@@@@@@@@@@@@@@@@@@@@@@@@@@@@@@@@@@@@@@@+ ",
".                                                                     ."
};
