/* XPM */
static char *dk[] = {
/* columns rows colors chars-per-pixel */
"71 96 8 1",
"  c black",
". c blue",
"X c #008000",
"o c red",
"O c magenta",
"+ c yellow",
"@ c #808080",
"# c white",
/* pixels */
"X                                                                     X",
" @###################################################################@ ",
" ##################################################################### ",
" ##################################################################### ",
" #oooo#oooo########################################################### ",
" #oooo#oooo########################################################### ",
" ##oo##oo############################################################# ",
" ##oo#oo############################################################## ",
" ##oooo############################################################### ",
" ##ooo################################################################ ",
" ##oooo############################################################### ",
" ##oo#oo####                                               ########### ",
" ##oo##oo### ############# ++++ +++ +++++++++++++ ######## ########### ",
" ##oo###oo## #######o###### ++   +   ++ ++++++++ ###   ##  ########### ",
" #oooo#oooo# ######ooo###### oooooooo+   ++ +++ ### + ## o ########### ",
" #oooo#oooo# #####ooooo#####         oooo+   +  ## ++ ## o ########### ",
" ########### ####OoooooO#####            ooooo ### ++ ## o ########### ",
" ########### ###OoooooooO#### ######  #        ## ++ #     ########### ",
" #####o##### ###OoooooooO#### #  ### # #       ## + ##o#o# ########### ",
" ####ooo#### ##ooooooooooo###   # ## # # # # # ##  ###o#o# ########### ",
" ###OoooO### #ooooooooooooo##.###### # # # # # ## + ## # # ########### ",
" ##OoooooO## ##ooooooooooo## ####### # # # # # ## ++ #     ########### ",
" ##ooooooo## ###OoooooooO## ######## # # # # # ### ++ ## o ########### ",
" ##OoooooO## ###OoooooooO##  .####### # # # # # ## ++ ## o ########### ",
" ###OoooO### ####OoooooO#####    # ## # # # # # ### + ## o ########### ",
" ####ooo#### #####ooooo###### ##   ### # # # # # ###   # o ########### ",
" #####o##### ######ooo########  ####### # # # # # ###### o ########### ",
" ########### #######o######## ######   ## # # # # ###### o ########### ",
" ########### ##   ###########  #### ### # # # # # ###### o ########### ",
" ########### # # #   #####  # ##### #  ## # # # # ###### o ########### ",
" ########### #  # # # ### #  ######  ### # # # # ####### o ########### ",
" ###########   # # # # ## ##########                #### o ########### ",
" ###########  # # #####  + #####        ++ ### ++ ##       ########### ",
" ########### # # ####     +           #  ++ #   ++ ## ++ # ########### ",
" ########### ## ##     oo  +   oo    #  # ++   # ++ #  ++  ########### ",
" ########### ###  o  + oo   + o oo                    # +# ########### ",
" ########### #  ooooo +  #  + oo o  ++++++++++++++         ########### ",
" ###########  ooooo  + +  oo   oo  # # # # # # ## +        ########### ",
" ########### oooo  ++++ + oo +   ############### + oo  ##  ########### ",
" ########### oo  ++++    +   + ###           ## + + oo  #  ########### ",
" ########### o ++++      + # + #  ++++++++++ # +  o+ oo    ########### ",
" ###########  +++     #  +   +  ++        + # + ++ o+ oo   ########### ",
" ########### +++    ###   +    +    oooo + ## +  ++ o+ oo  ########### ",
" ########### ++ oo   ###  +   +   oooooo + # +    +        ########### ",
" ########### + o oo   ##  +   +         + ## +     o+ o+ o ########### ",
" ###########  ++o oo   #   +  + ooooooo + # +    + o+ o+ o ########### ",
" ###########  o++o oo   #  +  +        + ## +  oo+ o       ########### ",
" ########### oo o++o           + ##### +           o++o oo ########### ",
" ########### ooo o   +oo  + ## + ##### +   +     oo o++o o ########### ",
" ###########       o +oo  + ## +       +   +  #   oo o++o  ########### ",
" ########### o +o +o +    + #  oooooooo +  +   #   oo o++  ########### ",
" ########### o +o +o     + ##           +   +  ##   oo o + ########### ",
" ###########        +    + # + oooooo   +   +  ###   oo ++ ########### ",
" ###########  oo +o ++  + ## + oooo    +    +   ###    +++ ########### ",
" ###########   oo +o ++ + # +        ++  +   +  #     +++  ########### ",
" ###########    oo +o  + # ++++++++++    +   +      ++++ o ########### ",
" ###########  #  oo + + ##           ### +   +    ++++  oo ########### ",
" ###########  ##  oo + ###############   + oo + ++++  oooo ########### ",
" ###########        + ## # # # # # #  oo   oo  + +  ooooo  ########### ",
" ###########         ++++++++++++++  o oo +  #  + ooooo  # ########### ",
" ########### #+ #                    oo o +   oo +  o  ### ########### ",
" ###########  ++  # ++ #   ++ #  #    oo   +  oo     #  ## ########### ",
" ########### # ++ ## ++   # ++  #           +     ####   # ########### ",
" ###########       ## ++ ### ++        ##### +  ##### # #  ########### ",
" ########### o ####                ########## ## # # # #   ########### ",
" ########### o ####### # # # # ###  ######  # ### # # #  # ########### ",
" ########### o ###### # # # # ##  # ##### #  #####   # # # ########### ",
" ########### o ###### # # # # # ### ####  ###########   ## ########### ",
" ########### o ###### # # # # ##   ###### ########o####### ########### ",
" ########### o ###### # # # # # #######  ########ooo###### #####o##### ",
" ########### o #   ### # # # # # ###   ## ######ooooo##### ####ooo#### ",
" ########### o ## + ### # # # # # ## #    #####OoooooO#### ###OoooO### ",
" ########### o ## ++ ## # # # # # #######.  ##OoooooooO### ##OoooooO## ",
" ########### o ## ++ ### # # # # # ######## ##OoooooooO### ##ooooooo## ",
" ###########     # ++ ## # # # # # ####### ##ooooooooooo## ##OoooooO## ",
" ########### # # ## + ## # # # # # ######.##ooooooooooooo# ###OoooO### ",
" ########### #o#o###  ## # # # # # ## #   ###ooooooooooo## ####ooo#### ",
" ########### #o#o## + ##       # # ###  # ####OoooooooO### #####o##### ",
" ###########     # ++ ##        #  ###### ####OoooooooO### ########### ",
" ########### o ## ++ ### ooooo            #####OoooooO#### ########### ",
" ########### o ## ++ ##  +   +oooo         #####ooooo##### #oooo#oooo# ",
" ########### o ## + ### +++ ++   +oooooooo ######ooo###### #oooo#oooo# ",
" ###########  ##   ### ++++++++ ++   +   ++ ######o####### ##oo###oo## ",
" ########### ######## +++++++++++++ +++ ++++ ############# ###oo##oo## ",
" ###########                                               ####oo#oo## ",
" ###############################################################oooo## ",
" ################################################################ooo## ",
" ###############################################################oooo## ",
" ##############################################################oo#oo## ",
" #############################################################oo##oo## ",
" ###########################################################oooo#oooo# ",
" ###########################################################oooo#oooo# ",
" ##################################################################### ",
" ##################################################################### ",
" @###################################################################@ ",
"X                                                                     X"
};
