/* XPM */
static char *dq[] = {
/* columns rows colors chars-per-pixel */
"71 96 7 1",
"  c black",
". c #008000",
"X c red",
"o c magenta",
"O c yellow",
"+ c #808080",
"@ c white",
/* pixels */
".                                                                     .",
" +@@@@@@@@@@@@@@@@@@@@@@@@@@@@@@@@@@@@@@@@@@@@@@@@@@@@@@@@@@@@@@@@@@@+ ",
" @@@@@@@@@@@@@@@@@@@@@@@@@@@@@@@@@@@@@@@@@@@@@@@@@@@@@@@@@@@@@@@@@@@@@ ",
" @@@@@@@@@@@@@@@@@@@@@@@@@@@@@@@@@@@@@@@@@@@@@@@@@@@@@@@@@@@@@@@@@@@@@ ",
" @@@XXXXX@@@@@@@@@@@@@@@@@@@@@@@@@@@@@@@@@@@@@@@@@@@@@@@@@@@@@@@@@@@@@ ",
" @@XXXXXXX@@@@@@@@@@@@@@@@@@@@@@@@@@@@@@@@@@@@@@@@@@@@@@@@@@@@@@@@@@@@ ",
" @@XX@@@XX@@@@@@@@@@@@@@@@@@@@@@@@@@@@@@@@@@@@@@@@@@@@@@@@@@@@@@@@@@@@ ",
" @@XX@@@XX@@@@@@@@@@@@@@@@@@@@@@@@@@@@@@@@@@@@@@@@@@@@@@@@@@@@@@@@@@@@ ",
" @@XX@@@XX@@@@@@@@@@@@@@@@@@@@@@@@@@@@@@@@@@@@@@@@@@@@@@@@@@@@@@@@@@@@ ",
" @@XX@@@XX@@@@@@@@@@@@@@@@@@@@@@@@@@@@@@@@@@@@@@@@@@@@@@@@@@@@@@@@@@@@ ",
" @@XX@@@XX@@@@@@@@@@@@@@@@@@@@@@@@@@@@@@@@@@@@@@@@@@@@@@@@@@@@@@@@@@@@ ",
" @@XX@@@XX@@                                               @@@@@@@@@@@ ",
" @@XX@@@XX@@ @ OOOOOOOOO XX @@ @ @  O @@@@@@@@@@@@@@@@@@@@ @@@@@@@@@@@ ",
" @@XX@@@XX@@ @@ OOOOO  O XX @ @ @ @ OO @@@@@@@@@@@X@@@@@@@ @@@@@@@@@@@ ",
" @@XXXXXXX@@ @@ OOOOOOOO XX @@@  @   O @@@@@@@@@@XXX@@@@@@ @@@@@@@@@@@ ",
" @@@XXXXX@@@ @@@ OOOO  O XX @@ @@ @   O @@@@@@@@XXXXX@@@@@ @@@@@@@@@@@ ",
" @@@@@@XXX@@ @@@ OOOOOO  X @  @@@@     O @@@@@@oXXXXXo@@@@ @@@@@@@@@@@ ",
" @@@@@@@XX@@ @@@ OOO  O XX  @@@@@@@ X  O @@@@@oXXXXXXXo@@@ @@@@@@@@@@@ ",
" @@@@@X@@@@@ @@@ OOOOO  X @@   @    X   O @@@@oXXXXXXXo@@@ @@@@@@@@@@@ ",
" @@@@XXX@@@@ @@@ OO  O XX @ @   @   XX  O @@@XXXXXXXXXXX@@ @@@@@@@@@@@ ",
" @@@oXXXo@@@ @@@ OOOO  X  @@@@@ @@@ XX   O @XXXXXXXXXXXXX@ @@@@@@@@@@@ ",
" @@oXXXXXo@@ @@ OO  O XX @ @@@@ @@@ XXX  O @@XXXXXXXXXXX@@ @@@@@@@@@@@ ",
" @@XXXXXXX@@ @@ OOOO  X @ @ @@@ @@@ XXX  O @@@oXXXXXXXo@@@ @@@@@@@@@@@ ",
" @@oXXXXXo@@ @ OO O  XX @  @@@   @@ XXX  O @@@oXXXXXXXo@@@ @@@@@@@@@@@ ",
" @@@oXXXo@@@ @@ OO  XX @@ @@@@@@@@@ XXXX  O @@@oXXXXXo@@@@ @@@@@@@@@@@ ",
" @@@@XXX@@@@ @@@   XX @@ X @@@   @ O XXX  O @@@@XXXXX@@@@@ @@@@@@@@@@@ ",
" @@@@@X@@@@@ @@@@ XX @@@  X @@@ @@ O  XX  O @@@@@XXX@@@@@@ @@@@@@@@@@@ ",
" @@@@@@@@@@@ @@@ XX @@@ OO   @@@@ OO @ X  O @@@@@@X@@@@@@@ @@@@@@@@@@@ ",
" @@@@@@@@@@@ @@ XX     @ OOO      OO @    O @@@@@@@@@@@@@@ @@@@@@@@@@@ ",
" @@@@@@@@@@@ @ XX  @    @    OOOO   @     O @@@@@@   @@@@@ @@@@@@@@@@@ ",
" @@@@@@@@@@@  XX  @ @    @@@@    @@@   @  O @@@@  OO  @@@@ @@@@@@@@@@@ ",
" @@@@@@@@@@@ XX @  @        @@@@@@   @   O  @@@@ O  OO @ @ @@@@@@@@@@@ ",
" @@@@@@@@@@@ X O @    @  @          @ @   O @@@ OOOOO @@   @@@@@@@@@@@ ",
" @@@@@@@@@@@    O @     @ @    @     @   @ O @@@   O @@ O  @@@@@@@@@@@ ",
" @@@@@@@@@@@   O O @    @ @ @ @ @ @     @ OO  @@@@@  @ OO  @@@@@@@@@@@ ",
" @@@@@@@@@@@  O   O @@   @    @ @      @ OO    @@@@@  O  @ @@@@@@@@@@@ ",
" @@@@@@@@@@@ O  X  O  @        @     @@ O O  @  @@@     @@ @@@@@@@@@@@ ",
" @@@@@@@@@@@   X  O OO   O         @@  O  O @    @ @@@   @ @@@@@@@@@@@ ",
" @@@@@@@@@@@  X  O X  OO    @@@@@@@  OO   O @     @@   @ @ @@@@@@@@@@@ ",
" @@@@@@@@@@@ X  O   X@  OOO        OO   X O @    O @@ @  @ @@@@@@@@@@@ ",
" @@@@@@@@@@@   O  X  X@    OOOOOOOO  O  X O  @  OO  @@ @ @ @@@@@@@@@@@ ",
" @@@@@@@@@@@  O  O X  X@X O        OOO  X@ O   OO    @ @ @ @@@@@@@@@@@ ",
" @@@@@@@@@@@ O   O  X @X@  O     OO  O  X@ OO OO @ @  @ @@ @@@@@@@@@@@ ",
" @@@@@@@@@@@ @ @  O X X@X@ O @X  OOOOO  X@X OOO        @@@ @@@@@@@@@@@ ",
" @@@@@@@@@@@      O X @X@  O @X  O   O  X  X O   @ @ @  @@ @@@@@@@@@@@ ",
" @@@@@@@@@@@ @ @ @ O  X@X@ O @X  OOOOO   XX O  O         @ @@@@@@@@@@@ ",
" @@@@@@@@@@@       O X@X@  O          XXXOX O X O  @ @ @   @@@@@@@@@@@ ",
" @@@@@@@@@@@ @ @ @  O X@X@ O XXXXXXXXXOOOX O  @X O         @@@@@@@@@@@ ",
" @@@@@@@@@@@         O X@  O XOOOXXXXXXXXX O @X@X O  @ @ @ @@@@@@@@@@@ ",
" @@@@@@@@@@@   @ @ @  O X O XOXXX          O  @X@X O       @@@@@@@@@@@ ",
" @@@@@@@@@@@ @         O  O XX   OOOOO  X@ O @X@X  O @ @ @ @@@@@@@@@@@ ",
" @@@@@@@@@@@ @@  @ @ @   O X  X  O   O  X@ O  @X@ X O      @@@@@@@@@@@ ",
" @@@@@@@@@@@ @@@        OOO X@X  OOOOO  X@ O @X@X X O  @ @ @@@@@@@@@@@ ",
" @@@@@@@@@@@ @@ @  @ @ OO OO @X  O  OO     O  @X@ X  O   O @@@@@@@@@@@ ",
" @@@@@@@@@@@ @ @ @    OO   O  X  OOO        O X@X  X O  O  @@@@@@@@@@@ ",
" @@@@@@@@@@@ @ @ @@  OO  @  O X  O  OOOOOOOO    @X  X  O   @@@@@@@@@@@ ",
" @@@@@@@@@@@ @  @ @@ O    @ O X   OO        OOO  @X   O  X @@@@@@@@@@@ ",
" @@@@@@@@@@@ @ @   @@     @ O   OO  @@@@@@@    OO  X O  X  @@@@@@@@@@@ ",
" @@@@@@@@@@@ @   @@@ @    @ O  O  @@         O   OO O  X   @@@@@@@@@@@ ",
" @@@@@@@@@@@ @@     @@@  @  O O @@     @        @  O  X  O @@@@@@@@@@@ ",
" @@@@@@@@@@@ @  O  @@@@@    OO @      @ @    @   @@ O   O  @@@@@@@@@@@ ",
" @@@@@@@@@@@  OO @  @@@@@  OO @     @ @ @ @ @ @    @ O O   @@@@@@@@@@@ ",
" @@@@@@@@@@@  O @@ O   @@@ O @   @     @    @ @     @ O    @@@@@@@@@@@ ",
" @@@@@@@@@@@   @@ OOOOO @@@ O   @ @          @  @    @ O X @@@@@@@@@@@ ",
" @@@@@@@@@@@ @ @ OO  O @@@@  O   @   @@@@@@        @  @ XX @@@@@@@@@@@ ",
" @@@@@@@@@@@ @@@@  OO  @@@@ O  @   @@@    @@@@    @ @  XX  @@@@@@@@@@@ ",
" @@@@@@@@@@@ @@@@@   @@@@@@ O     @   OOOO    @    @  XX @ @@@@@@@@@@@ ",
" @@@@@@@@@@@ @@@@@@@@@@@@@@ O    @ OO      OOO @     XX @@ @@@@@@@@@@@ ",
" @@@@@@@@@@@ @@@@@@@X@@@@@@ O  X @ OO @@@@   OO @@@ XX @@@ @@@@@@@@@@@ ",
" @@@@@@@@@@@ @@@@@@XXX@@@@@ O  XX  O @@ @@@ X  @@@ XX @@@@ @@@@@X@@@@@ ",
" @@@@@@@@@@@ @@@@@XXXXX@@@@ O  XXX O @   @@@ X @@ XX   @@@ @@@@XXX@@@@ ",
" @@@@@@@@@@@ @@@@oXXXXXo@@@ O  XXXX @@@@@@@@@ @@ XX  OO @@ @@@oXXXo@@@ ",
" @@@@@@@@@@@ @@@oXXXXXXXo@@@ O  XXX @@   @@@  @ XX  O OO @ @@oXXXXXo@@ ",
" @@@@@@@@@@@ @@@oXXXXXXXo@@@ O  XXX @@@ @@@ @ @ X  OOOO @@ @@XXXXXXX@@ ",
" @@@@@@@@@@@ @@XXXXXXXXXXX@@ O  XXX @@@ @@@@ @ XX O  OO @@ @@oXXXXXo@@ ",
" @@@@@@@@@@@ @XXXXXXXXXXXXX@ O   XX @@@ @@@@@  X  OOOO @@@ @@@oXXXo@@@ ",
" @@@@@@@@@@@ @@XXXXXXXXXXX@@@ O  XX   @   @ @ XX O  OO @@@ @@@@XXX@@@@ ",
" @@@@@@@@@@@ @@@oXXXXXXXo@@@@ O   X    @   @@ X  OOOOO @@@ @@@@@X@@@@@ ",
" @@@@@@@@@@@ @@@oXXXXXXXo@@@@@ O  X @@@@@@@  XX O  OOO @@@ @@XX@@@@@@@ ",
" @@@@@@@@@@@ @@@@oXXXXXo@@@@@@ O     @@@@  @ X  OOOOOO @@@ @@XXX@@@@@@ ",
" @@@@@@@@@@@ @@@@@XXXXX@@@@@@@@ O   @ @@ @@ XX O  OOOO @@@ @@@XXXXX@@@ ",
" @@@@@@@@@@@ @@@@@@XXX@@@@@@@@@@ O   @  @@@ XX OOOOOOOO @@ @@XXXXXXX@@ ",
" @@@@@@@@@@@ @@@@@@@X@@@@@@@@@@@ OO @ @ @ @ XX O  OOOOO @@ @@XX@@@XX@@ ",
" @@@@@@@@@@@ @@@@@@@@@@@@@@@@@@@@ O  @ @ @@ XX OOOOOOOOO @ @@XX@@@XX@@ ",
" @@@@@@@@@@@                                               @@XX@@@XX@@ ",
" @@@@@@@@@@@@@@@@@@@@@@@@@@@@@@@@@@@@@@@@@@@@@@@@@@@@@@@@@@@@XX@@@XX@@ ",
" @@@@@@@@@@@@@@@@@@@@@@@@@@@@@@@@@@@@@@@@@@@@@@@@@@@@@@@@@@@@XX@@@XX@@ ",
" @@@@@@@@@@@@@@@@@@@@@@@@@@@@@@@@@@@@@@@@@@@@@@@@@@@@@@@@@@@@XX@@@XX@@ ",
" @@@@@@@@@@@@@@@@@@@@@@@@@@@@@@@@@@@@@@@@@@@@@@@@@@@@@@@@@@@@XX@@@XX@@ ",
" @@@@@@@@@@@@@@@@@@@@@@@@@@@@@@@@@@@@@@@@@@@@@@@@@@@@@@@@@@@@XX@@@XX@@ ",
" @@@@@@@@@@@@@@@@@@@@@@@@@@@@@@@@@@@@@@@@@@@@@@@@@@@@@@@@@@@@XXXXXXX@@ ",
" @@@@@@@@@@@@@@@@@@@@@@@@@@@@@@@@@@@@@@@@@@@@@@@@@@@@@@@@@@@@@XXXXX@@@ ",
" @@@@@@@@@@@@@@@@@@@@@@@@@@@@@@@@@@@@@@@@@@@@@@@@@@@@@@@@@@@@@@@@@@@@@ ",
" @@@@@@@@@@@@@@@@@@@@@@@@@@@@@@@@@@@@@@@@@@@@@@@@@@@@@@@@@@@@@@@@@@@@@ ",
" +@@@@@@@@@@@@@@@@@@@@@@@@@@@@@@@@@@@@@@@@@@@@@@@@@@@@@@@@@@@@@@@@@@@+ ",
".                                                                     ."
};
