/* XPM */
static char *ec[] = {
/* columns rows colors chars-per-pixel */
"71 96 4 1",
"  c black",
". c #008000",
"X c #808080",
"o c white",
/* pixels */
".                                                                     .",
" XoooooooooooooooooooooooooooooooooooooooooooooooooooooooooooooooooooX ",
" ooooooooooooooooooooooooooooooooooooooooooooooooooooooooooooooooooooo ",
" ooooooooooooooooooooooooooooooooooooooooooooooooooooooooooooooooooooo ",
" oo        ooooooooooooooooooooooooooooooooooooooooooooooooooooooooooo ",
" oo        ooooooooooooooooooooooooooooooooooooooooooooooooooooooooooo ",
" ooo  ooo  ooooooooooooooooooooooooooooooooooooooooooooooooooooooooooo ",
" ooo  oooooooooooooooooooooooooooooooooooooooooooooooooooooooooooooooo ",
" ooo  oo ooooooooooooooooooooooooooooooooooooooooooooooooooooooooooooo ",
" ooo     ooooooooooooooooooooooooooooooooooooooooooooooooooooooooooooo ",
" ooo     ooooooooooooooooooooooooooooooooooooooooooooooooooooooooooooo ",
" ooo  oo ooooooooooooooooooooooooooooooooooooooooooooooooooooooooooooo ",
" ooo  oooooooooooooooooooooooooooooooooooooooooooooooooooooooooooooooo ",
" ooo  ooo  ooooooooooooooooooooooooooooooooooooooooooooooooooooooooooo ",
" oo        ooooooooooooooooooooooooooooooooooooooooooooooooooooooooooo ",
" oo        ooooooooooooooooooooooooooooooooooooooooooooooooooooooooooo ",
" ooooooooooooooooooooooooooooooooooooooooooooooooooooooooooooooooooooo ",
" ooooooooooooooooooooooooooooooooooooooooooooooooooooooooooooooooooooo ",
" ooo     ooooooooooooooooooooooooooooooooooooooooooooooooooooooooooooo ",
" oo  oo   ooooooooooooooooooooo          ooooooooooooooooooooooooooooo ",
" oo  ooo  oooooooooooooooooo                oooooooooooooooooooooooooo ",
" oo  ooo  oooooooooooooooo                    oooooooooooooooooooooooo ",
" ooooooo  oooooooooooooo      oooooooo         ooooooooooooooooooooooo ",
" oooooo  oooooooooooooo     oooooooooooo        oooooooooooooooooooooo ",
" oooooo ooooooooooooooo    oooooooooooooo        ooooooooooooooooooooo ",
" ooooo ooooooooooooooo    oooooooooooooooo        oooooooooooooooooooo ",
" oooo ooooooooooooooo     ooooooooooooooooo       oooooooooooooooooooo ",
" oooo ooooooooooooooo    ooooooooooooooooooo       ooooooooooooooooooo ",
" ooooooooooooooooooo      oooooooooooooooooo       ooooooooooooooooooo ",
" oooo  ooooooooooooo      oooooooooooooooooo        oooooooooooooooooo ",
" oooo  ooooooooooooo      ooooooooooooooooooo       oooooooooooooooooo ",
" ooooooooooooooooooo       oooooooooooooooooo       oooooooooooooooooo ",
" ooooooooooooooooooo       oooooooooooooooooo       oooooooooooooooooo ",
" ooooooooooooooooooo        ooooooooooooooooo       oooooooooooooooooo ",
" ooooooooooooooooooo        ooooooooooooooooo       oooooooooooooooooo ",
" oooooooooooooooooooo       ooooooooooooooooo       oooooooooooooooooo ",
" ooooooooooooooooooooo     oooooooooooooooooo      ooooooooooooooooooo ",
" oooooooooooooooooooooo   oooooooooooooooooo       ooooooooooooooooooo ",
" ooooooooooooooooooooooooooooooooooooooooooo       ooooooooooooooooooo ",
" ooooooooooooooooooooooooooooooooooooooooooo      oooooooooooooooooooo ",
" oooooooooooooooooooooooooooooooooooooooooo       oooooooooooooooooooo ",
" oooooooooooooooooooooooooooooooooooooooooo      ooooooooooooooooooooo ",
" ooooooooooooooooooooooooooooooooooooooooo      oooooooooooooooooooooo ",
" ooooooooooooooooooooooooooooooooooooooooo      oooooooooooooooooooooo ",
" oooooooooooooooooooooooooooooooooooooooo      ooooooooooooooooooooooo ",
" oooooooooooooooooooooooooooooooooooooooo     oooooooooooooooooooooooo ",
" ooooooooooooooooooooooooooooooooooooooo     ooooooooooooooooooooooooo ",
" oooooooooooooooooooooooooooooooooooooo     oooooooooooooooooooooooooo ",
" oooooooooooooooooooooooooooooooooooooo    ooooooooooooooooooooooooooo ",
" ooooooooooooooooooooooooooooooooooooo    oooooooooooooooooooooooooooo ",
" oooooooooooooooooooooooooooooooooooo     oooooooooooooooooooooooooooo ",
" oooooooooooooooooooooooooooooooooooo    ooooooooooooooooooooooooooooo ",
" ooooooooooooooooooooooooooooooooooo    oooooooooooooooooooooooooooooo ",
" ooooooooooooooooooooooooooooooooooo   ooooooooooooooooooooooooooooooo ",
" oooooooooooooooooooooooooooooooooo   oooooooooooooooooooooooooooooooo ",
" oooooooooooooooooooooooooooooooooo   oooooooooooooooooooooooooooooooo ",
" oooooooooooooooooooooooooooooooooo  ooooooooooooooooooooooooooooooooo ",
" oooooooooooooooooooooooooooooooooo  ooooooooooooooooooooooooooooooooo ",
" ooooooooooooooooooooooooooooooooo   ooooooooooooooooooooooooooooooooo ",
" ooooooooooooooooooooooooooooooooo   ooooooooooooooooooooooooooooooooo ",
" ooooooooooooooooooooooooooooooooo  oooooooooooooooooooooooooooooooooo ",
" ooooooooooooooooooooooooooooooooo  oooooooooooooooooooooooooooooooooo ",
" ooooooooooooooooooooooooooooooooo  oooooooooooooooooooooooooooooooooo ",
" ooooooooooooooooooooooooooooooooo  oooooooooooooooooooooooooooooooooo ",
" ooooooooooooooooooooooooooooooooooooooooooooooooooooooooooooooooooooo ",
" oooooooooooooooooooooooooooooooooooooooooooooooooooooooooooooo  ooooo ",
" oooooooooooooooooooooooooooooooooooooooooooooooooooooooooooooo  ooooo ",
" ooooooooooooooooooooooooooooooooooooooooooooooooooooooooooooooooooooo ",
" ooooooooooooooooooooooooooooooooooooooooooooooooooooooooooooooo ooooo ",
" oooooooooooooooooooooooooooooooo    ooooooooooooooooooooooooooo ooooo ",
" oooooooooooooooooooooooooooooo        oooooooooooooooooooooooo oooooo ",
" oooooooooooooooooooooooooooooo        ooooooooooooooooooooooo ooooooo ",
" ooooooooooooooooooooooooooooo          ooooooooooooooooooooo  ooooooo ",
" ooooooooooooooooooooooooooooo          oooooooooooooooooooo  oooooooo ",
" ooooooooooooooooooooooooooooo          oooooooooooooooooooo  ooo  ooo ",
" ooooooooooooooooooooooooooooo          oooooooooooooooooooo  ooo  ooo ",
" oooooooooooooooooooooooooooooo        ooooooooooooooooooooo   oo  ooo ",
" oooooooooooooooooooooooooooooo        oooooooooooooooooooooo     oooo ",
" oooooooooooooooooooooooooooooooo    ooooooooooooooooooooooooooooooooo ",
" ooooooooooooooooooooooooooooooooooooooooooooooooooooooooooooooooooooo ",
" oooooooooooooooooooooooooooooooooooooooooooooooooooooooooo        ooo ",
" oooooooooooooooooooooooooooooooooooooooooooooooooooooooooo        ooo ",
" oooooooooooooooooooooooooooooooooooooooooooooooooooooooooo  ooo  oooo ",
" ooooooooooooooooooooooooooooooooooooooooooooooooooooooooooooooo  oooo ",
" oooooooooooooooooooooooooooooooooooooooooooooooooooooooooooo oo  oooo ",
" oooooooooooooooooooooooooooooooooooooooooooooooooooooooooooo     oooo ",
" oooooooooooooooooooooooooooooooooooooooooooooooooooooooooooo     oooo ",
" oooooooooooooooooooooooooooooooooooooooooooooooooooooooooooo oo  oooo ",
" ooooooooooooooooooooooooooooooooooooooooooooooooooooooooooooooo  oooo ",
" oooooooooooooooooooooooooooooooooooooooooooooooooooooooooo  ooo  oooo ",
" oooooooooooooooooooooooooooooooooooooooooooooooooooooooooo        ooo ",
" oooooooooooooooooooooooooooooooooooooooooooooooooooooooooo        ooo ",
" ooooooooooooooooooooooooooooooooooooooooooooooooooooooooooooooooooooo ",
" ooooooooooooooooooooooooooooooooooooooooooooooooooooooooooooooooooooo ",
" XoooooooooooooooooooooooooooooooooooooooooooooooooooooooooooooooooooX ",
".                                                                     ."
};
