/* XPM */
static char *h10[] = {
/* columns rows colors chars-per-pixel */
"71 96 5 1",
"  c black",
". c #008000",
"X c red",
"o c #808080",
"O c white",
/* pixels */
".                                                                     .",
" oOOOOOOOOOOOOOOOOOOOOOOOOOOOOOOOOOOOOOOOOOOOOOOOOOOOOOOOOOOOOOOOOOOOo ",
" OOOOOOOOOOOOOOOOOOOOOOOOOOOOOOOOOOOOOOOOOOOOOOOOOOOOOOOOOOOOOOOOOOOOO ",
" OOOOOOOOOOOOOOOOOOOOOOOOOOOOOOOOOOOOOOOOOOOOOOOOOOOOOOOOOOOOOOOOOOOOO ",
" OOXXOOXXXXOOOOOOOOOOOOOOOOOOOOOOOOOOOOOOOOOOOOOOOOOOOOOOOOOOOOOOOOOOO ",
" OOXXOXXXXXXOOOOOOOOOOOOOOOOOOOOOOOOOOOOOOOOOOOOOOOOOOOOOOOOOOOOOOOOOO ",
" OOXXOXXOOXXOOOOOOOOOOOOOOOOOOOOOOOOOOOOOOOOOOOOOOOOOOOOOOOOOOOOOOOOOO ",
" OOXXOXXOOXXOOOOOOOOOOOOOOOOOOOOOOOOOOOOOOOOOOOOOOOOOOOOOOOOOOOOOOOOOO ",
" OOXXOXXOOXXOOOOOOOOOOOOOOOOOOOOOOOOOOOOOOOOOOOOOOOOOOOOOOOOOOOOOOOOOO ",
" OOXXOXXOOXXOOOOOOOOOOOOOOOOOOOOOOOOOOOOOOOOOOOOOOOOOOOOOOOOOOOOOOOOOO ",
" OOXXOXXOOXXOOOOOXXXXOOOXXXXOOOOOOOOOOOOOOOXXXXOOOXXXXOOOOOOOOOOOOOOOO ",
" OOXXOXXOOXXOOOOXXXXXXOXXXXXXOOOOOOOOOOOOOXXXXXXOXXXXXXOOOOOOOOOOOOOOO ",
" OOXXOXXOOXXOOOXXXXXXXOXXXXXXXOOOOOOOOOOOXXXXXXXOXXXXXXXOOOOOOOOOOOOOO ",
" OOXXOXXOOXXOOOXXXXXXXXXXXXXXXOOOOOOOOOOOXXXXXXXXXXXXXXXOOOOOOOOOOOOOO ",
" OOXXOXXXXXXOOOXXXXXXXXXXXXXXXOOOOOOOOOOOXXXXXXXXXXXXXXXOOOOOOOOOOOOOO ",
" OOXXOOXXXXOOOOXXXXXXXXXXXXXXXOOOOOOOOOOOXXXXXXXXXXXXXXXOOOOOOOOOOOOOO ",
" OOOOOOOOOOOOOOXXXXXXXXXXXXXXXOOOOOOOOOOOXXXXXXXXXXXXXXXOOOOOOOOOOOOOO ",
" OOOOOOOOOOOOOOOXXXXXXXXXXXXXOOOOOOOOOOOOOXXXXXXXXXXXXXOOOOOOOOOOOOOOO ",
" OOOOOOOOOOOOOOOXXXXXXXXXXXXXOOOOOOOOOOOOOXXXXXXXXXXXXXOOOOOOOOOOOOOOO ",
" OOOXXXOXXXOOOOOOXXXXXXXXXXXOOOOOOOOOOOOOOOXXXXXXXXXXXOOOOOOOOOOOOOOOO ",
" OOXXXXOXXXXOOOOOOXXXXXXXXXOOOXXXXOOOXXXXOOOXXXXXXXXXOOOOOOOOOOOOOOOOO ",
" OOXXXXXXXXXOOOOOOOXXXXXXXOOOXXXXXXOXXXXXXOOOXXXXXXXOOOOOOOOOOOOOOOOOO ",
" OOXXXXXXXXXOOOOOOOOXXXXXOOOXXXXXXXOXXXXXXXOOOXXXXXOOOOOOOOOOOOOOOOOOO ",
" OOXXXXXXXXXOOOOOOOOOXXXOOOOXXXXXXXXXXXXXXXOOOOXXXOOOOOOOOOOOOOOOOOOOO ",
" OOOXXXXXXXOOOOOOOOOOOXOOOOOXXXXXXXXXXXXXXXOOOOOXOOOOOOOOOOOOOOOOOOOOO ",
" OOOOXXXXXOOOOOOOOOOOOOOOOOOXXXXXXXXXXXXXXXOOOOOOOOOOOOOOOOOOOOOOOOOOO ",
" OOOOOXXXOOOOOOOOOOOOOOOOOOOXXXXXXXXXXXXXXXOOOOOOOOOOOOOOOOOOOOOOOOOOO ",
" OOOOOOXOOOOOOOOOOOOOOOOOOOOOXXXXXXXXXXXXXOOOOOOOOOOOOOOOOOOOOOOOOOOOO ",
" OOOOOOOOOOOOOOOOOOOOOOOOOOOOXXXXXXXXXXXXXOOOOOOOOOOOOOOOOOOOOOOOOOOOO ",
" OOOOOOOOOOOOOOOOOOOOOOOOOOOOOXXXXXXXXXXXOOOOOOOOOOOOOOOOOOOOOOOOOOOOO ",
" OOOOOOOOOOOOOOOOOOOOOOOOOOOOOOXXXXXXXXXOOOOOOOOOOOOOOOOOOOOOOOOOOOOOO ",
" OOOOOOOOOOOOOOOOXXXXOOOXXXXOOOOXXXXXXXOOOOXXXXOOOXXXXOOOOOOOOOOOOOOOO ",
" OOOOOOOOOOOOOOOXXXXXXOXXXXXXOOOOXXXXXOOOOXXXXXXOXXXXXXOOOOOOOOOOOOOOO ",
" OOOOOOOOOOOOOOXXXXXXXOXXXXXXXOOOOXXXOOOOXXXXXXXOXXXXXXXOOOOOOOOOOOOOO ",
" OOOOOOOOOOOOOOXXXXXXXXXXXXXXXOOOOOXOOOOOXXXXXXXXXXXXXXXOOOOOOOOOOOOOO ",
" OOOOOOOOOOOOOOXXXXXXXXXXXXXXXOOOOOOOOOOOXXXXXXXXXXXXXXXOOOOOOOOOOOOOO ",
" OOOOOOOOOOOOOOXXXXXXXXXXXXXXXOOOOOOOOOOOXXXXXXXXXXXXXXXOOOOOOOOOOOOOO ",
" OOOOOOOOOOOOOOXXXXXXXXXXXXXXXOOOOOOOOOOOXXXXXXXXXXXXXXXOOOOOOOOOOOOOO ",
" OOOOOOOOOOOOOOOXXXXXXXXXXXXXOOOOOOOOOOOOOXXXXXXXXXXXXXOOOOOOOOOOOOOOO ",
" OOOOOOOOOOOOOOOXXXXXXXXXXXXXOOOOOOOOOOOOOXXXXXXXXXXXXXOOOOOOOOOOOOOOO ",
" OOOOOOOOOOOOOOOOXXXXXXXXXXXOOOOOOOOOOOOOOOXXXXXXXXXXXOOOOOOOOOOOOOOOO ",
" OOOOOOOOOOOOOOOOOXXXXXXXXXOOOOOOOOOOOOOOOOOXXXXXXXXXOOOOOOOOOOOOOOOOO ",
" OOOOOOOOOOOOOOOOOOXXXXXXXOOOOOOOOOOOOOOOOOOOXXXXXXXOOOOOOOOOOOOOOOOOO ",
" OOOOOOOOOOOOOOOOOOOXXXXXOOOOOOOOOOOOOOOOOOOOOXXXXXOOOOOOOOOOOOOOOOOOO ",
" OOOOOOOOOOOOOOOOOOOOXXXOOOOOOOOOOOOOOOOOOOOOOOXXXOOOOOOOOOOOOOOOOOOOO ",
" OOOOOOOOOOOOOOOOOOOOOXOOOOOOOOOOOOOOOOOOOOOOOOOXOOOOOOOOOOOOOOOOOOOOO ",
" OOOOOOOOOOOOOOOOOOOOOOOOOOOOOOOOOOOOOOOOOOOOOOOOOOOOOOOOOOOOOOOOOOOOO ",
" OOOOOOOOOOOOOOOOOOOOOOOOOOOOOOOOOOOOOOOOOOOOOOOOOOOOOOOOOOOOOOOOOOOOO ",
" OOOOOOOOOOOOOOOOOOOOOOOOOOOOOOOOOOOOOOOOOOOOOOOOOOOOOOOOOOOOOOOOOOOOO ",
" OOOOOOOOOOOOOOOOOOOOOOOOOOOOOOOOOOOOOOOOOOOOOOOOOOOOOOOOOOOOOOOOOOOOO ",
" OOOOOOOOOOOOOOOOOOOOOXOOOOOOOOOOOOOOOOOOOOOOOOOXOOOOOOOOOOOOOOOOOOOOO ",
" OOOOOOOOOOOOOOOOOOOOXXXOOOOOOOOOOOOOOOOOOOOOOOXXXOOOOOOOOOOOOOOOOOOOO ",
" OOOOOOOOOOOOOOOOOOOXXXXXOOOOOOOOOOOOOOOOOOOOOXXXXXOOOOOOOOOOOOOOOOOOO ",
" OOOOOOOOOOOOOOOOOOXXXXXXXOOOOOOOOOOOOOOOOOOOXXXXXXXOOOOOOOOOOOOOOOOOO ",
" OOOOOOOOOOOOOOOOOXXXXXXXXXOOOOOOOOOOOOOOOOOXXXXXXXXXOOOOOOOOOOOOOOOOO ",
" OOOOOOOOOOOOOOOOXXXXXXXXXXXOOOOOOOOOOOOOOOXXXXXXXXXXXOOOOOOOOOOOOOOOO ",
" OOOOOOOOOOOOOOOXXXXXXXXXXXXXOOOOOOOOOOOOOXXXXXXXXXXXXXOOOOOOOOOOOOOOO ",
" OOOOOOOOOOOOOOOXXXXXXXXXXXXXOOOOOOOOOOOOOXXXXXXXXXXXXXOOOOOOOOOOOOOOO ",
" OOOOOOOOOOOOOOXXXXXXXXXXXXXXXOOOOOOOOOOOXXXXXXXXXXXXXXXOOOOOOOOOOOOOO ",
" OOOOOOOOOOOOOOXXXXXXXXXXXXXXXOOOOOOOOOOOXXXXXXXXXXXXXXXOOOOOOOOOOOOOO ",
" OOOOOOOOOOOOOOXXXXXXXXXXXXXXXOOOOOOOOOOOXXXXXXXXXXXXXXXOOOOOOOOOOOOOO ",
" OOOOOOOOOOOOOOXXXXXXXXXXXXXXXOOOOOXOOOOOXXXXXXXXXXXXXXXOOOOOOOOOOOOOO ",
" OOOOOOOOOOOOOOXXXXXXXOXXXXXXXOOOOXXXOOOOXXXXXXXOXXXXXXXOOOOOOOOOOOOOO ",
" OOOOOOOOOOOOOOOXXXXXXOXXXXXXOOOOXXXXXOOOOXXXXXXOXXXXXXOOOOOOOOOOOOOOO ",
" OOOOOOOOOOOOOOOOXXXXOOOXXXXOOOOXXXXXXXOOOOXXXXOOOXXXXOOOOOOOOOOOOOOOO ",
" OOOOOOOOOOOOOOOOOOOOOOOOOOOOOOXXXXXXXXXOOOOOOOOOOOOOOOOOOOOOOOOOOOOOO ",
" OOOOOOOOOOOOOOOOOOOOOOOOOOOOOXXXXXXXXXXXOOOOOOOOOOOOOOOOOOOOOOOOOOOOO ",
" OOOOOOOOOOOOOOOOOOOOOOOOOOOOXXXXXXXXXXXXXOOOOOOOOOOOOOOOOOOOOOOOOOOOO ",
" OOOOOOOOOOOOOOOOOOOOOOOOOOOOXXXXXXXXXXXXXOOOOOOOOOOOOOOOOOOOOOXOOOOOO ",
" OOOOOOOOOOOOOOOOOOOOOOOOOOOXXXXXXXXXXXXXXXOOOOOOOOOOOOOOOOOOOXXXOOOOO ",
" OOOOOOOOOOOOOOOOOOOOOOOOOOOXXXXXXXXXXXXXXXOOOOOOOOOOOOOOOOOOXXXXXOOOO ",
" OOOOOOOOOOOOOOOOOOOOOXOOOOOXXXXXXXXXXXXXXXOOOOOXOOOOOOOOOOOXXXXXXXOOO ",
" OOOOOOOOOOOOOOOOOOOOXXXOOOOXXXXXXXXXXXXXXXOOOOXXXOOOOOOOOOXXXXXXXXXOO ",
" OOOOOOOOOOOOOOOOOOOXXXXXOOOXXXXXXXOXXXXXXXOOOXXXXXOOOOOOOOXXXXXXXXXOO ",
" OOOOOOOOOOOOOOOOOOXXXXXXXOOOXXXXXXOXXXXXXOOOXXXXXXXOOOOOOOXXXXXXXXXOO ",
" OOOOOOOOOOOOOOOOOXXXXXXXXXOOOXXXXOOOXXXXOOOXXXXXXXXXOOOOOOXXXXOXXXXOO ",
" OOOOOOOOOOOOOOOOXXXXXXXXXXXOOOOOOOOOOOOOOOXXXXXXXXXXXOOOOOOXXXOXXXOOO ",
" OOOOOOOOOOOOOOOXXXXXXXXXXXXXOOOOOOOOOOOOOXXXXXXXXXXXXXOOOOOOOOOOOOOOO ",
" OOOOOOOOOOOOOOOXXXXXXXXXXXXXOOOOOOOOOOOOOXXXXXXXXXXXXXOOOOOOOOOOOOOOO ",
" OOOOOOOOOOOOOOXXXXXXXXXXXXXXXOOOOOOOOOOOXXXXXXXXXXXXXXXOOOOOOOOOOOOOO ",
" OOOOOOOOOOOOOOXXXXXXXXXXXXXXXOOOOOOOOOOOXXXXXXXXXXXXXXXOOOOXXXXOOXXOO ",
" OOOOOOOOOOOOOOXXXXXXXXXXXXXXXOOOOOOOOOOOXXXXXXXXXXXXXXXOOOXXXXXXOXXOO ",
" OOOOOOOOOOOOOOXXXXXXXXXXXXXXXOOOOOOOOOOOXXXXXXXXXXXXXXXOOOXXOOXXOXXOO ",
" OOOOOOOOOOOOOOXXXXXXXOXXXXXXXOOOOOOOOOOOXXXXXXXOXXXXXXXOOOXXOOXXOXXOO ",
" OOOOOOOOOOOOOOOXXXXXXOXXXXXXOOOOOOOOOOOOOXXXXXXOXXXXXXOOOOXXOOXXOXXOO ",
" OOOOOOOOOOOOOOOOXXXXOOOXXXXOOOOOOOOOOOOOOOXXXXOOOXXXXOOOOOXXOOXXOXXOO ",
" OOOOOOOOOOOOOOOOOOOOOOOOOOOOOOOOOOOOOOOOOOOOOOOOOOOOOOOOOOXXOOXXOXXOO ",
" OOOOOOOOOOOOOOOOOOOOOOOOOOOOOOOOOOOOOOOOOOOOOOOOOOOOOOOOOOXXOOXXOXXOO ",
" OOOOOOOOOOOOOOOOOOOOOOOOOOOOOOOOOOOOOOOOOOOOOOOOOOOOOOOOOOXXOOXXOXXOO ",
" OOOOOOOOOOOOOOOOOOOOOOOOOOOOOOOOOOOOOOOOOOOOOOOOOOOOOOOOOOXXOOXXOXXOO ",
" OOOOOOOOOOOOOOOOOOOOOOOOOOOOOOOOOOOOOOOOOOOOOOOOOOOOOOOOOOXXXXXXOXXOO ",
" OOOOOOOOOOOOOOOOOOOOOOOOOOOOOOOOOOOOOOOOOOOOOOOOOOOOOOOOOOOXXXXOOXXOO ",
" OOOOOOOOOOOOOOOOOOOOOOOOOOOOOOOOOOOOOOOOOOOOOOOOOOOOOOOOOOOOOOOOOOOOO ",
" OOOOOOOOOOOOOOOOOOOOOOOOOOOOOOOOOOOOOOOOOOOOOOOOOOOOOOOOOOOOOOOOOOOOO ",
" oOOOOOOOOOOOOOOOOOOOOOOOOOOOOOOOOOOOOOOOOOOOOOOOOOOOOOOOOOOOOOOOOOOOo ",
".                                                                     ."
};
