/* XPM */
static char *h9[] = {
/* columns rows colors chars-per-pixel */
"71 96 5 1",
"  c black",
". c #008000",
"X c red",
"o c #808080",
"O c white",
/* pixels */
".                                                                     .",
" oOOOOOOOOOOOOOOOOOOOOOOOOOOOOOOOOOOOOOOOOOOOOOOOOOOOOOOOOOOOOOOOOOOOo ",
" OOOOOOOOOOOOOOOOOOOOOOOOOOOOOOOOOOOOOOOOOOOOOOOOOOOOOOOOOOOOOOOOOOOOO ",
" OOOOOOOOOOOOOOOOOOOOOOOOOOOOOOOOOOOOOOOOOOOOOOOOOOOOOOOOOOOOOOOOOOOOO ",
" OOOOXXXXXOOOOOOOOOOOOOOOOOOOOOOOOOOOOOOOOOOOOOOOOOOOOOOOOOOOOOOOOOOOO ",
" OOOXXXXXXXOOOOOOOOOOOOOOOOOOOOOOOOOOOOOOOOOOOOOOOOOOOOOOOOOOOOOOOOOOO ",
" OOOXXOOOXXOOOOOOOOOOOOOOOOOOOOOOOOOOOOOOOOOOOOOOOOOOOOOOOOOOOOOOOOOOO ",
" OOOXXOOOXXOOOOOOOOOOOOOOOOOOOOOOOOOOOOOOOOOOOOOOOOOOOOOOOOOOOOOOOOOOO ",
" OOOXXOOOXXOOOOOOOOOOOOOOOOOOOOOOOOOOOOOOOOOOOOOOOOOOOOOOOOOOOOOOOOOOO ",
" OOOXXOOOXXOOOOOOOOOOOOOOOOOOOOOOOOOOOOOOOOOOOOOOOOOOOOOOOOOOOOOOOOOOO ",
" OOOXXXXXXXOOOOOOXXXXOOOXXXXOOOOOOOOOOOOOOOXXXXOOOXXXXOOOOOOOOOOOOOOOO ",
" OOOOXXXXXXOOOOOXXXXXXOXXXXXXOOOOOOOOOOOOOXXXXXXOXXXXXXOOOOOOOOOOOOOOO ",
" OOOOOOOOXXOOOOXXXXXXXOXXXXXXXOOOOOOOOOOOXXXXXXXOXXXXXXXOOOOOOOOOOOOOO ",
" OOOOOOOXXXOOOOXXXXXXXXXXXXXXXOOOOOOOOOOOXXXXXXXXXXXXXXXOOOOOOOOOOOOOO ",
" OOOOXXXXXOOOOOXXXXXXXXXXXXXXXOOOOOOOOOOOXXXXXXXXXXXXXXXOOOOOOOOOOOOOO ",
" OOOOXXXXOOOOOOXXXXXXXXXXXXXXXOOOOOOOOOOOXXXXXXXXXXXXXXXOOOOOOOOOOOOOO ",
" OOOOOOOOOOOOOOXXXXXXXXXXXXXXXOOOOOOOOOOOXXXXXXXXXXXXXXXOOOOOOOOOOOOOO ",
" OOOOOOOOOOOOOOOXXXXXXXXXXXXXOOOOOOOOOOOOOXXXXXXXXXXXXXOOOOOOOOOOOOOOO ",
" OOOOOOOOOOOOOOOXXXXXXXXXXXXXOOOOOOOOOOOOOXXXXXXXXXXXXXOOOOOOOOOOOOOOO ",
" OOOXXXOXXXOOOOOOXXXXXXXXXXXOOOOOOOOOOOOOOOXXXXXXXXXXXOOOOOOOOOOOOOOOO ",
" OOXXXXOXXXXOOOOOOXXXXXXXXXOOOOOOOOOOOOOOOOOXXXXXXXXXOOOOOOOOOOOOOOOOO ",
" OOXXXXXXXXXOOOOOOOXXXXXXXOOOOOOOOOOOOOOOOOOOXXXXXXXOOOOOOOOOOOOOOOOOO ",
" OOXXXXXXXXXOOOOOOOOXXXXXOOOOOOOOOOOOOOOOOOOOOXXXXXOOOOOOOOOOOOOOOOOOO ",
" OOXXXXXXXXXOOOOOOOOOXXXOOOOOOOOOOOOOOOOOOOOOOOXXXOOOOOOOOOOOOOOOOOOOO ",
" OOOXXXXXXXOOOOOOOOOOOXOOOOOOOOOOOOOOOOOOOOOOOOOXOOOOOOOOOOOOOOOOOOOOO ",
" OOOOXXXXXOOOOOOOOOOOOOOOOOOOOOOOOOOOOOOOOOOOOOOOOOOOOOOOOOOOOOOOOOOOO ",
" OOOOOXXXOOOOOOOOOOOOOOOOOOOOOOOOOOOOOOOOOOOOOOOOOOOOOOOOOOOOOOOOOOOOO ",
" OOOOOOXOOOOOOOOOOOOOOOOOOOOOOOOOOOOOOOOOOOOOOOOOOOOOOOOOOOOOOOOOOOOOO ",
" OOOOOOOOOOOOOOOOOOOOOOOOOOOOOOOOOOOOOOOOOOOOOOOOOOOOOOOOOOOOOOOOOOOOO ",
" OOOOOOOOOOOOOOOOOOOOOOOOOOOOOOOOOOOOOOOOOOOOOOOOOOOOOOOOOOOOOOOOOOOOO ",
" OOOOOOOOOOOOOOOOOOOOOOOOOOOOOOOOOOOOOOOOOOOOOOOOOOOOOOOOOOOOOOOOOOOOO ",
" OOOOOOOOOOOOOOOOXXXXOOOXXXXOOOOOOOOOOOOOOOXXXXOOOXXXXOOOOOOOOOOOOOOOO ",
" OOOOOOOOOOOOOOOXXXXXXOXXXXXXOOOOOOOOOOOOOXXXXXXOXXXXXXOOOOOOOOOOOOOOO ",
" OOOOOOOOOOOOOOXXXXXXXOXXXXXXXOOOOOOOOOOOXXXXXXXOXXXXXXXOOOOOOOOOOOOOO ",
" OOOOOOOOOOOOOOXXXXXXXXXXXXXXXOOOOOOOOOOOXXXXXXXXXXXXXXXOOOOOOOOOOOOOO ",
" OOOOOOOOOOOOOOXXXXXXXXXXXXXXXOOOOOOOOOOOXXXXXXXXXXXXXXXOOOOOOOOOOOOOO ",
" OOOOOOOOOOOOOOXXXXXXXXXXXXXXXOOOOOOOOOOOXXXXXXXXXXXXXXXOOOOOOOOOOOOOO ",
" OOOOOOOOOOOOOOXXXXXXXXXXXXXXXOOOOOOOOOOOXXXXXXXXXXXXXXXOOOOOOOOOOOOOO ",
" OOOOOOOOOOOOOOOXXXXXXXXXXXXXOOOOOOOOOOOOOXXXXXXXXXXXXXOOOOOOOOOOOOOOO ",
" OOOOOOOOOOOOOOOXXXXXXXXXXXXXOOOOOOOOOOOOOXXXXXXXXXXXXXOOOOOOOOOOOOOOO ",
" OOOOOOOOOOOOOOOOXXXXXXXXXXXOOOOOOOOOOOOOOOXXXXXXXXXXXOOOOOOOOOOOOOOOO ",
" OOOOOOOOOOOOOOOOOXXXXXXXXXOOOOOOOOOOOOOOOOOXXXXXXXXXOOOOOOOOOOOOOOOOO ",
" OOOOOOOOOOOOOOOOOOXXXXXXXOOOOOOOOOOOOOOOOOOOXXXXXXXOOOOOOOOOOOOOOOOOO ",
" OOOOOOOOOOOOOOOOOOOXXXXXOOOOOXXXXOOOXXXXOOOOOXXXXXOOOOOOOOOOOOOOOOOOO ",
" OOOOOOOOOOOOOOOOOOOOXXXOOOOOXXXXXXOXXXXXXOOOOOXXXOOOOOOOOOOOOOOOOOOOO ",
" OOOOOOOOOOOOOOOOOOOOOXOOOOOXXXXXXXOXXXXXXXOOOOOXOOOOOOOOOOOOOOOOOOOOO ",
" OOOOOOOOOOOOOOOOOOOOOOOOOOOXXXXXXXXXXXXXXXOOOOOOOOOOOOOOOOOOOOOOOOOOO ",
" OOOOOOOOOOOOOOOOOOOOOOOOOOOXXXXXXXXXXXXXXXOOOOOOOOOOOOOOOOOOOOOOOOOOO ",
" OOOOOOOOOOOOOOOOOOOOOOOOOOOXXXXXXXXXXXXXXXOOOOOOOOOOOOOOOOOOOOOOOOOOO ",
" OOOOOOOOOOOOOOOOOOOOOOOOOOOXXXXXXXXXXXXXXXOOOOOOOOOOOOOOOOOOOOOOOOOOO ",
" OOOOOOOOOOOOOOOOOOOOOXOOOOOOXXXXXXXXXXXXXOOOOOOXOOOOOOOOOOOOOOOOOOOOO ",
" OOOOOOOOOOOOOOOOOOOOXXXOOOOOXXXXXXXXXXXXXOOOOOXXXOOOOOOOOOOOOOOOOOOOO ",
" OOOOOOOOOOOOOOOOOOOXXXXXOOOOOXXXXXXXXXXXOOOOOXXXXXOOOOOOOOOOOOOOOOOOO ",
" OOOOOOOOOOOOOOOOOOXXXXXXXOOOOOXXXXXXXXXOOOOOXXXXXXXOOOOOOOOOOOOOOOOOO ",
" OOOOOOOOOOOOOOOOOXXXXXXXXXOOOOOXXXXXXXOOOOOXXXXXXXXXOOOOOOOOOOOOOOOOO ",
" OOOOOOOOOOOOOOOOXXXXXXXXXXXOOOOOXXXXXOOOOOXXXXXXXXXXXOOOOOOOOOOOOOOOO ",
" OOOOOOOOOOOOOOOXXXXXXXXXXXXXOOOOOXXXOOOOOXXXXXXXXXXXXXOOOOOOOOOOOOOOO ",
" OOOOOOOOOOOOOOOXXXXXXXXXXXXXOOOOOOXOOOOOOXXXXXXXXXXXXXOOOOOOOOOOOOOOO ",
" OOOOOOOOOOOOOOXXXXXXXXXXXXXXXOOOOOOOOOOOXXXXXXXXXXXXXXXOOOOOOOOOOOOOO ",
" OOOOOOOOOOOOOOXXXXXXXXXXXXXXXOOOOOOOOOOOXXXXXXXXXXXXXXXOOOOOOOOOOOOOO ",
" OOOOOOOOOOOOOOXXXXXXXXXXXXXXXOOOOOOOOOOOXXXXXXXXXXXXXXXOOOOOOOOOOOOOO ",
" OOOOOOOOOOOOOOXXXXXXXXXXXXXXXOOOOOOOOOOOXXXXXXXXXXXXXXXOOOOOOOOOOOOOO ",
" OOOOOOOOOOOOOOXXXXXXXOXXXXXXXOOOOOOOOOOOXXXXXXXOXXXXXXXOOOOOOOOOOOOOO ",
" OOOOOOOOOOOOOOOXXXXXXOXXXXXXOOOOOOOOOOOOOXXXXXXOXXXXXXOOOOOOOOOOOOOOO ",
" OOOOOOOOOOOOOOOOXXXXOOOXXXXOOOOOOOOOOOOOOOXXXXOOOXXXXOOOOOOOOOOOOOOOO ",
" OOOOOOOOOOOOOOOOOOOOOOOOOOOOOOOOOOOOOOOOOOOOOOOOOOOOOOOOOOOOOOOOOOOOO ",
" OOOOOOOOOOOOOOOOOOOOOOOOOOOOOOOOOOOOOOOOOOOOOOOOOOOOOOOOOOOOOOOOOOOOO ",
" OOOOOOOOOOOOOOOOOOOOOOOOOOOOOOOOOOOOOOOOOOOOOOOOOOOOOOOOOOOOOOOOOOOOO ",
" OOOOOOOOOOOOOOOOOOOOOOOOOOOOOOOOOOOOOOOOOOOOOOOOOOOOOOOOOOOOOOXOOOOOO ",
" OOOOOOOOOOOOOOOOOOOOOOOOOOOOOOOOOOOOOOOOOOOOOOOOOOOOOOOOOOOOOXXXOOOOO ",
" OOOOOOOOOOOOOOOOOOOOOOOOOOOOOOOOOOOOOOOOOOOOOOOOOOOOOOOOOOOOXXXXXOOOO ",
" OOOOOOOOOOOOOOOOOOOOOXOOOOOOOOOOOOOOOOOOOOOOOOOXOOOOOOOOOOOXXXXXXXOOO ",
" OOOOOOOOOOOOOOOOOOOOXXXOOOOOOOOOOOOOOOOOOOOOOOXXXOOOOOOOOOXXXXXXXXXOO ",
" OOOOOOOOOOOOOOOOOOOXXXXXOOOOOOOOOOOOOOOOOOOOOXXXXXOOOOOOOOXXXXXXXXXOO ",
" OOOOOOOOOOOOOOOOOOXXXXXXXOOOOOOOOOOOOOOOOOOOXXXXXXXOOOOOOOXXXXXXXXXOO ",
" OOOOOOOOOOOOOOOOOXXXXXXXXXOOOOOOOOOOOOOOOOOXXXXXXXXXOOOOOOXXXXOXXXXOO ",
" OOOOOOOOOOOOOOOOXXXXXXXXXXXOOOOOOOOOOOOOOOXXXXXXXXXXXOOOOOOXXXOXXXOOO ",
" OOOOOOOOOOOOOOOXXXXXXXXXXXXXOOOOOOOOOOOOOXXXXXXXXXXXXXOOOOOOOOOOOOOOO ",
" OOOOOOOOOOOOOOOXXXXXXXXXXXXXOOOOOOOOOOOOOXXXXXXXXXXXXXOOOOOOOOOOOOOOO ",
" OOOOOOOOOOOOOOXXXXXXXXXXXXXXXOOOOOOOOOOOXXXXXXXXXXXXXXXOOOOOOOOOOOOOO ",
" OOOOOOOOOOOOOOXXXXXXXXXXXXXXXOOOOOOOOOOOXXXXXXXXXXXXXXXOOOOOOXXXXOOOO ",
" OOOOOOOOOOOOOOXXXXXXXXXXXXXXXOOOOOOOOOOOXXXXXXXXXXXXXXXOOOOOXXXXXOOOO ",
" OOOOOOOOOOOOOOXXXXXXXXXXXXXXXOOOOOOOOOOOXXXXXXXXXXXXXXXOOOOXXXOOOOOOO ",
" OOOOOOOOOOOOOOXXXXXXXOXXXXXXXOOOOOOOOOOOXXXXXXXOXXXXXXXOOOOXXOOOOOOOO ",
" OOOOOOOOOOOOOOOXXXXXXOXXXXXXOOOOOOOOOOOOOXXXXXXOXXXXXXOOOOOXXXXXXOOOO ",
" OOOOOOOOOOOOOOOOXXXXOOOXXXXOOOOOOOOOOOOOOOXXXXOOOXXXXOOOOOOXXXXXXXOOO ",
" OOOOOOOOOOOOOOOOOOOOOOOOOOOOOOOOOOOOOOOOOOOOOOOOOOOOOOOOOOOXXOOOXXOOO ",
" OOOOOOOOOOOOOOOOOOOOOOOOOOOOOOOOOOOOOOOOOOOOOOOOOOOOOOOOOOOXXOOOXXOOO ",
" OOOOOOOOOOOOOOOOOOOOOOOOOOOOOOOOOOOOOOOOOOOOOOOOOOOOOOOOOOOXXOOOXXOOO ",
" OOOOOOOOOOOOOOOOOOOOOOOOOOOOOOOOOOOOOOOOOOOOOOOOOOOOOOOOOOOXXOOOXXOOO ",
" OOOOOOOOOOOOOOOOOOOOOOOOOOOOOOOOOOOOOOOOOOOOOOOOOOOOOOOOOOOXXXXXXXOOO ",
" OOOOOOOOOOOOOOOOOOOOOOOOOOOOOOOOOOOOOOOOOOOOOOOOOOOOOOOOOOOOXXXXXOOOO ",
" OOOOOOOOOOOOOOOOOOOOOOOOOOOOOOOOOOOOOOOOOOOOOOOOOOOOOOOOOOOOOOOOOOOOO ",
" OOOOOOOOOOOOOOOOOOOOOOOOOOOOOOOOOOOOOOOOOOOOOOOOOOOOOOOOOOOOOOOOOOOOO ",
" oOOOOOOOOOOOOOOOOOOOOOOOOOOOOOOOOOOOOOOOOOOOOOOOOOOOOOOOOOOOOOOOOOOOo ",
".                                                                     ."
};
