/* XPM */
static char * hearts_xpm[] = {
"15 15 2 1",
" 	c None",
".	c #FF0000",
"  ....   ....  ",
" ...... ...... ",
"....... .......",
"...............",
"...............",
"...............",
"...............",
" ............. ",
" ............. ",
"  ...........  ",
"   .........   ",
"    .......    ",
"     .....     ",
"      ...      ",
"       .       "};
