/* XPM */
static char *hj[] = {
/* columns rows colors chars-per-pixel */
"71 96 8 1",
"  c black",
". c blue",
"X c #008000",
"o c red",
"O c magenta",
"+ c yellow",
"@ c #808080",
"# c white",
/* pixels */
"X                                                                     X",
" @###################################################################@ ",
" ##################################################################### ",
" ##################################################################### ",
" #####oooo############################################################ ",
" #####oooo############################################################ ",
" ######oo############################################################# ",
" ######oo############################################################# ",
" ######oo############################################################# ",
" ######oo############################################################# ",
" ######oo############################################################# ",
" ######oo###                                               ########### ",
" ##oo##oo### ######### oo#ooo#o#oo#o#ooo#o ############### ########### ",
" ##oo##oo###  ##   #### oo#oo#o#oo#o#oo#o ##oooO###Oooo### ########### ",
" ##oooooo### o ## + #### oo###o####o###o  #oooooO#Oooooo## ########### ",
" ###oooo#### o ## ++ ### oooooooooooooo  #ooooooo#ooooooo# ########### ",
" ########### o ## ++ ###                 #ooooooooooooooo# ########### ",
" ###########     # ++ ### + + + + ##### ##ooooooooooooooo# ########### ",
" ##ooO#Ooo## #o#o## + ### + + + + ##  # ##ooooooooooooooo# ########### ",
" #oooo#oooo# #o#o###  ## + + + + #  # # ##OoooooooooooooO# ########### ",
" #ooooooooo# # # ## + ## + + + + ######.###OoooooooooooO## ########### ",
" #ooooooooo#     # ++ ## + + + + ####### ##OoooooooooooO## ########### ",
" #OoooooooO# o ## ++ ### + + + + ######## ##ooooooooooO### ########### ",
" ##ooooooo## o ## ++ ### + + + + ###  #.  ###ooooooooo#### ########### ",
" ###ooooo### o ## + #### + + + + #   ## ######ooooooo##### ########### ",
" ####ooo#### o #   ###   + + + + ###### #######ooooo###### ########### ",
" #####o##### o ###### +++  + + + ####   ########ooo### ### ########### ",
" ########### o ##### ++ + + +  + ###### #########o##  o  # ########### ",
" ########### o ##### + ++ + + + ooo####      ####### ooo # ########### ",
" ########### o ##### ++  ++ +  ooooo   ++ +++ ####### o ## ########### ",
" ########### o ###### ++++ +  ooooooooo ++  + ####    o ## ########### ",
" ########### o ######       ++  ooooooo  ++++ ### ### o ## ########### ",
" ########### o ####  o#o +++++++      +++ ++  ## #####   # ########### ",
" ########### o ##      o#  +++++++++++++++  #o   ##  # # # ########### ",
" ########### o   ##oo    o#   +++++++++   #ooo    ##     # ########### ",
" ########### o oo####oo    o#o         o#ooo    oo ## ## # ########### ",
" ###########     oo####oo    o#o#o#o#o#ooo    oo###      # ########### ",
" ########### +++   oo####oo    o       o    oo####o   # ## ########### ",
" ########### ++ +++  oo####oo   o ### o   oo####oo  ##  ## ########### ",
" ########### + +++ ++  oo####oo  o # o  oo####oo  + # #  # ########### ",
" ###########    + ++o    oo####o  o o  o####oo  +++ ####   ########### ",
" ########### ### ++o  +++  oo###o  o  o####o  +++++ # #    ########### ",
" ###########  ### o  ++++++ oo###o   o###oo +++++++ ####   ########### ",
" ########### ## #   +         o###o o###o         + # #    ########### ",
" ###########  #### ++ ####### oo##   ##oo ####### + ####   ########### ",
" ###########   # # ++ #     #  oo ### oo  #     # + # #    ########### ",
" ###########   #### + # ++    #  #   #  #    ++ # + ####   ########### ",
" ###########    # # + # ++  ##  # ooo #  ##  ++ # + # #    ########### ",
" ###########    # # + # ++  ##  # ooo #  ##  ++ # + # #  o ########### ",
" ###########   #### + # ++    #  #   #  #    ++ # + ##  o+ ########### ",
" ###########    # # + #     #  oo ### oo  #     # ++   o++ ########### ",
" ###########   #### + ####### oo##   ##oo ####### ++  o++  ########### ",
" ###########    # # +         o###o o###o         +  o++   ########### ",
" ###########   #### +++++++ oo###o   o###oo ++++++  o++    ########### ",
" ###########    # # +++++  o####o  o  o###oo  +++  o++     ########### ",
" ###########   #### +++  oo####o  o o  o####oo    o++   ++ ########### ",
" ########### #  # # +  oo####oo  o # o  oo####oo  ++   +++ ########### ",
" ########### ##  ##  oo####oo   o ### o   oo####oo   ++ ++ ########### ",
" ########### ## #   o####oo    o       o    oo####oo    +  ########### ",
" ########### #      ###oo    ooo#o#o#o#o#o    oo####oo     ########### ",
" ########### # ## ## oo    ooo#o         o#o    oo####oo o ########### ",
" ########### #     ##    ooo#   +++++++++   #o    oo##   o ########### ",
" ########### # # #  ##   o#  +++++++++++++++  #o      ## o ########### ",
" ########### #   ##### ##  ++  ++      +++++++ o#o  #### o ########### ",
" ########### ## o ### ### +++++  oooooo  ++       ###### o ########### ",
" ########### ## o    #### +  +++    ooooo  + ++++ ###### o ########### ",
" ########### ## o ####### +++ + ####  oo  + ++  ++ ##### o ########### ",
" ########### # ooo #######   #  ######  + + + ++ + ##### o ########### ",
" ########### #  o  ##o######### ####### + + + + ++ ##### o ########### ",
" ########### ### ###ooo########   #####+ + +  +++ ###### o #####o##### ",
" ########### ######ooooo####### ###### + + + +   ###   # o ####ooo#### ",
" ########### #####ooooooo###### ##   # + + + + #### + ## o ###ooooo### ",
" ########### ####ooooooooo###   #  ### + + + + ### ++ ## o ##ooooooo## ",
" ########### ###Ooooooooooo## ######## + + + + ### ++ ## o #OoooooooO# ",
" ########### ##OoooooooooooO## ####### + + + + ## ++ #     #ooooooooo# ",
" ########### ##OoooooooooooO### ###### + + + + ## + ## # # #ooooooooo# ",
" ########### #OoooooooooooooO## # #  # + + + + ##  ###o#o# #oooo#oooo# ",
" ########### #ooooooooooooooo## #  ## + + + + ### + ##o#o# ##ooO#Ooo## ",
" ########### #ooooooooooooooo## ##### + + + + ### ++ #     ########### ",
" ########### #ooooooooooooooo#                 ### ++ ## o ########### ",
" ########### #ooooooo#ooooooo#  oooooooooooooo ### ++ ## o ####oooo### ",
" ########### ##oooooO#Oooooo#  o###o####o###oo #### + ## o ###oooooo## ",
" ########### ###oooO###Oooo## o#oo#o#oo#o#oo#oo ####   ##  ###oo##oo## ",
" ########### ############### o#ooo#o#oo#o#ooo#oo ######### ###oo##oo## ",
" ###########                                               ###oo###### ",
" #############################################################oo###### ",
" #############################################################oo###### ",
" #############################################################oo###### ",
" #############################################################oo###### ",
" #############################################################oo###### ",
" ############################################################oooo##### ",
" ############################################################oooo##### ",
" ##################################################################### ",
" ##################################################################### ",
" @###################################################################@ ",
"X                                                                     X"
};
