/* XPM */
static char *hk[] = {
/* columns rows colors chars-per-pixel */
"71 96 7 1",
"  c black",
". c #008000",
"X c red",
"o c magenta",
"O c yellow",
"+ c #808080",
"@ c white",
/* pixels */
".                                                                     .",
" +@@@@@@@@@@@@@@@@@@@@@@@@@@@@@@@@@@@@@@@@@@@@@@@@@@@@@@@@@@@@@@@@@@@+ ",
" @@@@@@@@@@@@@@@@@@@@@@@@@@@@@@@@@@@@@@@@@@@@@@@@@@@@@@@@@@@@@@@@@@@@@ ",
" @@@@@@@@@@@@@@@@@@@@@@@@@@@@@@@@@@@@@@@@@@@@@@@@@@@@@@@@@@@@@@@@@@@@@ ",
" @XXXX@XXXX@@@@@@@@@@@@@@@@@@@@@@@@@@@@@@@@@@@@@@@@@@@@@@@@@@@@@@@@@@@ ",
" @XXXX@XXXX@@@@@@@@@@@@@@@@@@@@@@@@@@@@@@@@@@@@@@@@@@@@@@@@@@@@@@@@@@@ ",
" @@XX@@XX@@@@@@@@@@@@@@@@@@@@@@@@@@@@@@@@@@@@@@@@@@@@@@@@@@@@@@@@@@@@@ ",
" @@XX@XX@@@@@@@@@@@@@@@@@@@@@@@@@@@@@@@@@@@@@@@@@@@@@@@@@@@@@@@@@@@@@@ ",
" @@XXXX@@@@@@@@@@@@@@@@@@@@@@@@@@@@@@@@@@@@@@@@@@@@@@@@@@@@@@@@@@@@@@@ ",
" @@XXX@@@@@@@@@@@@@@@@@@@@@@@@@@@@@@@@@@@@@@@@@@@@@@@@@@@@@@@@@@@@@@@@ ",
" @@XXXX@@@@@@@@@@@@@@@@@@@@@@@@@@@@@@@@@@@@@@@@@@@@@@@@@@@@@@@@@@@@@@@ ",
" @@XX@XX@@@@                                               @@@@@@@@@@@ ",
" @@XX@@XX@@@ @@@@@@@@@@@@@@@ O OOO OOO OOO OOOOOO @@@@@@@@ @@@@@@@@@@@ ",
" @@XX@@@XX@@ @@@XXXo@@@oXXX@@   O   O   O   O  O @@@@@@@@@ @@@@@@@@@@@ ",
" @XXXX@XXXX@ @@XXXXXo@oXXXXX@@ OOOOOOOOOOOO OO  @@  @@@@@@ @@@@@@@@@@@ ",
" @XXXX@XXXX@ @XXXXXXX@XXXXXXX@@ XXXXXXXXXOOOOO @@ OO @@@@@ @@@@@@@@@@@ ",
" @@@@@@@@@@@ @XXXXXXXXXXXXXXX@@          XXXXX @@ OO   @@@ @@@@@@@@@@@ ",
" @@@@@@@@@@@ @XXXXXXXXXXXXXXX@@ @@@@@@@@          O @@  @@ @@@@@@@@@@@ ",
" @@XXo@oXX@@ @XXXXXXXXXXXXXXX@@ @@@@@@@@ @ @ @ @@ O @@ O @ @@@@@@@@@@@ ",
" @XXXX@XXXX@ @oXXXXXXXXXXXXXo@     @     @ @ @   OO    O @ @@@@@@@@@@@ ",
" @XXXXXXXXX@ @@oXXXXXXXXXXXo@ @   @   @  @ @ @   OO  @@ @@ @@@@@@@@@@@ ",
" @XXXXXXXXX@ @@oXXXXXXXXXXXo@ @ @@@ @@@@ @ @ @ @ OO @@@ @@ @@@@@@@@@@@ ",
" @oXXXXXXXo@ @@@oXXXXXXXXXX@@ @ @@@ @@@@ @ @ @ @@       @@ @@@@@@@@@@@ ",
" @@XXXXXXX@@ @@@@XXXXXXXXX@@@ @ @@@ @@@@ @ @ @@ @@ XXXX @@ @@@@@@@@@@@ ",
" @@@XXXXX@@@ @@@@@XXXXXXX@@@ @ @@@   @@@@ @ @ @ @        @ @@@@@@@@@@@ ",
" @@@@XXX@@@@ @@@@@@XXXXX@@@@ @ @@@@@@@@@@ @@ @ @  X X X X  @@@@@@@@@@@ ",
" @@@@@X@@@@@ @@@@@@@XXX@@@@@@  @ @   @@@@@ @ @ @ XXXXXXX   @@@@@@@@@@@ ",
" @@@@@@@@@@@ @@@@@@@@X@@@     @@ @@@@@@ @ @ @ @@  XXXXX @@ @@@@@@@@@@@ ",
" @@@@@@@@@@@ @@@@@@@@@@   X  @@ @ @@@ @ @ @ @@@ @@   X @XX @@@@@@@@@@@ ",
" @@@@@@@@@@@ @@@@@@@       X   @@ @ @ @   @@@  @ @@@   XX  @@@@@@@@@@@ ",
" @@@@@@@@@@@ @@@@@   X @@  XX @  @@ @ @@ @   @@@@@  X      @@@@@@@@@@@ ",
" @@@@@@@@@@@ @@@  @@ X @@@  XX  @@  @  @ OO @@ @@ X X O    @@@@@@@@@@@ ",
" @@@@@@@@@@@ @   @ @ X @ @@  XX   O  @  OOO @ @@ XO X   O  @@@@@@@@@@@ ",
" @@@@@@@@@@@  OOX @ @ X @ @@ XX  O O  OOOO @@@@ XO X     O @@@@@@@@@@@ ",
" @@@@@@@@@@@ OXXX  @@ X @@@@  XX  O  OOOOO  @@@ OX X O     @@@@@@@@@@@ ",
" @@@@@@@@@@@ XX     @@ X @ @@ XXX   OOOOOO @@@ OX X  XOO   @@@@@@@@@@@ ",
" @@@@@@@@@@@ X     X @ XX @ @  XX  OOOOOO @@ @ X XX    OO  @@@@@@@@@@@ ",
" @@@@@@@@@@@  O   XXX @ XX @@@ XXX OOOOO  @ @@  XX    XXOO @@@@@@@@@@@ ",
" @@@@@@@@@@@ OXXO   XX @ XXX @  X OOOOO X @@@  XX    XXXXO @@@@@@@@@@@ ",
" @@@@@@@@@@@ XXOOOX     @  XX  @  OOOOO  @@  XX     XXOX O @@@@@@@@@@@ ",
" @@@@@@@@@@@ XOOO XOO    @@                XX      XXXXXOO @@@@@@@@@@@ ",
" @@@@@@@@@@@ OOO X   O     @@@@@XXXXXXXXXXX       XXOX OO  @@@@@@@@@@@ ",
" @@@@@@@@@@@ OOO XOOOO O @@@@X             @     XXXXXOOO  @@@@@@@@@@@ ",
" @@@@@@@@@@@ OOO X   O O @@@@@@@@@ XXXX @@@@    XXOX OOO   @@@@@@@@@@@ ",
" @@@@@@@@@@@ OOO XOOOO O @@@@@@@   @XXX @ @    XOXXXOOO    @@@@@@@@@@@ ",
" @@@@@@@@@@@  OOO XOO           @     X  @       X OOO   X @@@@@@@@@@@ ",
" @@@@@@@@@@@   OOOO         @@@  OOOOO  @@    XX OOOO   X  @@@@@@@@@@@ ",
" @@@@@@@@@@@ X  O     OOOOO @@@  O X O @@ @ OOOOOOOO    XX @@@@@@@@@@@ ",
" @@@@@@@@@@@ XX    OOOOOOOO @ @@ O X O  @@@ OOOOO     O  X @@@@@@@@@@@ ",
" @@@@@@@@@@@  X   OOOO XX    @@  OOOOO  @@@         OOOO   @@@@@@@@@@@ ",
" @@@@@@@@@@@ X   OOO X       @  X     @           OOX OOO  @@@@@@@@@@@ ",
" @@@@@@@@@@@    OOOXXXOX      @ XXX@   @@@@@@@ O OOOOX OOO @@@@@@@@@@@ ",
" @@@@@@@@@@@   OOO XOXX     @@@ XXXX @@@@@@@@@ O O   X OOO @@@@@@@@@@@ ",
" @@@@@@@@@@@  OOOXXXXX                   X@@@@ O OOOOX OOO @@@@@@@@@@@ ",
" @@@@@@@@@@@  OO XOXX       XXXXXXXXXXX@@@@@     O   X OOO @@@@@@@@@@@ ",
" @@@@@@@@@@@ OOXXXXX      XX                @@    OOX OOOX @@@@@@@@@@@ ",
" @@@@@@@@@@@ O XOXX     XX  @@  OOOOO  @  XX  @     XOOOXX @@@@@@@@@@@ ",
" @@@@@@@@@@@ OXXXX    XX  @@@ X OOOOO X  @ XXX @ XX   OXXO @@@@@@@@@@@ ",
" @@@@@@@@@@@ OOXX    XX  @@ @  OOOOO XXX @@@ XX @ XXX   O  @@@@@@@@@@@ ",
" @@@@@@@@@@@  OO    XX X @ @@ OOOOOO  XX  @ @ XX @ X     X @@@@@@@@@@@ ",
" @@@@@@@@@@@   OOX  X XO @@@ OOOOOO   XXX @@ @ X @@     XX @@@@@@@@@@@ ",
" @@@@@@@@@@@     O X XO @@@  OOOOO  O  XX  @@@@ X @@  XXXO @@@@@@@@@@@ ",
" @@@@@@@@@@@ O     X OX @@@@ OOOO  O O  XX @@ @ X @ @ XOO  @@@@@@@@@@@ ",
" @@@@@@@@@@@  O   X OX @@ @ OOO  @  O   XX  @@ @ X @ @   @ @@@@@@@@@@@ ",
" @@@@@@@@@@@    O X X @@ @@ OO @  @  @@  XX  @@@ X @@  @@@ @@@@@@@@@@@ ",
" @@@@@@@@@@@      X  @@@@@   @ @@ @ @@  @ XX  @@ X   @@@@@ @@@@@@@@@@@ ",
" @@@@@@@@@@@  XX   @@@ @  @@@   @ @ @ @@   X       @@@@@@@ @@@@@@@@@@@ ",
" @@@@@@@@@@@ XX@ X    @ @@@ @ @ @ @@@ @ @@  X   @@@@@@@@@@ @@@@@@@@@@@ ",
" @@@@@@@@@@@ @@ XXXXX  @@ @ @ @ @@@@@@ @@     @@@X@@@@@@@@ @@@@@@@@@@@ ",
" @@@@@@@@@@@   XXXXXXX @ @ @ @@@@@   @ @  @@@@@@XXX@@@@@@@ @@@@@X@@@@@ ",
" @@@@@@@@@@@  X X X X  @ @ @@ @@@@@@@@@@ @ @@@@XXXXX@@@@@@ @@@@XXX@@@@ ",
" @@@@@@@@@@@ @        @ @ @ @ @@@@   @@@ @ @@@XXXXXXX@@@@@ @@@XXXXX@@@ ",
" @@@@@@@@@@@ @@ XXXX @@ @@ @ @ @@@@ @@@ @ @@@XXXXXXXXX@@@@ @@XXXXXXX@@ ",
" @@@@@@@@@@@ @@       @@ @ @ @ @@@@ @@@ @ @@XXXXXXXXXXo@@@ @oXXXXXXXo@ ",
" @@@@@@@@@@@ @@ @@@ OO @ @ @ @ @@@@ @@@ @ @oXXXXXXXXXXXo@@ @XXXXXXXXX@ ",
" @@@@@@@@@@@ @@ @@  OO   @ @ @  @   @   @ @oXXXXXXXXXXXo@@ @XXXXXXXXX@ ",
" @@@@@@@@@@@ @ O    OO   @ @ @     @     @oXXXXXXXXXXXXXo@ @XXXX@XXXX@ ",
" @@@@@@@@@@@ @ O @@ O @@ @ @ @ @@@@@@@@ @@XXXXXXXXXXXXXXX@ @@XXo@oXX@@ ",
" @@@@@@@@@@@ @@  @@ O          @@@@@@@@ @@XXXXXXXXXXXXXXX@ @@@@@@@@@@@ ",
" @@@@@@@@@@@ @@@   OO @@ XXXXX          @@XXXXXXXXXXXXXXX@ @@@@@@@@@@@ ",
" @@@@@@@@@@@ @@@@@ OO @@ OOOOOXXXXXXXXX @@XXXXXXX@XXXXXXX@ @XXXX@XXXX@ ",
" @@@@@@@@@@@ @@@@@@  @@  OO OOOOOOOOOOOO @@XXXXXo@oXXXXX@@ @XXXX@XXXX@ ",
" @@@@@@@@@@@ @@@@@@@@@ O  O   O   O   O   @@XXXo@@@oXXX@@@ @@XX@@@XX@@ ",
" @@@@@@@@@@@ @@@@@@@@ OOOOOO OOO OOO OOO O @@@@@@@@@@@@@@@ @@@XX@@XX@@ ",
" @@@@@@@@@@@                                               @@@@XX@XX@@ ",
" @@@@@@@@@@@@@@@@@@@@@@@@@@@@@@@@@@@@@@@@@@@@@@@@@@@@@@@@@@@@@@@XXXX@@ ",
" @@@@@@@@@@@@@@@@@@@@@@@@@@@@@@@@@@@@@@@@@@@@@@@@@@@@@@@@@@@@@@@@XXX@@ ",
" @@@@@@@@@@@@@@@@@@@@@@@@@@@@@@@@@@@@@@@@@@@@@@@@@@@@@@@@@@@@@@@XXXX@@ ",
" @@@@@@@@@@@@@@@@@@@@@@@@@@@@@@@@@@@@@@@@@@@@@@@@@@@@@@@@@@@@@@XX@XX@@ ",
" @@@@@@@@@@@@@@@@@@@@@@@@@@@@@@@@@@@@@@@@@@@@@@@@@@@@@@@@@@@@@XX@@XX@@ ",
" @@@@@@@@@@@@@@@@@@@@@@@@@@@@@@@@@@@@@@@@@@@@@@@@@@@@@@@@@@@XXXX@XXXX@ ",
" @@@@@@@@@@@@@@@@@@@@@@@@@@@@@@@@@@@@@@@@@@@@@@@@@@@@@@@@@@@XXXX@XXXX@ ",
" @@@@@@@@@@@@@@@@@@@@@@@@@@@@@@@@@@@@@@@@@@@@@@@@@@@@@@@@@@@@@@@@@@@@@ ",
" @@@@@@@@@@@@@@@@@@@@@@@@@@@@@@@@@@@@@@@@@@@@@@@@@@@@@@@@@@@@@@@@@@@@@ ",
" +@@@@@@@@@@@@@@@@@@@@@@@@@@@@@@@@@@@@@@@@@@@@@@@@@@@@@@@@@@@@@@@@@@@+ ",
".                                                                     ."
};
