/* XPM */
static char *hq[] = {
/* columns rows colors chars-per-pixel */
"71 96 7 1",
"  c black",
". c #008000",
"X c red",
"o c magenta",
"O c yellow",
"+ c #808080",
"@ c white",
/* pixels */
".                                                                     .",
" +@@@@@@@@@@@@@@@@@@@@@@@@@@@@@@@@@@@@@@@@@@@@@@@@@@@@@@@@@@@@@@@@@@@+ ",
" @@@@@@@@@@@@@@@@@@@@@@@@@@@@@@@@@@@@@@@@@@@@@@@@@@@@@@@@@@@@@@@@@@@@@ ",
" @@@@@@@@@@@@@@@@@@@@@@@@@@@@@@@@@@@@@@@@@@@@@@@@@@@@@@@@@@@@@@@@@@@@@ ",
" @@@XXXXX@@@@@@@@@@@@@@@@@@@@@@@@@@@@@@@@@@@@@@@@@@@@@@@@@@@@@@@@@@@@@ ",
" @@XXXXXXX@@@@@@@@@@@@@@@@@@@@@@@@@@@@@@@@@@@@@@@@@@@@@@@@@@@@@@@@@@@@ ",
" @@XX@@@XX@@@@@@@@@@@@@@@@@@@@@@@@@@@@@@@@@@@@@@@@@@@@@@@@@@@@@@@@@@@@ ",
" @@XX@@@XX@@@@@@@@@@@@@@@@@@@@@@@@@@@@@@@@@@@@@@@@@@@@@@@@@@@@@@@@@@@@ ",
" @@XX@@@XX@@@@@@@@@@@@@@@@@@@@@@@@@@@@@@@@@@@@@@@@@@@@@@@@@@@@@@@@@@@@ ",
" @@XX@@@XX@@@@@@@@@@@@@@@@@@@@@@@@@@@@@@@@@@@@@@@@@@@@@@@@@@@@@@@@@@@@ ",
" @@XX@@@XX@@@@@@@@@@@@@@@@@@@@@@@@@@@@@@@@@@@@@@@@@@@@@@@@@@@@@@@@@@@@ ",
" @@XX@@@XX@@                                               @@@@@@@@@@@ ",
" @@XX@@@XX@@ @@@@@@@@@@@  @ @ @@   XOOOOO @@@@@@@@@@@@@@@@ @@@@@@@@@@@ ",
" @@XX@@@XX@@ @@@@@@@@@@  @ @ @ @   XO OO @@@XXXo@@@oXXX@@@ @@@@@@@@@@@ ",
" @@XXXXXXX@@ @@@@@@@@@    @  @@@   XOOOO @@XXXXXo@oXXXXX@@ @@@@@@@@@@@ ",
" @@@XXXXX@@@ @@@@@@@@@ O @ @@ @@@  XO O @@XXXXXXX@XXXXXXX@ @@@@@@@@@@@ ",
" @@@@@@XXX@@ @@@@@@@@  O  @@@@  @  XXOO @@XXXXXXXXXXXXXXX@ @@@@@@@@@@@ ",
" @@@@@@@XX@@ @@@@@@@@ OX @@@@@@@    XOO @@XXXXXXXXXXXXXXX@ @@@@@@@@@@@ ",
" @@@@@@@@@@@ @@@@@@@  OX    @   @   XXOO @XXXXXXXXXXXXXXX@ @@@@@@@@@@@ ",
" @@XXo@oXX@@ @@@@@@@ OXX   @   @     XXO @oXXXXXXXXXXXXXo@ @@@@@@@@@@@ ",
" @XXXX@XXXX@ @@@@@@  OXX @@@ @@@@ @   X @@@oXXXXXXXXXXXo@@ @@@@@@@@@@@ ",
" @XXXXXXXXX@ @@@@@@ OXXO @@@ @@@@ @    @@@@oXXXXXXXXXXXo@@ @@@@@@@@@@@ ",
" @XXXXXXXXX@ @@@@@@ OXXO @@@ @@@@ @@    @@@@XXXXXXXXXXo@@@ @@@@@@@@@@@ ",
" @oXXXXXXXo@ @@@@@@ OXXO @@   @@@@ @     @@@@XXXXXXXXX@@@@ @@@@@@@@@@@ ",
" @@XXXXXXX@@ @@@@@ OXXOO @@@@@@@@@ @@     @@@@XXXXXXX@@@@@ @@@@@@@@@@@ ",
" @@@XXXXX@@@ @@@@@ OXXO   @   @@@ O @@     @@@@XXXXX@@@@@@ @@@@@@@@@@@ ",
" @@@@XXX@@@@ @@@@@ OXX  O @@ @@@ OO @@@      @@@XXX@@@@@@@ @@@@@@@@@@@ ",
" @@@@@X@@@@@ @@@@@ OX O  O @@@@ OO   @@@       @@X@@@@@@@@ @@@@@@@@@@@ ",
" @@@@@@@@@@@ @@@@@ O @O   O    OO   O @@@      @@@@@@@@@@@ @@@@@@@@@@@ ",
" @@@@@@@@@@@ @@@@@  O@ O   OOOO    O @ @@@    @@@@  @  @@@ @@@@@@@@@@@ ",
" @@@@@@@@@@@ @@@@  O OX@O         OX@O   @@@ @@@@ OO OO @@ @@@@@@@@@@@ ",
" @@@@@@@@@@@ @@@ OOOO O@ OO    OOO @O        @@@@ OXXX @@@ @@@@@@@@@@@ ",
" @@@@@@@@@@@ @@   O  O OX@ OOOO @XOO    @@@@@ @@@@ OXOO @@ @@@@@@@@@@@ ",
" @@@@@@@@@@@ @ OOOOOOOO OOOX@ XOOO  @  @@ @ @  @    OO @ @ @@@@@@@@@@@ ",
" @@@@@@@@@@@     O   OO    OOOO    O  @ @@@@ XX OOO   O  @ @@@@@@@@@@@ ",
" @@@@@@@@@@@ OOOOOOOOO  @@     O   O  @@@@  XX OOO @@  O @ @@@@@@@@@@@ ",
" @@@@@@@@@@@    O    O @ @      O O  @ @  XX      @@@ OO @ @@@@@@@@@@@ ",
" @@@@@@@@@@@ OOOOOOOO  @    @@  O O  @@ XXX OOO @     O @@ @@@@@@@@@@@ ",
" @@@@@@@@@@@  O O   O   @  @@ @  O  @ @ XX OXXX @ X @  @@@ @@@@@@@@@@@ ",
" @@@@@@@@@@@ OOOOOOOO @ @ X  @@  O  @@ XX OXXOX  @  @  @@@ @@@@@@@@@@@ ",
" @@@@@@@@@@@   O O  O   @ OXX @@ O @ @ XX OXXX   @ @ @@ @@ @@@@@@@@@@@ ",
" @@@@@@@@@@@ OOOOOOOO  @  OOXX @   @@ XX OXXOX  @  @ @@ @@ @@@@@@@@@@@ ",
" @@@@@@@@@@@  O    O  @  O OOX     @@ XX OXXXX @   @@   @@ @@@@@@@@@@@ ",
" @@@@@@@@@@@ OOOOOOO  @  O  OX  OO    XX OXOXX @ @ @@@ X @ @@@@@@@@@@@ ",
" @@@@@@@@@@@  O  OO   @  OX OOX   OOO  X OXX   @   @  XXX  @@@@@@@@@@@ ",
" @@@@@@@@@@@ OOOOO X   @ OX OXX O    OO     XX  @   XXXXXX @@@@@@@@@@@ ",
" @@@@@@@@@@@    O XX @ @ O  OOX O OOO  OO XXXO @ @ XXXXXX  @@@@@@@@@@@ ",
" @@@@@@@@@@@ OOO XXX  @  O OOX O OXXXO   XXOOO   @ XXXX  O @@@@@@@@@@@ ",
" @@@@@@@@@@@ O  XXXX @   OOOXX   OXXXO O XOO O  @  XXX OOO @@@@@@@@@@@ ",
" @@@@@@@@@@@  XXXXXX @ @ OXXX OO  OOO O XOO  O @ @ XX O    @@@@@@@@@@@ ",
" @@@@@@@@@@@ XXXXXX   @  XX     OO    O XXO XO @   X OOOOO @@@@@@@@@@@ ",
" @@@@@@@@@@@  XXX  @   @   XXO X  OOO   XOO XO  @   OO  O  @@@@@@@@@@@ ",
" @@@@@@@@@@@ @ X @@@ @ @ XXOXO XX    OO  XO  O  @  OOOOOOO @@@@@@@@@@@ ",
" @@@@@@@@@@@ @@   @@   @ XXXXO XX @@     XOO O  @  O    O  @@@@@@@@@@@ ",
" @@@@@@@@@@@ @@ @@ @  @  XOXXO XX @@   @ XXOO  @  OOOOOOOO @@@@@@@@@@@ ",
" @@@@@@@@@@@ @@ @@ @ @   XXXO XX @ @ O @@ XXO @   O  O O   @@@@@@@@@@@ ",
" @@@@@@@@@@@ @@@  @  @  XOXXO XX @@  O  @@  X @ @ OOOOOOOO @@@@@@@@@@@ ",
" @@@@@@@@@@@ @@@  @ X @ XXXO XX @ @  O  @ @@  @   O   O O  @@@@@@@@@@@ ",
" @@@@@@@@@@@ @@ O     @ OOO XXX @@  O O  @@    @  OOOOOOOO @@@@@@@@@@@ ",
" @@@@@@@@@@@ @ OO @@@      XX  @ @  O O      @ @ O    O    @@@@@@@@@@@ ",
" @@@@@@@@@@@ @ O  @@ OOO XX  @@@@  O   O     @@  OOOOOOOOO @@@@@@@@@@@ ",
" @@@@@@@@@@@ @  O   OOO XX @@@@ @  O    OOOO    OO   O     @@@@@@@@@@@ ",
" @@@@@@@@@@@ @ @ OO    @  @ @ @@  @  OOOX @XOOO OOOOOOOO @ @@@@@@@@@@@ ",
" @@@@@@@@@@@ @@ OOXO @@@@ @@@@@    OOX@ OOOO @XO O  O   @@ @@@@@@@@@@@ ",
" @@@@@@@@@@@ @@@ XXXO @@@@        O@ OOO    OO @O OOOO @@@ @@@@@@@@@@@ ",
" @@@@@@@@@@@ @@ OO OO @@@@ @@@   O@XO         O@XO O  @@@@ @@@@@@@@@@@ ",
" @@@@@@@@@@@ @@@  @  @@@@    @@@ @ O    OOOO   O @O  @@@@@ @@@@@@@@@@@ ",
" @@@@@@@@@@@ @@@@@@@@@@@      @@@ O   OO    O   O@ O @@@@@ @@@@@@@@@@@ ",
" @@@@@@@@@@@ @@@@@@@@X@@       @@@   OO @@@@ O  O XO @@@@@ @@@@@X@@@@@ ",
" @@@@@@@@@@@ @@@@@@@XXX@@@      @@@ OO @@@ @@ O  XXO @@@@@ @@@@XXX@@@@ ",
" @@@@@@@@@@@ @@@@@@XXXXX@@@@     @@ O @@@   @   OXXO @@@@@ @@@XXXXX@@@ ",
" @@@@@@@@@@@ @@@@@XXXXXXX@@@@     @@ @@@@@@@@@ OOXXO @@@@@ @@XXXXXXX@@ ",
" @@@@@@@@@@@ @@@@XXXXXXXXX@@@@     @ @@@@   @@ OXXO @@@@@@ @oXXXXXXXo@ ",
" @@@@@@@@@@@ @@@oXXXXXXXXXX@@@@    @@ @@@@ @@@ OXXO @@@@@@ @XXXXXXXXX@ ",
" @@@@@@@@@@@ @@oXXXXXXXXXXXo@@@@    @ @@@@ @@@ OXXO @@@@@@ @XXXXXXXXX@ ",
" @@@@@@@@@@@ @@oXXXXXXXXXXXo@@@ X   @ @@@@ @@@ XXO  @@@@@@ @XXXX@XXXX@ ",
" @@@@@@@@@@@ @oXXXXXXXXXXXXXo@ OXX     @   @   XXO @@@@@@@ @@XXo@oXX@@ ",
" @@@@@@@@@@@ @XXXXXXXXXXXXXXX@ OOXX   @   @    XO  @@@@@@@ @@@@@@@@@@@ ",
" @@@@@@@@@@@ @XXXXXXXXXXXXXXX@@ OOX    @@@@@@@ XO @@@@@@@@ @@XX@@@@@@@ ",
" @@@@@@@@@@@ @XXXXXXXXXXXXXXX@@ OOXX  @  @@@@  O  @@@@@@@@ @@XXX@@@@@@ ",
" @@@@@@@@@@@ @XXXXXXX@XXXXXXX@@ O OX   @@ @@ @ O @@@@@@@@@ @@@XXXXX@@@ ",
" @@@@@@@@@@@ @@XXXXXo@oXXXXX@@ OOOOX   @@@  @    @@@@@@@@@ @@XXXXXXX@@ ",
" @@@@@@@@@@@ @@@XXXo@@@oXXX@@@ OO OX   @ @ @ @  @@@@@@@@@@ @@XX@@@XX@@ ",
" @@@@@@@@@@@ @@@@@@@@@@@@@@@@ OOOOOX   @@ @ @  @@@@@@@@@@@ @@XX@@@XX@@ ",
" @@@@@@@@@@@                                               @@XX@@@XX@@ ",
" @@@@@@@@@@@@@@@@@@@@@@@@@@@@@@@@@@@@@@@@@@@@@@@@@@@@@@@@@@@@XX@@@XX@@ ",
" @@@@@@@@@@@@@@@@@@@@@@@@@@@@@@@@@@@@@@@@@@@@@@@@@@@@@@@@@@@@XX@@@XX@@ ",
" @@@@@@@@@@@@@@@@@@@@@@@@@@@@@@@@@@@@@@@@@@@@@@@@@@@@@@@@@@@@XX@@@XX@@ ",
" @@@@@@@@@@@@@@@@@@@@@@@@@@@@@@@@@@@@@@@@@@@@@@@@@@@@@@@@@@@@XX@@@XX@@ ",
" @@@@@@@@@@@@@@@@@@@@@@@@@@@@@@@@@@@@@@@@@@@@@@@@@@@@@@@@@@@@XX@@@XX@@ ",
" @@@@@@@@@@@@@@@@@@@@@@@@@@@@@@@@@@@@@@@@@@@@@@@@@@@@@@@@@@@@XXXXXXX@@ ",
" @@@@@@@@@@@@@@@@@@@@@@@@@@@@@@@@@@@@@@@@@@@@@@@@@@@@@@@@@@@@@XXXXX@@@ ",
" @@@@@@@@@@@@@@@@@@@@@@@@@@@@@@@@@@@@@@@@@@@@@@@@@@@@@@@@@@@@@@@@@@@@@ ",
" @@@@@@@@@@@@@@@@@@@@@@@@@@@@@@@@@@@@@@@@@@@@@@@@@@@@@@@@@@@@@@@@@@@@@ ",
" +@@@@@@@@@@@@@@@@@@@@@@@@@@@@@@@@@@@@@@@@@@@@@@@@@@@@@@@@@@@@@@@@@@@+ ",
".                                                                     ."
};
