/* XPM */
static char *jb[] = {
/* columns rows colors chars-per-pixel */
"71 96 4 1",
"  c black",
". c #008000",
"X c #808080",
"o c white",
/* pixels */
".                                                                     .",
" XoooooooooooooooooooooooooooooooooooooooooooooooooooooooooooooooooooX ",
" ooooooooooooooooooooooooooooooooooooooooooooooooooooooooooooooooooooo ",
" ooooooooooooooooooooooooooooooooooooooooooooooooooooooooooooooooooooo ",
" ooooo    ooooooo  ooooooooooooooooooooooooooooooooooooooooooooooooooo ",
" ooooo    ooooooo  ooooooooooooooooooooooooooooooooooooooooooooooooooo ",
" oooooo  oo    oo  oo  oo    oo     oooooooooooooooooooooooooooooooooo ",
" oooooo  o      o  o   o      o      ooooooooooooooooooooooooooooooooo ",
" oooooo  o  oo  o     oo  oo  o  oo  ooooooooooooooooooooooooooooooooo ",
" oooooo  o  oo  o    ooo      o  ooooooooooooooooooooooooooooooooooooo ",
" oooooo  o  oo  o    ooo     oo  oooooooooooooooooooo     oooooooooooo ",
" oooooo  o  oo  o     oo  ooooo  oooooooooooooooooo        ooooooooooo ",
" oo  oo  o      o  o   o      o  oooo     oooooooo     oooo oooooooooo ",
" oo  oo  oo    oo  oo  oo    oo  ooo        ooooo    ooooooooooooooooo ",
" oo      oooooooooooooooooooooooooo          ooo    oooooooooooooooooo ",
" ooo    oooooooooooooooooooooooooo  oooo      o     oooooooooooooooooo ",
" ooooooooooooooooooooooooooooooo  oooooooo         ooooooooooooooooooo ",
" oooooooooooooooooooooooooooooooooooooooooo        ooooooooooooooooooo ",
" ooooooooooooooo oooooooooooooooooooooooooo              ooooooooooooo ",
" ooooooooooooooo oooooooooooooooooooooooooo                ooooooooooo ",
" oooooooooo       ooooooooooooooooooooooooo                 oooooooooo ",
" ooooooooooo oooo  ooooooooooooooooooooooo ooo      ooooo    ooooooooo ",
" oooooooooooo      oooooooooooooooooooooo oo  oo   oooooooo   oooooooo ",
" ooooooooooooooooo  ooooooooooooooooooooo ooo ooo ooooooooooo oooooooo ",
" ooooooooooooooooo   oooooooooooooooooooo o ooo   oooooooooooo ooooooo ",
" oooooooooooooooooo  oooooooooooooooooooo oo ooo  oooooooooooooooooooo ",
" oooooooooooooooooo   ooooooooooooooooooo oo o  o oooooooooooooooooooo ",
" oooooooooooooooooo   ooooooooooooooooooo  oo ooo oooooooooooooooooooo ",
" ooooooooooooooooooo   oooooooooooooooo     oooo ooooooooooooooooooooo ",
" ooooooooooooooooooo   oooooooooooo             oooooooooooooooooooooo ",
" ooooooooooooooooooo    oooooooo            oooooooooooooooooooooooooo ",
" oooooooooooooooooooo   oooooo              oooooooooooooooooooooooooo ",
" oooooooooooooooooooo    ooo                 ooooooooooooooooooooooooo ",
" oooooooooooooooooooo                        ooooooooooooooooooooooooo ",
" ooooooooooooooooooooo            o           oooooooooooooooooooooooo ",
" ooooooooooooooooooooo        oooo            oooooooooooooooooooooooo ",
" oooooooooooooooooooooo   oooooooo        o   oooooooooooooooooooooooo ",
" oooooooooooooooooooooooooooooooo        oo    ooooooooooooooo ooooooo ",
" oooooooooooooooooooooooooooooooo        ooo   oooooooooooooo  ooooooo ",
" ooooooooooooooooooooooooooooooo        oooo    ooooooooooo  o   ooooo ",
" oooooooooooooooooooooooooooooo         ooooo   oooooooooo        oooo ",
" oooooooooooooooooooooooooooooo        oooooo    ooooo     ooooooooooo ",
" ooooooooooooooooooooooooooooo         ooooooo   oo      ooooooooooooo ",
" oooooooooooooooooooooooooooo         oooooooo         ooooooooooooooo ",
" oooooooooooooooooooooooooooo         ooooooooo      ooooooooooooooooo ",
" ooooooooooooooooooooooooooo         oooooooooo    ooooooooooooooooooo ",
" oooooooooooooooooooooooooo          ooooooooooo ooooooooooooooooooooo ",
" oooooooooooooooooooooooooo         oooooooooooooooooooooooooooooooooo ",
" ooooooooooooooooooooooooo          oooooooooooooooooooooooooooooooooo ",
" oooooooooooooooooooooooo          ooooooooooooooooooooooooooooooooooo ",
" oooooooooooooooooooooo            ooooooooooooooooooooooooooooooooooo ",
" ooooooooooooooooooooo              oooooooooooooooooooooooooooooooooo ",
" oooooooooooooooooooo               oooooooooooooooooooooooooooooooooo ",
" oooooooooooooooooo         ooo      ooooooooooooooooooooooooooooooooo ",
" ooooooooooooooooo       oooooo      ooooooooooooooooooooooooooooooooo ",
" oooooooooooooooo      ooooooooo      oooooooooooooooooooooooooooooooo ",
" oooooooooooooo      oooooooooooo     oooooooooooooooooooooooooooooooo ",
" ooooooooooooo     oooooooooooooo      ooooooooooooooooooooooooooooooo ",
" oooooooooooo     oooooooooooooooo     ooooooooooooooooooooooooooooooo ",
" ooooooooooooo    oooooooooooooooo      oooooooooooooooooooooooooooooo ",
" ooooooooooooo     oooooooooooooooo     oooooooooooooooooooooooooooooo ",
" oooooooooooooo    ooooooooooooooooo     ooooooooooooooooooooooooooooo ",
" ooooooooooooooo    oooooooooooooooo     ooooooooooooooooooooooooooooo ",
" ooooooooooooooo    ooooooooooooooooo    ooooooooooooooooooooooooooooo ",
" oooooooooooooooo    oooooooooooooooo    ooooooooooooooooooooooooooooo ",
" ooooooooooooooooo   oooooooooooooooo    ooooooooooooooooooooooooooooo ",
" oooooooooooooooooo   ooooooooooooooo    ooooooooooooooooooooooooooooo ",
" ooooooooooooooooooo  ooooooooooooooo    ooooooooooooooooooooooooooooo ",
" oooooooooooooooooooo  oooooooooooooo   oooooooooooooooooooooooooooooo ",
" oooooooooooooooooooo  oooooooooooooo   oooooooooooooooooooooooooooooo ",
" ooooooooooooooooooooo  ooooooooooooo   oooooooooooooooooooooooooooooo ",
" oooooooooooooooooooooo ooooooooooooo   oooooooooooooooooooooooooooooo ",
" oooooooooooooooooooooo  oooooooooooo   ooooooooooooo     oooooooooooo ",
" oooooooooooooooooooo     ooooooooooo   oooo            oooooooooooooo ",
" ooooooooooooooooo        ooooooooooo               oooooooooooooooooo ",
" oooooooooooooo        oooooooooooooo           oooooooooooooooooooooo ",
" ooooooooooo       oooooooooooooooooo       oooooooooooooooooooooooooo ",
" oooooooo      oooooooooooooooooooooo   oooooooooooooooooooooooooooooo ",
" oooooo    oooooooooooooooooooooooooo  ooooooooooooooooooooooooooooooo ",
" ooooooooooooooooooooooooooooooooooooooooooooooooooooooooooooooooooooo ",
" oooooooooooooooooooooooooooooooooooooooooooooooooooooooooooooo    ooo ",
" ooooooooooooooooooooooooooooooooooooooooooooooooooooooooooooo      oo ",
" ooooooooooooooooooooooooooooooooooooo  oo    oo  oo  oo    oo  oo  oo ",
" ooooooooooooooooooooooooooooooooooooo  o      o   o  o      o  oo  oo ",
" ooooooooooooooooooooooooooooooooooooo  ooooo  oo     o  oo  o  oooooo ",
" ooooooooooooooooooooooooooooooooooooo  oo     ooo    o  oo  o  oooooo ",
" ooooooooooooooooooooooooooooooooooooo  o      ooo    o  oo  o  oooooo ",
" ooooooooooooooooooooooooooooooooo  oo  o  oo  oo     o  oo  o  oooooo ",
" ooooooooooooooooooooooooooooooooo      o      o   o  o      o  oooooo ",
" oooooooooooooooooooooooooooooooooo     oo    oo  oo  oo    oo  oooooo ",
" ooooooooooooooooooooooooooooooooooooooooooooooooooo  ooooooo    ooooo ",
" ooooooooooooooooooooooooooooooooooooooooooooooooooo  ooooooo    ooooo ",
" ooooooooooooooooooooooooooooooooooooooooooooooooooooooooooooooooooooo ",
" Xoooooooooooooooooooooooooooooooooooooooooooooooooooooooooooooooooooo ",
" ooooooooooooooooooooooooooooooooooooooooooooooooooooooooooooooooooooX ",
".                                                                     ."
};
