/* XPM */
static char *jr[] = {
/* columns rows colors chars-per-pixel */
"71 96 5 1",
"  c black",
". c #008000",
"X c red",
"o c #808080",
"O c white",
/* pixels */
".                                                                     .",
" oOOOOOOOOOOOOOOOOOOOOOOOOOOOOOOOOOOOOOOOOOOOOOOOOOOOOOOOOOOOOOOOOOOOo ",
" OOOOOOOOOOOOOOOOOOOOOOOOOOOOOOOOOOOOOOOOOOOOOOOOOOOOOOOOOOOOOOOOOOOOO ",
" OOOOOOOOOOOOOOOOOOOOOOOOOOOOOOOOOOOOOOOOOOOOOOOOOOOOOOOOOOOOOOOOOOOOO ",
" OOOOOXXXXOOOOOOOXXOOOOOOOOOOOOOOOOOOOOOOOOOOOOOOOOOOOOOOOOOOOOOOOOOOO ",
" OOOOOXXXXOOOOOOOXXOOOOOOOOOOOOOOOOOOOOOOOOOOOOOOOOOOOOOOOOOOOOOOOOOOO ",
" OOOOOOXXOOXXXXOOXXOOXXOOXXXXOOXXXXXOOOOOOOOOOOOOOOOOOOOOOOOOOOOOOOOOO ",
" OOOOOOXXOXXXXXXOXXOXXXOXXXXXXOXXXXXXOOOOOOOOOOOOOOOOOOOOOOOOOOOOOOOOO ",
" OOOOOOXXOXXOOXXOXXXXXOOXXOOXXOXXOOXXOOOOOOOOOOOOOOOOOOOOOOOOOOOOOOOOO ",
" OOOOOOXXOXXOOXXOXXXXOOOXXXXXXOXXOOOOOOOOOOOOOOOOOOOOOOOOOOOOOOOOOOOOO ",
" OOOOOOXXOXXOOXXOXXXXOOOXXXXXOOXXOOOOOOOOOOOOOOOOOOOOXXXXXOOOOOOOOOOOO ",
" OOOOOOXXOXXOOXXOXXXXXOOXXOOOOOXXOOOOOOOOOOOOOOOOOOXXXXXXXXOOOOOOOOOOO ",
" OOXXOOXXOXXXXXXOXXOXXXOXXXXXXOXXOOOOXXXXXOOOOOOOOXXXXXOOOOXOOOOOOOOOO ",
" OOXXOOXXOOXXXXOOXXOOXXOOXXXXOOXXOOOXXXXXXXXOOOOOXXXXOOOOOOOOOOOOOOOOO ",
" OOXXXXXXOOOOOOOOOOOOOOOOOOOOOOOOOOXXXXXXXXXXOOOXXXXOOOOOOOOOOOOOOOOOO ",
" OOOXXXXOOOOOOOOOOOOOOOOOOOOOOOOOOXXOOOOXXXXXXOXXXXXOOOOOOOOOOOOOOOOOO ",
" OOOOOOOOOOOOOOOOOOOOOOOOOOOOOOOXXOOOOOOOOXXXXXXXXXOOOOOOOOOOOOOOOOOOO ",
" OOOOOOOOOOOOOOOOOOOOOOOOOOOOOOOOOOOOOOOOOOXXXXXXXXOOOOOOOOOOOOOOOOOOO ",
" OOOOOOOOOOOOOOOXOOOOOOOOOOOOOOOOOOOOOOOOOOXXXXXXXXXXXXXXOOOOOOOOOOOOO ",
" OOOOOOOOOOOOOOOXOOOOOOOOOOOOOOOOOOOOOOOOOOXXXXXXXXXXXXXXXXOOOOOOOOOOO ",
" OOOOOOOOOOXXXXXXXOOOOOOOOOOOOOOOOOOOOOOOOOXXXXXXXXXXXXXXXXXOOOOOOOOOO ",
" OOOOOOOOOOOXOOOOXXOOOOOOOOOOOOOOOOOOOOOOOXOOOXXXXXXOOOOOXXXXOOOOOOOOO ",
" OOOOOOOOOOOOXXXXXXOOOOOOOOOOOOOOOOOOOOOOXOOXXOOXXXOOOOOOOOXXXOOOOOOOO ",
" OOOOOOOOOOOOOOOOOXXOOOOOOOOOOOOOOOOOOOOOXOOOXOOOXOOOOOOOOOOOXOOOOOOOO ",
" OOOOOOOOOOOOOOOOOXXXOOOOOOOOOOOOOOOOOOOOXOXOOOXXXOOOOOOOOOOOOXOOOOOOO ",
" OOOOOOOOOOOOOOOOOOXXOOOOOOOOOOOOOOOOOOOOXOOXOOOXXOOOOOOOOOOOOOOOOOOOO ",
" OOOOOOOOOOOOOOOOOOXXXOOOOOOOOOOOOOOOOOOOXOOXOXXOXOOOOOOOOOOOOOOOOOOOO ",
" OOOOOOOOOOOOOOOOOOXXXOOOOOOOOOOOOOOOOOOOXXOOXOOOXOOOOOOOOOOOOOOOOOOOO ",
" OOOOOOOOOOOOOOOOOOOXXXOOOOOOOOOOOOOOOOXXXXXOOOOXOOOOOOOOOOOOOOOOOOOOO ",
" OOOOOOOOOOOOOOOOOOOXXXOOOOOOOOOOOOXXXXXXXXXXXXXOOOOOOOOOOOOOOOOOOOOOO ",
" OOOOOOOOOOOOOOOOOOOXXXXOOOOOOOOXXXXXXXXXXXXOOOOOOOOOOOOOOOOOOOOOOOOOO ",
" OOOOOOOOOOOOOOOOOOOOXXXOOOOOOXXXXXXXXXXXXXXOOOOOOOOOOOOOOOOOOOOOOOOOO ",
" OOOOOOOOOOOOOOOOOOOOXXXXOOOXXXXXXXXXXXXXXXXXOOOOOOOOOOOOOOOOOOOOOOOOO ",
" OOOOOOOOOOOOOOOOOOOOXXXXXXXXXXXXXXXXXXXXXXXXOOOOOOOOOOOOOOOOOOOOOOOOO ",
" OOOOOOOOOOOOOOOOOOOOOXXXXXXXXXXXXOXXXXXXXXXXXOOOOOOOOOOOOOOOOOOOOOOOO ",
" OOOOOOOOOOOOOOOOOOOOOXXXXXXXXOOOOXXXXXXXXXXXXOOOOOOOOOOOOOOOOOOOOOOOO ",
" OOOOOOOOOOOOOOOOOOOOOOXXXOOOOOOOOXXXXXXXXOXXXOOOOOOOOOOOOOOOOOOOOOOOO ",
" OOOOOOOOOOOOOOOOOOOOOOOOOOOOOOOOXXXXXXXXOOXXXXOOOOOOOOOOOOOOOXOOOOOOO ",
" OOOOOOOOOOOOOOOOOOOOOOOOOOOOOOOOXXXXXXXXOOOXXXOOOOOOOOOOOOOOXXOOOOOOO ",
" OOOOOOOOOOOOOOOOOOOOOOOOOOOOOOOXXXXXXXXOOOOXXXXOOOOOOOOOOOXXOXXXOOOOO ",
" OOOOOOOOOOOOOOOOOOOOOOOOOOOOOOXXXXXXXXXOOOOOXXXOOOOOOOOOOXXXXXXXXOOOO ",
" OOOOOOOOOOOOOOOOOOOOOOOOOOOOOOXXXXXXXXOOOOOOXXXXOOOOOXXXXXOOOOOOOOOOO ",
" OOOOOOOOOOOOOOOOOOOOOOOOOOOOOXXXXXXXXXOOOOOOOXXXOOXXXXXXOOOOOOOOOOOOO ",
" OOOOOOOOOOOOOOOOOOOOOOOOOOOOXXXXXXXXXOOOOOOOOXXXXXXXXXOOOOOOOOOOOOOOO ",
" OOOOOOOOOOOOOOOOOOOOOOOOOOOOXXXXXXXXXOOOOOOOOOXXXXXXOOOOOOOOOOOOOOOOO ",
" OOOOOOOOOOOOOOOOOOOOOOOOOOOXXXXXXXXXOOOOOOOOOOXXXXOOOOOOOOOOOOOOOOOOO ",
" OOOOOOOOOOOOOOOOOOOOOOOOOOXXXXXXXXXXOOOOOOOOOOOXOOOOOOOOOOOOOOOOOOOOO ",
" OOOOOOOOOOOOOOOOOOOOOOOOOOXXXXXXXXXOOOOOOOOOOOOOOOOOOOOOOOOOOOOOOOOOO ",
" OOOOOOOOOOOOOOOOOOOOOOOOOXXXXXXXXXXOOOOOOOOOOOOOOOOOOOOOOOOOOOOOOOOOO ",
" OOOOOOOOOOOOOOOOOOOOOOOOXXXXXXXXXXOOOOOOOOOOOOOOOOOOOOOOOOOOOOOOOOOOO ",
" OOOOOOOOOOOOOOOOOOOOOOXXXXXXXXXXXXOOOOOOOOOOOOOOOOOOOOOOOOOOOOOOOOOOO ",
" OOOOOOOOOOOOOOOOOOOOOXXXXXXXXXXXXXXOOOOOOOOOOOOOOOOOOOOOOOOOOOOOOOOOO ",
" OOOOOOOOOOOOOOOOOOOOXXXXXXXXXXXXXXXOOOOOOOOOOOOOOOOOOOOOOOOOOOOOOOOOO ",
" OOOOOOOOOOOOOOOOOOXXXXXXXXXOOOXXXXXXOOOOOOOOOOOOOOOOOOOOOOOOOOOOOOOOO ",
" OOOOOOOOOOOOOOOOOXXXXXXXOOOOOOXXXXXXOOOOOOOOOOOOOOOOOOOOOOOOOOOOOOOOO ",
" OOOOOOOOOOOOOOOOXXXXXXOOOOOOOOOXXXXXXOOOOOOOOOOOOOOOOOOOOOOOOOOOOOOOO ",
" OOOOOOOOOOOOOOXXXXXXOOOOOOOOOOOOXXXXXOOOOOOOOOOOOOOOOOOOOOOOOOOOOOOOO ",
" OOOOOOOOOOOOOXXXXXOOOOOOOOOOOOOOXXXXXXOOOOOOOOOOOOOOOOOOOOOOOOOOOOOOO ",
" OOOOOOOOOOOOXXXXXOOOOOOOOOOOOOOOOXXXXXOOOOOOOOOOOOOOOOOOOOOOOOOOOOOOO ",
" OOOOOOOOOOOOOXXXXOOOOOOOOOOOOOOOOXXXXXXOOOOOOOOOOOOOOOOOOOOOOOOOOOOOO ",
" OOOOOOOOOOOOOXXXXXOOOOOOOOOOOOOOOOXXXXXOOOOOOOOOOOOOOOOOOOOOOOOOOOOOO ",
" OOOOOOOOOOOOOOXXXXOOOOOOOOOOOOOOOOOXXXXXOOOOOOOOOOOOOOOOOOOOOOOOOOOOO ",
" OOOOOOOOOOOOOOOXXXXOOOOOOOOOOOOOOOOXXXXXOOOOOOOOOOOOOOOOOOOOOOOOOOOOO ",
" OOOOOOOOOOOOOOOXXXXOOOOOOOOOOOOOOOOOXXXXOOOOOOOOOOOOOOOOOOOOOOOOOOOOO ",
" OOOOOOOOOOOOOOOOXXXXOOOOOOOOOOOOOOOOXXXXOOOOOOOOOOOOOOOOOOOOOOOOOOOOO ",
" OOOOOOOOOOOOOOOOOXXXOOOOOOOOOOOOOOOOXXXXOOOOOOOOOOOOOOOOOOOOOOOOOOOOO ",
" OOOOOOOOOOOOOOOOOOXXXOOOOOOOOOOOOOOOXXXXOOOOOOOOOOOOOOOOOOOOOOOOOOOOO ",
" OOOOOOOOOOOOOOOOOOOXXOOOOOOOOOOOOOOOXXXXOOOOOOOOOOOOOOOOOOOOOOOOOOOOO ",
" OOOOOOOOOOOOOOOOOOOOXXOOOOOOOOOOOOOOXXXOOOOOOOOOOOOOOOOOOOOOOOOOOOOOO ",
" OOOOOOOOOOOOOOOOOOOOXXOOOOOOOOOOOOOOXXXOOOOOOOOOOOOOOOOOOOOOOOOOOOOOO ",
" OOOOOOOOOOOOOOOOOOOOOXXOOOOOOOOOOOOOXXXOOOOOOOOOOOOOOOOOOOOOOOOOOOOOO ",
" OOOOOOOOOOOOOOOOOOOOOOXOOOOOOOOOOOOOXXXOOOOOOOOOOOOOOOOOOOOOOOOOOOOOO ",
" OOOOOOOOOOOOOOOOOOOOOOXXOOOOOOOOOOOOXXXOOOOOOOOOOOOOXXXXXOOOOOOOOOOOO ",
" OOOOOOOOOOOOOOOOOOOOXXXXXOOOOOOOOOOOXXXOOOOXXXXXXXXXXXXOOOOOOOOOOOOOO ",
" OOOOOOOOOOOOOOOOOXXXXXXXXOOOOOOOOOOOXXXXXXXXXXXXXXXOOOOOOOOOOOOOOOOOO ",
" OOOOOOOOOOOOOOXXXXXXXXOOOOOOOOOOOOOOXXXXXXXXXXXOOOOOOOOOOOOOOOOOOOOOO ",
" OOOOOOOOOOOXXXXXXXOOOOOOOOOOOOOOOOOOXXXXXXXOOOOOOOOOOOOOOOOOOOOOOOOOO ",
" OOOOOOOOXXXXXXOOOOOOOOOOOOOOOOOOOOOOXXXOOOOOOOOOOOOOOOOOOOOOOOOOOOOOO ",
" OOOOOOXXXXOOOOOOOOOOOOOOOOOOOOOOOOOOXXOOOOOOOOOOOOOOOOOOOOOOOOOOOOOOO ",
" OOOOOOOOOOOOOOOOOOOOOOOOOOOOOOOOOOOOOOOOOOOOOOOOOOOOOOOOOOOOOOOOOOOOO ",
" OOOOOOOOOOOOOOOOOOOOOOOOOOOOOOOOOOOOOOOOOOOOOOOOOOOOOOOOOOOOOOXXXXOOO ",
" OOOOOOOOOOOOOOOOOOOOOOOOOOOOOOOOOOOOOOOOOOOOOOOOOOOOOOOOOOOOOXXXXXXOO ",
" OOOOOOOOOOOOOOOOOOOOOOOOOOOOOOOOOOOOOXXOOXXXXOOXXOOXXOOXXXXOOXXOOXXOO ",
" OOOOOOOOOOOOOOOOOOOOOOOOOOOOOOOOOOOOOXXOXXXXXXOXXXOXXOXXXXXXOXXOOXXOO ",
" OOOOOOOOOOOOOOOOOOOOOOOOOOOOOOOOOOOOOXXOOOOOXXOOXXXXXOXXOOXXOXXOOOOOO ",
" OOOOOOOOOOOOOOOOOOOOOOOOOOOOOOOOOOOOOXXOOXXXXXOOOXXXXOXXOOXXOXXOOOOOO ",
" OOOOOOOOOOOOOOOOOOOOOOOOOOOOOOOOOOOOOXXOXXXXXXOOOXXXXOXXOOXXOXXOOOOOO ",
" OOOOOOOOOOOOOOOOOOOOOOOOOOOOOOOOOXXOOXXOXXOOXXOOXXXXXOXXOOXXOXXOOOOOO ",
" OOOOOOOOOOOOOOOOOOOOOOOOOOOOOOOOOXXXXXXOXXXXXXOXXXOXXOXXXXXXOXXOOOOOO ",
" OOOOOOOOOOOOOOOOOOOOOOOOOOOOOOOOOOXXXXXOOXXXXOOXXOOXXOOXXXXOOXXOOOOOO ",
" OOOOOOOOOOOOOOOOOOOOOOOOOOOOOOOOOOOOOOOOOOOOOOOOOOOXXOOOOOOOXXXXOOOOO ",
" OOOOOOOOOOOOOOOOOOOOOOOOOOOOOOOOOOOOOOOOOOOOOOOOOOOXXOOOOOOOXXXXOOOOO ",
" OOOOOOOOOOOOOOOOOOOOOOOOOOOOOOOOOOOOOOOOOOOOOOOOOOOOOOOOOOOOOOOOOOOOO ",
" OOOOOOOOOOOOOOOOOOOOOOOOOOOOOOOOOOOOOOOOOOOOOOOOOOOOOOOOOOOOOOOOOOOOO ",
" oOOOOOOOOOOOOOOOOOOOOOOOOOOOOOOOOOOOOOOOOOOOOOOOOOOOOOOOOOOOOOOOOOOOo ",
".                                                                     ."
};
