/* XPM */
static char *s1[] = {
/* columns rows colors chars-per-pixel */
"71 96 4 1",
"  c black",
". c #008000",
"X c #808080",
"o c white",
/* pixels */
".                                                                     .",
" XoooooooooooooooooooooooooooooooooooooooooooooooooooooooooooooooooooX ",
" ooooooooooooooooooooooooooooooooooooooooooooooooooooooooooooooooooooo ",
" ooooooooooooooooooooooooooooooooooooooooooooooooooooooooooooooooooooo ",
" oooooo oooooooooooooooooooooooooooooooooooooooooooooooooooooooooooooo ",
" oooooo oooooooooooooooooooooooooooooooooooooooooooooooooooooooooooooo ",
" ooooo   ooooooooooooooooooooooooooooooooooooooooooooooooooooooooooooo ",
" ooooo   ooooooooooooooooooooooooooooooooooooooooooooooooooooooooooooo ",
" oooo  o  oooooooooooooooooooooooooooooooooooooooooooooooooooooooooooo ",
" oooo  o  oooooooooooooooooooooooooooooooooooooooooooooooooooooooooooo ",
" ooo  ooo  ooooooooooooooooooooooooooooooooooooooooooooooooooooooooooo ",
" ooo       ooooooooooooooooooooooooooooooooooooooooooooooooooooooooooo ",
" oo         oooooooooooooooooooooooooooooooooooooooooooooooooooooooooo ",
" oo  ooooo  oooooooooooooooooooooooooooooooooooooooooooooooooooooooooo ",
" o    ooo    ooooooooooooooooooooooooooooooooooooooooooooooooooooooooo ",
" o    ooo    ooooooooooooooooooooooooooooooooooooooooooooooooooooooooo ",
" ooooooooooooooooooooooooooooooooooooooooooooooooooooooooooooooooooooo ",
" ooooooooooooooooooooooooooooooooooooooooooooooooooooooooooooooooooooo ",
" ooooooooooooooooooooooooooooooooooooooooooooooooooooooooooooooooooooo ",
" oooooo oooooooooooooooooooooooooooooooooooooooooooooooooooooooooooooo ",
" ooooo   ooooooooooooooooooooooooooooooooooooooooooooooooooooooooooooo ",
" oooo     oooooooooooooooooooooooooooooooooooooooooooooooooooooooooooo ",
" ooo       ooooooooooooooooooooooooooooooooooooooooooooooooooooooooooo ",
" oo         oooooooooooooooooooooooooooooooooooooooooooooooooooooooooo ",
" oo         oooooooooooooooooooooooooooooooooooooooooooooooooooooooooo ",
" oo         oooooooooooooooooooooooo ooooooooooooooooooooooooooooooooo ",
" ooo  o o  oooooooooooooooooooooooo   oooooooooooooooooooooooooooooooo ",
" ooooo   ooooooooooooooooooooooooo     ooooooooooooooooooooooooooooooo ",
" ooooo   oooooooooooooooooooooooo       oooooooooooooooooooooooooooooo ",
" ooooooooooooooooooooooooooooooo    o    ooooooooooooooooooooooooooooo ",
" oooooooooooooooooooooooooooooo    o o    oooooooooooooooooooooooooooo ",
" ooooooooooooooooooooooooooooo    o   o    ooooooooooooooooooooooooooo ",
" oooooooooooooooooooooooooooo    o     o    oooooooooooooooooooooooooo ",
" ooooooooooooooooooooooooooo    o       o    ooooooooooooooooooooooooo ",
" oooooooooooooooooooooooooo    o    o    o    oooooooooooooooooooooooo ",
" ooooooooooooooooooooooooo    o    o o    o    ooooooooooooooooooooooo ",
" oooooooooooooooooooooooo    o    o   o    o    oooooooooooooooooooooo ",
" ooooooooooooooooooooooo    o    o  o  o    o    ooooooooooooooooooooo ",
" oooooooooooooooooooooo    o    o  o o  o    o    oooooooooooooooooooo ",
" ooooooooooooooooooooo    o    o  o   o  o    o    ooooooooooooooooooo ",
" oooooooooooooooooooo    o    o   o   o   o    o    oooooooooooooooooo ",
" ooooooooooooooooooo    o    o     o o     o    o    ooooooooooooooooo ",
" oooooooooooooooooo    o      o     o     o      o    oooooooooooooooo ",
" oooooooooooooooooo   o        o   o o   o        o   oooooooooooooooo ",
" ooooooooooooooooo    o   o     o o   o o     o   o    ooooooooooooooo ",
" ooooooooooooooooo   o     o  o  o  o  o  o  o     o   ooooooooooooooo ",
" ooooooooooooooooo   o     o    o o   o o    o     o   ooooooooooooooo ",
" oooooooooooooooo   o    oo    o   o o   o    oo    o   oooooooooooooo ",
" oooooooooooooooo   o   o     o     o     o     o   o   oooooooooooooo ",
" oooooooooooooooo   o   o    o             o    o   o   oooooooooooooo ",
" oooooooooooooooo   o   o   o     o   o     o   o   o   oooooooooooooo ",
" oooooooooooooooo   o    ooo     o o o o     ooo    o   oooooooooooooo ",
" oooooooooooooooo   o           o   o   o           o   oooooooooooooo ",
" oooooooooooooooo   o          o         o          o   oooooooooooooo ",
" oooooooooooooooo    o        o           o        o    oooooooooooooo ",
" ooooooooooooooooo   oo     oo    o   o    oo     oo   ooooooooooooooo ",
" ooooooooooooooooo     ooooo     oo   oo     ooooo     ooooooooooooooo ",
" oooooooooooooooooo             ooo   ooo             oooooooooooooooo ",
" ooooooooooooooooooo           ooo     ooo           ooooooooooooooooo ",
" ooooooooooooooooooooo       ooooo     ooooo       ooooooooooooooooooo ",
" oooooooooooooooooooooooooooooooo       oooooooooooooooooooooooooooooo ",
" oooooooooooooooooooooooooooooooo       oooooooooooooooooooooooooooooo ",
" ooooooooooooooooooooooooooooooo         ooooooooooooooooooooooooooooo ",
" oooooooooooooooooooooooooooooo           oooooooooooooooooooooooooooo ",
" ooooooooooooooooooooooooooooooooooooooooooooooooooooooooooooooooooooo ",
" ooooooooooooooooooooooooooooooooooooooooooooooooooooooooooooooooooooo ",
" ooooooooooooooooooooooooooooooooooooooooooooooooooooooooooooooooooooo ",
" ooooooooooooooooooooooooooooooooooooooooooooooooooooooooooooo   ooooo ",
" oooooooooooooooooooooooooooooooooooooooooooooooooooooooooooooo oooooo ",
" ooooooooooooooooooooooooooooooooooooooooooooooooooooooooooo  o o  ooo ",
" oooooooooooooooooooooooooooooooooooooooooooooooooooooooooo         oo ",
" oooooooooooooooooooooooooooooooooooooooooooooooooooooooooo         oo ",
" oooooooooooooooooooooooooooooooooooooooooooooooooooooooooo         oo ",
" ooooooooooooooooooooooooooooooooooooooooooooooooooooooooooo       ooo ",
" oooooooooooooooooooooooooooooooooooooooooooooooooooooooooooo     oooo ",
" ooooooooooooooooooooooooooooooooooooooooooooooooooooooooooooo   ooooo ",
" oooooooooooooooooooooooooooooooooooooooooooooooooooooooooooooo oooooo ",
" ooooooooooooooooooooooooooooooooooooooooooooooooooooooooooooooooooooo ",
" ooooooooooooooooooooooooooooooooooooooooooooooooooooooooooooooooooooo ",
" ooooooooooooooooooooooooooooooooooooooooooooooooooooooooooooooooooooo ",
" oooooooooooooooooooooooooooooooooooooooooooooooooooooooo    ooo    oo ",
" oooooooooooooooooooooooooooooooooooooooooooooooooooooooo    ooo    oo ",
" ooooooooooooooooooooooooooooooooooooooooooooooooooooooooo  ooooo  ooo ",
" ooooooooooooooooooooooooooooooooooooooooooooooooooooooooo         ooo ",
" oooooooooooooooooooooooooooooooooooooooooooooooooooooooooo       oooo ",
" oooooooooooooooooooooooooooooooooooooooooooooooooooooooooo  ooo  oooo ",
" ooooooooooooooooooooooooooooooooooooooooooooooooooooooooooo  o  ooooo ",
" ooooooooooooooooooooooooooooooooooooooooooooooooooooooooooo  o  ooooo ",
" oooooooooooooooooooooooooooooooooooooooooooooooooooooooooooo   oooooo ",
" oooooooooooooooooooooooooooooooooooooooooooooooooooooooooooo   oooooo ",
" ooooooooooooooooooooooooooooooooooooooooooooooooooooooooooooo ooooooo ",
" ooooooooooooooooooooooooooooooooooooooooooooooooooooooooooooo ooooooo ",
" ooooooooooooooooooooooooooooooooooooooooooooooooooooooooooooooooooooo ",
" ooooooooooooooooooooooooooooooooooooooooooooooooooooooooooooooooooooo ",
" XoooooooooooooooooooooooooooooooooooooooooooooooooooooooooooooooooooX ",
".                                                                     ."
};
