/* XPM */
static char *s10[] = {
/* columns rows colors chars-per-pixel */
"71 96 4 1",
"  c black",
". c #008000",
"X c #808080",
"o c white",
/* pixels */
".                                                                     .",
" XoooooooooooooooooooooooooooooooooooooooooooooooooooooooooooooooooooX ",
" ooooooooooooooooooooooooooooooooooooooooooooooooooooooooooooooooooooo ",
" ooooooooooooooooooooooooooooooooooooooooooooooooooooooooooooooooooooo ",
" oo  oo    ooooooooooooooooooooooooooooooooooooooooooooooooooooooooooo ",
" oo  o      oooooooooooooooooooooooooooooooooooooooooooooooooooooooooo ",
" oo  o  oo  oooooooooooooooooooooooooooooooooooooooooooooooooooooooooo ",
" oo  o  oo  oooooooooooooooooooooooooooooooooooooooooooooooooooooooooo ",
" oo  o  oo  oooooooooooooooooooooooooooooooooooooooooooooooooooooooooo ",
" oo  o  oo  oooooooooooooooooooooooooooooooooooooooooooooooooooooooooo ",
" oo  o  oo  oooooooooo ooooooooooooooooooooooooo ooooooooooooooooooooo ",
" oo  o  oo  ooooooooo   ooooooooooooooooooooooo   oooooooooooooooooooo ",
" oo  o  oo  oooooooo     ooooooooooooooooooooo     ooooooooooooooooooo ",
" oo  o  oo  ooooooo       ooooooooooooooooooo       oooooooooooooooooo ",
" oo  o      oooooo         ooooooooooooooooo         ooooooooooooooooo ",
" oo  oo    oooooo           ooooooooooooooo           oooooooooooooooo ",
" ooooooooooooooo             ooooooooooooo             ooooooooooooooo ",
" ooooooooooooooo             ooooooooooooo             ooooooooooooooo ",
" oooooooooooooo               ooooooooooo               oooooooooooooo ",
" oooooo ooooooo               ooooooooooo               oooooooooooooo ",
" ooooo   oooooo               ooooo ooooo               oooooooooooooo ",
" oooo     ooooo      o o      oooo   oooo      o o      oooooooooooooo ",
" ooo       ooooo    oo oo    oooo     oooo    oo oo    ooooooooooooooo ",
" oo         ooooooooo   oooooooo       oooooooo   oooooooooooooooooooo ",
" oo         oooooooo     oooooo         oooooo     ooooooooooooooooooo ",
" oo         oooooooooooooooooo           ooooooooooooooooooooooooooooo ",
" ooo  o o  oooooooooooooooooo             oooooooooooooooooooooooooooo ",
" ooooo   oooooooooooooooooooo             oooooooooooooooooooooooooooo ",
" ooooo   ooooooooooooooooooo               ooooooooooooooooooooooooooo ",
" ooooooooooooooooooooooooooo               ooooooooooooooooooooooooooo ",
" ooooooooooooooooooooooooooo               ooooooooooooooooooooooooooo ",
" ooooooooooooooooooooo ooooo      o o      ooooo ooooooooooooooooooooo ",
" oooooooooooooooooooo   ooooo    oo oo    ooooo   oooooooooooooooooooo ",
" ooooooooooooooooooo     ooooooooo   ooooooooo     ooooooooooooooooooo ",
" oooooooooooooooooo       ooooooo     ooooooo       oooooooooooooooooo ",
" ooooooooooooooooo         ooooooooooooooooo         ooooooooooooooooo ",
" oooooooooooooooo           ooooooooooooooo           oooooooooooooooo ",
" ooooooooooooooo             ooooooooooooo             ooooooooooooooo ",
" ooooooooooooooo             ooooooooooooo             ooooooooooooooo ",
" oooooooooooooo               ooooooooooo               oooooooooooooo ",
" oooooooooooooo               ooooooooooo               oooooooooooooo ",
" oooooooooooooo               ooooooooooo               oooooooooooooo ",
" oooooooooooooo      o o      ooooooooooo      o o      oooooooooooooo ",
" ooooooooooooooo    oo oo    ooooooooooooo    oo oo    ooooooooooooooo ",
" oooooooooooooooooooo   ooooooooooooooooooooooo   oooooooooooooooooooo ",
" ooooooooooooooooooo     ooooooooooooooooooooo     ooooooooooooooooooo ",
" ooooooooooooooooooooooooooooooooooooooooooooooooooooooooooooooooooooo ",
" ooooooooooooooooooooooooooooooooooooooooooooooooooooooooooooooooooooo ",
" ooooooooooooooooooooooooooooooooooooooooooooooooooooooooooooooooooooo ",
" ooooooooooooooooooooooooooooooooooooooooooooooooooooooooooooooooooooo ",
" ooooooooooooooooooo     ooooooooooooooooooooo     ooooooooooooooooooo ",
" oooooooooooooooooooo   ooooooooooooooooooooooo   oooooooooooooooooooo ",
" ooooooooooooooo    oo oo    ooooooooooooo    oo oo    ooooooooooooooo ",
" oooooooooooooo      o o      ooooooooooo      o o      oooooooooooooo ",
" oooooooooooooo               ooooooooooo               oooooooooooooo ",
" oooooooooooooo               ooooooooooo               oooooooooooooo ",
" oooooooooooooo               ooooooooooo               oooooooooooooo ",
" ooooooooooooooo             ooooooooooooo             ooooooooooooooo ",
" ooooooooooooooo             ooooooooooooo             ooooooooooooooo ",
" oooooooooooooooo           ooooooooooooooo           oooooooooooooooo ",
" ooooooooooooooooo         ooooooooooooooooo         ooooooooooooooooo ",
" oooooooooooooooooo       ooooooo     ooooooo       oooooooooooooooooo ",
" ooooooooooooooooooo     ooooooooo   ooooooooo     ooooooooooooooooooo ",
" oooooooooooooooooooo   ooooo    oo oo    ooooo   oooooooooooooooooooo ",
" ooooooooooooooooooooo ooooo      o o      ooooo ooooooooooooooooooooo ",
" ooooooooooooooooooooooooooo               ooooooooooooooooooooooooooo ",
" ooooooooooooooooooooooooooo               ooooooooooooooooooooooooooo ",
" ooooooooooooooooooooooooooo               ooooooooooooooooooo   ooooo ",
" oooooooooooooooooooooooooooo             oooooooooooooooooooo   ooooo ",
" oooooooooooooooooooooooooooo             oooooooooooooooooo  o o  ooo ",
" ooooooooooooooooooooooooooooo           oooooooooooooooooo         oo ",
" ooooooooooooooooooo     oooooo         oooooo     oooooooo         oo ",
" oooooooooooooooooooo   oooooooo       oooooooo   ooooooooo         oo ",
" ooooooooooooooo    oo oo    oooo     oooo    oo oo    ooooo       ooo ",
" oooooooooooooo      o o      oooo   oooo      o o      ooooo     oooo ",
" oooooooooooooo               ooooo ooooo               oooooo   ooooo ",
" oooooooooooooo               ooooooooooo               ooooooo oooooo ",
" oooooooooooooo               ooooooooooo               oooooooooooooo ",
" ooooooooooooooo             ooooooooooooo             ooooooooooooooo ",
" ooooooooooooooo             ooooooooooooo             ooooooooooooooo ",
" oooooooooooooooo           ooooooooooooooo           oooooo    oo  oo ",
" ooooooooooooooooo         ooooooooooooooooo         oooooo      o  oo ",
" oooooooooooooooooo       ooooooooooooooooooo       ooooooo  oo  o  oo ",
" ooooooooooooooooooo     ooooooooooooooooooooo     oooooooo  oo  o  oo ",
" oooooooooooooooooooo   ooooooooooooooooooooooo   ooooooooo  oo  o  oo ",
" ooooooooooooooooooooo ooooooooooooooooooooooooo oooooooooo  oo  o  oo ",
" oooooooooooooooooooooooooooooooooooooooooooooooooooooooooo  oo  o  oo ",
" oooooooooooooooooooooooooooooooooooooooooooooooooooooooooo  oo  o  oo ",
" oooooooooooooooooooooooooooooooooooooooooooooooooooooooooo  oo  o  oo ",
" oooooooooooooooooooooooooooooooooooooooooooooooooooooooooo  oo  o  oo ",
" oooooooooooooooooooooooooooooooooooooooooooooooooooooooooo      o  oo ",
" ooooooooooooooooooooooooooooooooooooooooooooooooooooooooooo    oo  oo ",
" ooooooooooooooooooooooooooooooooooooooooooooooooooooooooooooooooooooo ",
" ooooooooooooooooooooooooooooooooooooooooooooooooooooooooooooooooooooo ",
" XoooooooooooooooooooooooooooooooooooooooooooooooooooooooooooooooooooX ",
".                                                                     ."
};
