/* XPM */
static char *s3[] = {
/* columns rows colors chars-per-pixel */
"71 96 4 1",
"  c black",
". c #008000",
"X c #808080",
"o c white",
/* pixels */
".                                                                     .",
" XoooooooooooooooooooooooooooooooooooooooooooooooooooooooooooooooooooX ",
" ooooooooooooooooooooooooooooooooooooooooooooooooooooooooooooooooooooo ",
" ooooooooooooooooooooooooooooooooooooooooooooooooooooooooooooooooooooo ",
" ooo       ooooooooooooooooooooooooooooooooooooooooooooooooooooooooooo ",
" ooo       ooooooooooooooooooooooooooooooooooooooooooooooooooooooooooo ",
" ooo  oo  oooooooooooooooooooooooooooooooooooooooooooooooooooooooooooo ",
" oooooo  ooooooooooooooooooooooooooooooooooooooooooooooooooooooooooooo ",
" ooooo  oooooooooooooooooooooooooooooooooooooooooooooooooooooooooooooo ",
" oooo     oooooooooooooooooooooooooooooooooooooooooooooooooooooooooooo ",
" oooo      oooooooooooooooooooooooo oooooooooooooooooooooooooooooooooo ",
" oooooooo  ooooooooooooooooooooooo   ooooooooooooooooooooooooooooooooo ",
" oooooooo  oooooooooooooooooooooo     oooooooooooooooooooooooooooooooo ",
" ooo  ooo  ooooooooooooooooooooo       ooooooooooooooooooooooooooooooo ",
" ooo       oooooooooooooooooooo         oooooooooooooooooooooooooooooo ",
" oooo     oooooooooooooooooooo           ooooooooooooooooooooooooooooo ",
" oooooooooooooooooooooooooooo             oooooooooooooooooooooooooooo ",
" oooooooooooooooooooooooooooo             oooooooooooooooooooooooooooo ",
" ooooooooooooooooooooooooooo               ooooooooooooooooooooooooooo ",
" oooooo oooooooooooooooooooo               ooooooooooooooooooooooooooo ",
" ooooo   ooooooooooooooooooo               ooooooooooooooooooooooooooo ",
" oooo     oooooooooooooooooo      o o      ooooooooooooooooooooooooooo ",
" ooo       oooooooooooooooooo    oo oo    oooooooooooooooooooooooooooo ",
" oo         oooooooooooooooooooooo   ooooooooooooooooooooooooooooooooo ",
" oo         ooooooooooooooooooooo     oooooooooooooooooooooooooooooooo ",
" oo         oooooooooooooooooooooooooooooooooooooooooooooooooooooooooo ",
" ooo  o o  ooooooooooooooooooooooooooooooooooooooooooooooooooooooooooo ",
" ooooo   ooooooooooooooooooooooooooooooooooooooooooooooooooooooooooooo ",
" ooooo   ooooooooooooooooooooooooooooooooooooooooooooooooooooooooooooo ",
" ooooooooooooooooooooooooooooooooooooooooooooooooooooooooooooooooooooo ",
" ooooooooooooooooooooooooooooooooooooooooooooooooooooooooooooooooooooo ",
" ooooooooooooooooooooooooooooooooooooooooooooooooooooooooooooooooooooo ",
" ooooooooooooooooooooooooooooooooooooooooooooooooooooooooooooooooooooo ",
" ooooooooooooooooooooooooooooooooooooooooooooooooooooooooooooooooooooo ",
" ooooooooooooooooooooooooooooooooooooooooooooooooooooooooooooooooooooo ",
" ooooooooooooooooooooooooooooooooooooooooooooooooooooooooooooooooooooo ",
" ooooooooooooooooooooooooooooooooooooooooooooooooooooooooooooooooooooo ",
" ooooooooooooooooooooooooooooooooooooooooooooooooooooooooooooooooooooo ",
" ooooooooooooooooooooooooooooooooooooooooooooooooooooooooooooooooooooo ",
" ooooooooooooooooooooooooooooooooooooooooooooooooooooooooooooooooooooo ",
" ooooooooooooooooooooooooooooooooooooooooooooooooooooooooooooooooooooo ",
" oooooooooooooooooooooooooooooooooo oooooooooooooooooooooooooooooooooo ",
" ooooooooooooooooooooooooooooooooo   ooooooooooooooooooooooooooooooooo ",
" oooooooooooooooooooooooooooooooo     oooooooooooooooooooooooooooooooo ",
" ooooooooooooooooooooooooooooooo       ooooooooooooooooooooooooooooooo ",
" oooooooooooooooooooooooooooooo         oooooooooooooooooooooooooooooo ",
" ooooooooooooooooooooooooooooo           ooooooooooooooooooooooooooooo ",
" oooooooooooooooooooooooooooo             oooooooooooooooooooooooooooo ",
" oooooooooooooooooooooooooooo             oooooooooooooooooooooooooooo ",
" ooooooooooooooooooooooooooo               ooooooooooooooooooooooooooo ",
" ooooooooooooooooooooooooooo               ooooooooooooooooooooooooooo ",
" ooooooooooooooooooooooooooo               ooooooooooooooooooooooooooo ",
" ooooooooooooooooooooooooooo      o o      ooooooooooooooooooooooooooo ",
" oooooooooooooooooooooooooooo    oo oo    oooooooooooooooooooooooooooo ",
" ooooooooooooooooooooooooooooooooo   ooooooooooooooooooooooooooooooooo ",
" oooooooooooooooooooooooooooooooo     oooooooooooooooooooooooooooooooo ",
" ooooooooooooooooooooooooooooooooooooooooooooooooooooooooooooooooooooo ",
" ooooooooooooooooooooooooooooooooooooooooooooooooooooooooooooooooooooo ",
" ooooooooooooooooooooooooooooooooooooooooooooooooooooooooooooooooooooo ",
" ooooooooooooooooooooooooooooooooooooooooooooooooooooooooooooooooooooo ",
" ooooooooooooooooooooooooooooooooooooooooooooooooooooooooooooooooooooo ",
" ooooooooooooooooooooooooooooooooooooooooooooooooooooooooooooooooooooo ",
" ooooooooooooooooooooooooooooooooooooooooooooooooooooooooooooooooooooo ",
" ooooooooooooooooooooooooooooooooooooooooooooooooooooooooooooooooooooo ",
" ooooooooooooooooooooooooooooooooooooooooooooooooooooooooooooooooooooo ",
" ooooooooooooooooooooooooooooooooooooooooooooooooooooooooooooooooooooo ",
" ooooooooooooooooooooooooooooooooooooooooooooooooooooooooooooooooooooo ",
" ooooooooooooooooooooooooooooooooooooooooooooooooooooooooooooo   ooooo ",
" ooooooooooooooooooooooooooooooooooooooooooooooooooooooooooooo   ooooo ",
" ooooooooooooooooooooooooooooooooooooooooooooooooooooooooooo  o o  ooo ",
" oooooooooooooooooooooooooooooooooooooooooooooooooooooooooo         oo ",
" oooooooooooooooooooooooooooooooo     ooooooooooooooooooooo         oo ",
" ooooooooooooooooooooooooooooooooo   oooooooooooooooooooooo         oo ",
" oooooooooooooooooooooooooooo    oo oo    oooooooooooooooooo       ooo ",
" ooooooooooooooooooooooooooo      o o      oooooooooooooooooo     oooo ",
" ooooooooooooooooooooooooooo               ooooooooooooooooooo   ooooo ",
" ooooooooooooooooooooooooooo               oooooooooooooooooooo oooooo ",
" ooooooooooooooooooooooooooo               ooooooooooooooooooooooooooo ",
" oooooooooooooooooooooooooooo             oooooooooooooooooooooooooooo ",
" oooooooooooooooooooooooooooo             oooooooooooooooooooooooooooo ",
" ooooooooooooooooooooooooooooo           oooooooooooooooooooo     oooo ",
" oooooooooooooooooooooooooooooo         oooooooooooooooooooo       ooo ",
" ooooooooooooooooooooooooooooooo       ooooooooooooooooooooo  ooo  ooo ",
" oooooooooooooooooooooooooooooooo     oooooooooooooooooooooo  oooooooo ",
" ooooooooooooooooooooooooooooooooo   ooooooooooooooooooooooo  oooooooo ",
" oooooooooooooooooooooooooooooooooo oooooooooooooooooooooooo      oooo ",
" oooooooooooooooooooooooooooooooooooooooooooooooooooooooooooo     oooo ",
" oooooooooooooooooooooooooooooooooooooooooooooooooooooooooooooo  ooooo ",
" ooooooooooooooooooooooooooooooooooooooooooooooooooooooooooooo  oooooo ",
" oooooooooooooooooooooooooooooooooooooooooooooooooooooooooooo  oo  ooo ",
" ooooooooooooooooooooooooooooooooooooooooooooooooooooooooooo       ooo ",
" ooooooooooooooooooooooooooooooooooooooooooooooooooooooooooo       ooo ",
" ooooooooooooooooooooooooooooooooooooooooooooooooooooooooooooooooooooo ",
" ooooooooooooooooooooooooooooooooooooooooooooooooooooooooooooooooooooo ",
" XoooooooooooooooooooooooooooooooooooooooooooooooooooooooooooooooooooX ",
".                                                                     ."
};
