/* XPM */
static char *s4[] = {
/* columns rows colors chars-per-pixel */
"71 96 4 1",
"  c black",
". c #008000",
"X c #808080",
"o c white",
/* pixels */
".                                                                     .",
" XoooooooooooooooooooooooooooooooooooooooooooooooooooooooooooooooooooX ",
" ooooooooooooooooooooooooooooooooooooooooooooooooooooooooooooooooooooo ",
" ooooooooooooooooooooooooooooooooooooooooooooooooooooooooooooooooooooo ",
" ooooooo  oooooooooooooooooooooooooooooooooooooooooooooooooooooooooooo ",
" oooooo   oooooooooooooooooooooooooooooooooooooooooooooooooooooooooooo ",
" ooooo    oooooooooooooooooooooooooooooooooooooooooooooooooooooooooooo ",
" oooo     oooooooooooooooooooooooooooooooooooooooooooooooooooooooooooo ",
" ooo   o  oooooooooooooooooooooooooooooooooooooooooooooooooooooooooooo ",
" oo   oo  oooooooooooooooooooooooooooooooooooooooooooooooooooooooooooo ",
" oo         oooooooooo ooooooooooooooooooooooooo ooooooooooooooooooooo ",
" oo         ooooooooo   ooooooooooooooooooooooo   oooooooooooooooooooo ",
" ooooooo  oooooooooo     ooooooooooooooooooooo     ooooooooooooooooooo ",
" ooooooo  ooooooooo       ooooooooooooooooooo       oooooooooooooooooo ",
" oooooo    ooooooo         ooooooooooooooooo         ooooooooooooooooo ",
" oooooo    oooooo           ooooooooooooooo           oooooooooooooooo ",
" ooooooooooooooo             ooooooooooooo             ooooooooooooooo ",
" ooooooooooooooo             ooooooooooooo             ooooooooooooooo ",
" oooooooooooooo               ooooooooooo               oooooooooooooo ",
" oooooo ooooooo               ooooooooooo               oooooooooooooo ",
" ooooo   oooooo               ooooooooooo               oooooooooooooo ",
" oooo     ooooo      o o      ooooooooooo      o o      oooooooooooooo ",
" ooo       ooooo    oo oo    ooooooooooooo    oo oo    ooooooooooooooo ",
" oo         ooooooooo   ooooooooooooooooooooooo   oooooooooooooooooooo ",
" oo         oooooooo     ooooooooooooooooooooo     ooooooooooooooooooo ",
" oo         oooooooooooooooooooooooooooooooooooooooooooooooooooooooooo ",
" ooo  o o  ooooooooooooooooooooooooooooooooooooooooooooooooooooooooooo ",
" ooooo   ooooooooooooooooooooooooooooooooooooooooooooooooooooooooooooo ",
" ooooo   ooooooooooooooooooooooooooooooooooooooooooooooooooooooooooooo ",
" ooooooooooooooooooooooooooooooooooooooooooooooooooooooooooooooooooooo ",
" ooooooooooooooooooooooooooooooooooooooooooooooooooooooooooooooooooooo ",
" ooooooooooooooooooooooooooooooooooooooooooooooooooooooooooooooooooooo ",
" ooooooooooooooooooooooooooooooooooooooooooooooooooooooooooooooooooooo ",
" ooooooooooooooooooooooooooooooooooooooooooooooooooooooooooooooooooooo ",
" ooooooooooooooooooooooooooooooooooooooooooooooooooooooooooooooooooooo ",
" ooooooooooooooooooooooooooooooooooooooooooooooooooooooooooooooooooooo ",
" ooooooooooooooooooooooooooooooooooooooooooooooooooooooooooooooooooooo ",
" ooooooooooooooooooooooooooooooooooooooooooooooooooooooooooooooooooooo ",
" ooooooooooooooooooooooooooooooooooooooooooooooooooooooooooooooooooooo ",
" ooooooooooooooooooooooooooooooooooooooooooooooooooooooooooooooooooooo ",
" ooooooooooooooooooooooooooooooooooooooooooooooooooooooooooooooooooooo ",
" ooooooooooooooooooooooooooooooooooooooooooooooooooooooooooooooooooooo ",
" ooooooooooooooooooooooooooooooooooooooooooooooooooooooooooooooooooooo ",
" ooooooooooooooooooooooooooooooooooooooooooooooooooooooooooooooooooooo ",
" ooooooooooooooooooooooooooooooooooooooooooooooooooooooooooooooooooooo ",
" ooooooooooooooooooooooooooooooooooooooooooooooooooooooooooooooooooooo ",
" ooooooooooooooooooooooooooooooooooooooooooooooooooooooooooooooooooooo ",
" ooooooooooooooooooooooooooooooooooooooooooooooooooooooooooooooooooooo ",
" ooooooooooooooooooooooooooooooooooooooooooooooooooooooooooooooooooooo ",
" ooooooooooooooooooooooooooooooooooooooooooooooooooooooooooooooooooooo ",
" ooooooooooooooooooooooooooooooooooooooooooooooooooooooooooooooooooooo ",
" ooooooooooooooooooooooooooooooooooooooooooooooooooooooooooooooooooooo ",
" ooooooooooooooooooooooooooooooooooooooooooooooooooooooooooooooooooooo ",
" ooooooooooooooooooooooooooooooooooooooooooooooooooooooooooooooooooooo ",
" ooooooooooooooooooooooooooooooooooooooooooooooooooooooooooooooooooooo ",
" ooooooooooooooooooooooooooooooooooooooooooooooooooooooooooooooooooooo ",
" ooooooooooooooooooooooooooooooooooooooooooooooooooooooooooooooooooooo ",
" ooooooooooooooooooooooooooooooooooooooooooooooooooooooooooooooooooooo ",
" ooooooooooooooooooooooooooooooooooooooooooooooooooooooooooooooooooooo ",
" ooooooooooooooooooooooooooooooooooooooooooooooooooooooooooooooooooooo ",
" ooooooooooooooooooooooooooooooooooooooooooooooooooooooooooooooooooooo ",
" ooooooooooooooooooooooooooooooooooooooooooooooooooooooooooooooooooooo ",
" ooooooooooooooooooooooooooooooooooooooooooooooooooooooooooooooooooooo ",
" ooooooooooooooooooooooooooooooooooooooooooooooooooooooooooooooooooooo ",
" ooooooooooooooooooooooooooooooooooooooooooooooooooooooooooooooooooooo ",
" ooooooooooooooooooooooooooooooooooooooooooooooooooooooooooooooooooooo ",
" ooooooooooooooooooooooooooooooooooooooooooooooooooooooooooooooooooooo ",
" ooooooooooooooooooooooooooooooooooooooooooooooooooooooooooooo   ooooo ",
" ooooooooooooooooooooooooooooooooooooooooooooooooooooooooooooo   ooooo ",
" ooooooooooooooooooooooooooooooooooooooooooooooooooooooooooo  o o  ooo ",
" oooooooooooooooooooooooooooooooooooooooooooooooooooooooooo         oo ",
" ooooooooooooooooooo     ooooooooooooooooooooo     oooooooo         oo ",
" oooooooooooooooooooo   ooooooooooooooooooooooo   ooooooooo         oo ",
" ooooooooooooooo    oo oo    ooooooooooooo    oo oo    ooooo       ooo ",
" oooooooooooooo      o o      ooooooooooo      o o      ooooo     oooo ",
" oooooooooooooo               ooooooooooo               oooooo   ooooo ",
" oooooooooooooo               ooooooooooo               ooooooo oooooo ",
" oooooooooooooo               ooooooooooo               oooooooooooooo ",
" ooooooooooooooo             ooooooooooooo             ooooooooooooooo ",
" ooooooooooooooo             ooooooooooooo             ooooooooooooooo ",
" oooooooooooooooo           ooooooooooooooo           oooooo    oooooo ",
" ooooooooooooooooo         ooooooooooooooooo         ooooooo    oooooo ",
" oooooooooooooooooo       ooooooooooooooooooo       ooooooooo  ooooooo ",
" ooooooooooooooooooo     ooooooooooooooooooooo     oooooooooo  ooooooo ",
" oooooooooooooooooooo   ooooooooooooooooooooooo   ooooooooo         oo ",
" ooooooooooooooooooooo ooooooooooooooooooooooooo oooooooooo         oo ",
" oooooooooooooooooooooooooooooooooooooooooooooooooooooooooooo  oo   oo ",
" oooooooooooooooooooooooooooooooooooooooooooooooooooooooooooo  o   ooo ",
" oooooooooooooooooooooooooooooooooooooooooooooooooooooooooooo     oooo ",
" oooooooooooooooooooooooooooooooooooooooooooooooooooooooooooo    ooooo ",
" oooooooooooooooooooooooooooooooooooooooooooooooooooooooooooo   oooooo ",
" oooooooooooooooooooooooooooooooooooooooooooooooooooooooooooo  ooooooo ",
" ooooooooooooooooooooooooooooooooooooooooooooooooooooooooooooooooooooo ",
" ooooooooooooooooooooooooooooooooooooooooooooooooooooooooooooooooooooo ",
" XoooooooooooooooooooooooooooooooooooooooooooooooooooooooooooooooooooX ",
".                                                                     ."
};
