/* XPM */
static char *s9[] = {
/* columns rows colors chars-per-pixel */
"71 96 4 1",
"  c black",
". c #008000",
"X c #808080",
"o c white",
/* pixels */
".                                                                     .",
" XoooooooooooooooooooooooooooooooooooooooooooooooooooooooooooooooooooX ",
" ooooooooooooooooooooooooooooooooooooooooooooooooooooooooooooooooooooo ",
" ooooooooooooooooooooooooooooooooooooooooooooooooooooooooooooooooooooo ",
" oooo     oooooooooooooooooooooooooooooooooooooooooooooooooooooooooooo ",
" ooo       ooooooooooooooooooooooooooooooooooooooooooooooooooooooooooo ",
" ooo  ooo  ooooooooooooooooooooooooooooooooooooooooooooooooooooooooooo ",
" ooo  ooo  ooooooooooooooooooooooooooooooooooooooooooooooooooooooooooo ",
" ooo  ooo  ooooooooooooooooooooooooooooooooooooooooooooooooooooooooooo ",
" ooo  ooo  ooooooooooooooooooooooooooooooooooooooooooooooooooooooooooo ",
" ooo       ooooooooooo ooooooooooooooooooooooooo ooooooooooooooooooooo ",
" oooo      oooooooooo   ooooooooooooooooooooooo   oooooooooooooooooooo ",
" oooooooo  ooooooooo     ooooooooooooooooooooo     ooooooooooooooooooo ",
" ooooooo   oooooooo       ooooooooooooooooooo       oooooooooooooooooo ",
" oooo     oooooooo         ooooooooooooooooo         ooooooooooooooooo ",
" oooo    oooooooo           ooooooooooooooo           oooooooooooooooo ",
" ooooooooooooooo             ooooooooooooo             ooooooooooooooo ",
" ooooooooooooooo             ooooooooooooo             ooooooooooooooo ",
" oooooooooooooo               ooooooooooo               oooooooooooooo ",
" oooooo ooooooo               ooooooooooo               oooooooooooooo ",
" ooooo   oooooo               ooooooooooo               oooooooooooooo ",
" oooo     ooooo      o o      ooooooooooo      o o      oooooooooooooo ",
" ooo       ooooo    oo oo    ooooooooooooo    oo oo    ooooooooooooooo ",
" oo         ooooooooo   ooooooooooooooooooooooo   oooooooooooooooooooo ",
" oo         oooooooo     ooooooooooooooooooooo     ooooooooooooooooooo ",
" oo         oooooooooooooooooooooooooooooooooooooooooooooooooooooooooo ",
" ooo  o o  ooooooooooooooooooooooooooooooooooooooooooooooooooooooooooo ",
" ooooo   ooooooooooooooooooooooooooooooooooooooooooooooooooooooooooooo ",
" ooooo   ooooooooooooooooooooooooooooooooooooooooooooooooooooooooooooo ",
" ooooooooooooooooooooooooooooooooooooooooooooooooooooooooooooooooooooo ",
" ooooooooooooooooooooo ooooooooooooooooooooooooo ooooooooooooooooooooo ",
" oooooooooooooooooooo   ooooooooooooooooooooooo   oooooooooooooooooooo ",
" ooooooooooooooooooo     ooooooooooooooooooooo     ooooooooooooooooooo ",
" oooooooooooooooooo       ooooooooooooooooooo       oooooooooooooooooo ",
" ooooooooooooooooo         ooooooooooooooooo         ooooooooooooooooo ",
" oooooooooooooooo           ooooooooooooooo           oooooooooooooooo ",
" ooooooooooooooo             ooooooooooooo             ooooooooooooooo ",
" ooooooooooooooo             ooooooooooooo             ooooooooooooooo ",
" oooooooooooooo               ooooooooooo               oooooooooooooo ",
" oooooooooooooo               ooooo ooooo               oooooooooooooo ",
" oooooooooooooo               oooo   oooo               oooooooooooooo ",
" oooooooooooooo      o o      ooo     ooo      o o      oooooooooooooo ",
" ooooooooooooooo    oo oo    ooo       ooo    oo oo    ooooooooooooooo ",
" oooooooooooooooooooo   ooooooo         ooooooo   oooooooooooooooooooo ",
" ooooooooooooooooooo     ooooo           ooooo     ooooooooooooooooooo ",
" oooooooooooooooooooooooooooo             oooooooooooooooooooooooooooo ",
" oooooooooooooooooooooooooooo             oooooooooooooooooooooooooooo ",
" ooooooooooooooooooooooooooo               ooooooooooooooooooooooooooo ",
" ooooooooooooooooooooooooooo               ooooooooooooooooooooooooooo ",
" ooooooooooooooooooooooooooo               ooooooooooooooooooooooooooo ",
" ooooooooooooooooooooooooooo      o o      ooooooooooooooooooooooooooo ",
" oooooooooooooooooooooooooooo    oo oo    oooooooooooooooooooooooooooo ",
" ooooooooooooooooooo     ooooooooo   ooooooooo     ooooooooooooooooooo ",
" oooooooooooooooooooo   ooooooooo     ooooooooo   oooooooooooooooooooo ",
" ooooooooooooooo    oo oo    ooooooooooooo    oo oo    ooooooooooooooo ",
" oooooooooooooo      o o      ooooooooooo      o o      oooooooooooooo ",
" oooooooooooooo               ooooooooooo               oooooooooooooo ",
" oooooooooooooo               ooooooooooo               oooooooooooooo ",
" oooooooooooooo               ooooooooooo               oooooooooooooo ",
" ooooooooooooooo             ooooooooooooo             ooooooooooooooo ",
" ooooooooooooooo             ooooooooooooo             ooooooooooooooo ",
" oooooooooooooooo           ooooooooooooooo           oooooooooooooooo ",
" ooooooooooooooooo         ooooooooooooooooo         ooooooooooooooooo ",
" oooooooooooooooooo       ooooooooooooooooooo       oooooooooooooooooo ",
" ooooooooooooooooooo     ooooooooooooooooooooo     ooooooooooooooooooo ",
" oooooooooooooooooooo   ooooooooooooooooooooooo   oooooooooooooooooooo ",
" ooooooooooooooooooooo ooooooooooooooooooooooooo ooooooooooooooooooooo ",
" ooooooooooooooooooooooooooooooooooooooooooooooooooooooooooooo   ooooo ",
" ooooooooooooooooooooooooooooooooooooooooooooooooooooooooooooo   ooooo ",
" ooooooooooooooooooooooooooooooooooooooooooooooooooooooooooo  o o  ooo ",
" oooooooooooooooooooooooooooooooooooooooooooooooooooooooooo         oo ",
" ooooooooooooooooooo     ooooooooooooooooooooo     oooooooo         oo ",
" oooooooooooooooooooo   ooooooooooooooooooooooo   ooooooooo         oo ",
" ooooooooooooooo    oo oo    ooooooooooooo    oo oo    ooooo       ooo ",
" oooooooooooooo      o o      ooooooooooo      o o      ooooo     oooo ",
" oooooooooooooo               ooooooooooo               oooooo   ooooo ",
" oooooooooooooo               ooooooooooo               ooooooo oooooo ",
" oooooooooooooo               ooooooooooo               oooooooooooooo ",
" ooooooooooooooo             ooooooooooooo             ooooooooooooooo ",
" ooooooooooooooo             ooooooooooooo             ooooooooooooooo ",
" oooooooooooooooo           ooooooooooooooo           oooooooo    oooo ",
" ooooooooooooooooo         ooooooooooooooooo         oooooooo     oooo ",
" oooooooooooooooooo       ooooooooooooooooooo       oooooooo   ooooooo ",
" ooooooooooooooooooo     ooooooooooooooooooooo     ooooooooo  oooooooo ",
" oooooooooooooooooooo   ooooooooooooooooooooooo   oooooooooo      oooo ",
" ooooooooooooooooooooo ooooooooooooooooooooooooo ooooooooooo       ooo ",
" ooooooooooooooooooooooooooooooooooooooooooooooooooooooooooo  ooo  ooo ",
" ooooooooooooooooooooooooooooooooooooooooooooooooooooooooooo  ooo  ooo ",
" ooooooooooooooooooooooooooooooooooooooooooooooooooooooooooo  ooo  ooo ",
" ooooooooooooooooooooooooooooooooooooooooooooooooooooooooooo  ooo  ooo ",
" ooooooooooooooooooooooooooooooooooooooooooooooooooooooooooo       ooo ",
" oooooooooooooooooooooooooooooooooooooooooooooooooooooooooooo     oooo ",
" ooooooooooooooooooooooooooooooooooooooooooooooooooooooooooooooooooooo ",
" ooooooooooooooooooooooooooooooooooooooooooooooooooooooooooooooooooooo ",
" XoooooooooooooooooooooooooooooooooooooooooooooooooooooooooooooooooooX ",
".                                                                     ."
};
