/* XPM */
static char *sj[] = {
/* columns rows colors chars-per-pixel */
"71 96 8 1",
"  c black",
". c blue",
"X c #008000",
"o c cyan",
"O c red",
"+ c yellow",
"@ c #808080",
"# c white",
/* pixels */
"X                                                                     X",
" @###################################################################@ ",
" ##################################################################### ",
" ##################################################################### ",
" #####    ############################################################ ",
" #####    ############################################################ ",
" ######  ############################################################# ",
" ######  ############################################################# ",
" ######  ############################################################# ",
" ######  ############################################################# ",
" ######  ############################################################# ",
" ######  ###                                               ########### ",
" ##  ##  ### ###  ### O OOO O OO O OOO OO ################ ########### ",
" ##  ##  ### ## ++ ### O OO O OO O OO OO ######## ######## ########### ",
" ##      ### # + O+ ### O   O    O   OO ########   ####### ########### ",
" ###    #### # + O+ #### OOOOOOOOOOOOOO #######     ###### ########### ",
" ########### # + O+ ####                ######       ##### ########### ",
" ########### ## ++ ##### ##### + + + + ######         #### ########### ",
" ##### ##### ###  ###### #  ## + + + + #####           ### ########### ",
" ####   #### ## ++ ##### # #  # + + + + ###             ## ########### ",
" ###     ### # + O+ ####.###### + + + + ###             ## ########### ",
" ##       ## ## ++ #### ####### + + + + ##               # ########### ",
" #         # ###  #### ######## + + + + ##               # ########### ",
" #         # ## ++ ###  ##  #.# + + + + ##               # ########### ",
" #         # # + O+ #### ##  .# + + + + ##      # #      # ########### ",
" ##  # #  ## # + O+ #### ###### + + + ++  #    ## ##    ## ########### ",
" ####o o#### # + O+ ####   ### ++ + + ++++ #####   ####### ########### ",
" ####   #### ## ++ ##### ##### ++ ++ + + ++ ###     ###### ########### ",
" ########### #     ####  #####O  + + + ++ + ############## ########### ",
" ########### # ###  #    .##OOOO +  + +  ++ ############## ########### ",
" ########### ##  ##        OOOOO  ++ + +++  ############## ########### ",
" ########### # ##    #                        ############ ########### ",
" ########### # #   # #                    # #   ########## ########### ",
" ########### #   #    # + + + + + + + + + #   #   ######## ########### ",
" ###########  O   # # #                   # # #  O  ###### ########### ",
" ########### O  O #    # OOOOOOOOOOOOOOOO #   # OOO   ##   ########### ",
" ###########   O   # # #  O+OO+OO+OO+OO+O # # # O   OO  +  ########### ",
" ###########  O  + #    # OOO+ +O+O+ +OOO #   #   OO  +++  ########### ",
" ########### O  + + # # #  O+ +O+++O+ +OO # # # OO  ++     ########### ",
" ###########   + +  #     + O+OO+ +OO+OOO #   #    +++++   ########### ",
" ###########  + + +  #  +      #   #   #  # # #   ++     + ########### ",
" ########### + + +     +  + # # # # # # # #      ++++++  + ########### ",
" ###########  + +  O  +  ++  #   #   #    # #   ++ +    +  ########### ",
" ########### +++  #O +    +                    +++++++  +  ########### ",
" ########### +   OO +  ++++ ################## ++ +    + O ########### ",
" ###########    #O +  +   + OOOOOOOOOOOOOOOOO +++++++  +OO ########### ",
" ###########   OO +  +++++                    + +     + OO ########### ",
" ###########  +O +    +  +   +  # ###  #  #  +++++++ +OOOO ########### ",
" ########### +OOO+ +++++++  #  #  ### #  +   +  +    + OO  ########### ",
" ########### O+ +     + +                    +++++  + OO   ########### ",
" ########### + +  +++++++ OOOOOOOOOOOOOOOOO +   +  + O#  + ########### ",
" ########### O +    + ++ ################## ++++  + OO  +  ########### ",
" ###########  +  +++++++                    +    + O#  + + ########### ",
" ###########  +    + ++   # #    #   #   #  ++  +  O  + +  ########### ",
" ########### +  ++++++      # # # # # # # # +  +     + + + ########### ",
" ########### +     ++   # # #  #   #   #      +  #  + + +  ########### ",
" ###########   +++++    #   # OOO+OO+ +OO+O +     #  + +   ########### ",
" ###########     ++  OO # # # OO+ +O+++O+ +O  # # # + +  O ########### ",
" ###########  +++  OO   #   # OOO+ +O+O+ +OOO #    # +  O  ########### ",
" ###########  +  OO   O # # # O+OO+OO+OO+OO+O  # # #   O   ########### ",
" ###########   ##   OOO #   # OOOOOOOOOOOOOOOO #    # O  O ########### ",
" ########### ######  O  # # #                   # # #   O  ########### ",
" ########### ########   #   # + + + + + + + + + #    #   # ########### ",
" ########### ##########   # #                    # #   # # ########### ",
" ########### ############                        #    ## # ########### ",
" ########### ##############  +++ + ++  OOOOO        ##  ## ########### ",
" ########### ############## ++  + +  + OOOO##.    #  ### # ########### ",
" ########### ############## + ++ + + +  O#####  ####     # ########### ",
" ########### ######     ### ++ + + ++ ++ ##### ##### ++ ## ####   #### ",
" ########### #######   ##### ++++ + + ++ ###   #### +O + # ####o o#### ",
" ########### ##    ## ##    #  ++ + + + ###### #### +O + # ##  # #  ## ",
" ########### #      # #      ## + + + + #.  ## #### +O + # #         # ",
" ########### #               ## + + + + #.#  ##  ### ++ ## #         # ",
" ########### #               ## + + + + ######## ####  ### #         # ",
" ########### #               ## + + + + ####### #### ++ ## ##       ## ",
" ########### ##             ### + + + + ######.#### +O + # ###     ### ",
" ########### ##             ### + + + + #  # # ##### ++ ## ####   #### ",
" ########### ###           ##### + + + + ##  # ######  ### ##### ##### ",
" ########### ####         ###### + + + + ##### ##### ++ ## ########### ",
" ########### #####       ######                #### +O + # ########### ",
" ########### ######     ####### OOOOOOOOOOOOOO #### +O + # ####    ### ",
" ########### #######   ######## OO   O    O   O ### +O + # ###      ## ",
" ########### ######## ######## OO OO O OO O OO O ### ++ ## ###  ##  ## ",
" ########### ################ OO OOO O OO O OOO O ###  ### ###  ##  ## ",
" ###########                                               ###  ###### ",
" #############################################################  ###### ",
" #############################################################  ###### ",
" #############################################################  ###### ",
" #############################################################  ###### ",
" #############################################################  ###### ",
" ############################################################    ##### ",
" ############################################################    ##### ",
" ##################################################################### ",
" ##################################################################### ",
" @###################################################################@ ",
"X                                                                     X"
};
