/* XPM */
static char *sk[] = {
/* columns rows colors chars-per-pixel */
"71 96 7 1",
"  c black",
". c #008000",
"X c cyan",
"o c red",
"O c yellow",
"+ c #808080",
"@ c white",
/* pixels */
".                                                                     .",
" +@@@@@@@@@@@@@@@@@@@@@@@@@@@@@@@@@@@@@@@@@@@@@@@@@@@@@@@@@@@@@@@@@@@+ ",
" @@@@@@@@@@@@@@@@@@@@@@@@@@@@@@@@@@@@@@@@@@@@@@@@@@@@@@@@@@@@@@@@@@@@@ ",
" @@@@@@@@@@@@@@@@@@@@@@@@@@@@@@@@@@@@@@@@@@@@@@@@@@@@@@@@@@@@@@@@@@@@@ ",
" @    @    @@@@@@@@@@@@@@@@@@@@@@@@@@@@@@@@@@@@@@@@@@@@@@@@@@@@@@@@@@@ ",
" @    @    @@@@@@@@@@@@@@@@@@@@@@@@@@@@@@@@@@@@@@@@@@@@@@@@@@@@@@@@@@@ ",
" @@  @@  @@@@@@@@@@@@@@@@@@@@@@@@@@@@@@@@@@@@@@@@@@@@@@@@@@@@@@@@@@@@@ ",
" @@  @  @@@@@@@@@@@@@@@@@@@@@@@@@@@@@@@@@@@@@@@@@@@@@@@@@@@@@@@@@@@@@@ ",
" @@    @@@@@@@@@@@@@@@@@@@@@@@@@@@@@@@@@@@@@@@@@@@@@@@@@@@@@@@@@@@@@@@ ",
" @@   @@@@@@@@@@@@@@@@@@@@@@@@@@@@@@@@@@@@@@@@@@@@@@@@@@@@@@@@@@@@@@@@ ",
" @@    @@@@@@@@@@@@@@@@@@@@@@@@@@@@@@@@@@@@@@@@@@@@@@@@@@@@@@@@@@@@@@@ ",
" @@  @  @@@@                                               @@@@@@@@@@@ ",
" @@  @@  @@@ @@@@@@@@@@@@@@@ OOOOOOOOOOOOOOOOOOOO @@@@@@@@ @@@@@@@@@@@ ",
" @@  @@@  @@ @@@@@@@@ @@@@@@@ OOOOOOO O O O O O  @@@@@@@@@ @@@@@@@@@@@ ",
" @    @    @ @@@@@@@   @@@@@@@  O O O o o o o o @@@@@@@@@@ @@@@@@@@@@@ ",
" @    @    @ @@@@@@     @@@@@@o o o oooooooooo @@@@@@@@@@  @@@@@@@@@@@ ",
" @@@@@@@@@@@ @@@@@       @@@@@@ ooooo          @@@@@@@@@   @@@@@@@@@@@ ",
" @@@@@@@@@@@ @@@@         @@@@@       @@@@@@@@  @@@@@@@ O  @@@@@@@@@@@ ",
" @@@@@ @@@@@ @@@           @@@@ @ @ @ @@@@@@@@ @ @@@@@@ O  @@@@@@@@@@@ ",
" @@@@   @@@@ @@             @@@ @ @ @     @    @ @@@@@@ O  @@@@@@@@@@@ ",
" @@@     @@@ @@             @@@ @ @ @  @   @    @@@@@@@ O  @@@@@@@@@@@ ",
" @@       @@ @               @@ @ @ @ @@@@ @@@ @ @@@@@@ O  @@@@@@@@@@@ ",
" @         @ @               @@ @ @ @ @@@@ @@@ @ @@@@@@ O  @@@@@@@@@@@ ",
" @         @ @               @@ @ @ @ @@@@ @@@ @ @@@@@@ O  @@@@@@@@@@@ ",
" @         @ @      @ @      @@ @ @ @ @@@   @@ @ @@@@@@ O  @@@@@@@@@@@ ",
" @@  @ @  @@ @@    @@ @@    @@@ @ @ @ @  @@@ @ @ @@@@@@ O  @@@@@@@@@@@ ",
" @@@@X X@@@@ @@@@@@@   @@@@@@   @ @ @ @ @   @@  @  @@@@ O  @@@@@@@@@@@ ",
" @@@@   @@@@ @@@@@@     @@@@ @@ @ @ @ @@@@@@@@ @ @@ @@@ O  @@@@@@@@@@@ ",
" @@@@@@@@@@@ @@@@@@@@@@@@@@ @ @ @ @ @ @@ @@@ @ @ @@ @@@ O  @@@@@@@@@@@ ",
" @@@@@@@@@@@ @@@@@@@@@@@@   @  @@ @ @  @ @ @ @ @@  O  @ O  @@@@@@@@@@@ ",
" @@@@@@@@@@@ @@@@@@@@@@   O  @@@ @@ @ @@ @   @@   O  @  O  @@@@@@@@@@@ ",
" @@@@@@@@@@@ @@@@@@@@  O oO     @  @ @@ @ @ O o  O  @ o O  @@@@@@@@@@@ ",
" @@@@@@@@@@@ @@@@@@    O   O  O        @ @  O   O  @    O  @@@@@@@@@@@ ",
" @@@@@@@@@@@ @@@@  O O  O  O o  O O O      O o O  @ ooo O  @@@@@@@@@@@ ",
" @@@@@@@@@@@ @@  oo     O o O oo      O O  O   O  @ o   O  @@@@@@@@@@@ ",
" @@@@@@@@@@@ @ oOO  O   O   O oooOOOO     O o O  @ oooo O  @@@@@@@@@@@ ",
" @@@@@@@@@@@  Ooo     O  O  O oooO   OOoo O   O  @ o    O  @@@@@@@@@@@ ",
" @@@@@@@@@@@ oOOo  O O O O o O ooOOOOOOoo O  O  @ ooooo O  @@@@@@@@@@@ ",
" @@@@@@@@@@@ ooO     O   O   O           O o O  @ o        @@@@@@@@@@@ ",
" @@@@@@@@@@@ Ooo  O O OOO O  O  @@@ @@@  O   O  @ o OOOO   @@@@@@@@@@@ ",
" @@@@@@@@@@@ OOo    O O   O  O @@ @@@ @@ O  O  @ o O   OOO @@@@@@@@@@@ ",
" @@@@@@@@@@@ oOO  O O OOO O o O @ @ @ @@ O  O  @ o OO @ OO @@@@@@@@@@@ ",
" @@@@@@@@@@@ ooO    O O   O   O @@@ @@@ O o O    oo    @   @@@@@@@@@@@ ",
" @@@@@@@@@@@ Ooo  O O OOOO O  O @ @@@ @ O   O O   ooooo    @@@@@@@@@@@ ",
" @@@@@@@@@@@ oOo    O O    O  O         O  O           @@@ @@@@@@@@@@@ ",
" @@@@@@@@@@@ ooO  O  O OOO O  O OOOOOOOOO  O        @@@    @@@@@@@@@@@ ",
" @@@@@@@@@@@   o     O O   O  O         O  O OO   O  @ @@@ @@@@@@@@@@@ ",
" @@@@@@@@@@@ @@ @  O  O OO O oO   ooo   O  O   OO    @@    @@@@@@@@@@@ ",
" @@@@@@@@@@@    @@    OO   O  O   ooo   Oo O OO O  O  @ @@ @@@@@@@@@@@ ",
" @@@@@@@@@@@ @@@ @  O   OO O  O         O  O   O O     o   @@@@@@@@@@@ ",
" @@@@@@@@@@@    @@@        O oO OOOOOOOOO  O OOO O  O  Ooo @@@@@@@@@@@ ",
" @@@@@@@@@@@ @@@      O    O  O         Oo O    O O    oOo @@@@@@@@@@@ ",
" @@@@@@@@@@@    ooooo   O O   O @ @@@ @ O  O OOOO O O  ooO @@@@@@@@@@@ ",
" @@@@@@@@@@@   @    oo    O o O @@@ @@@ O   O   O O    Ooo @@@@@@@@@@@ ",
" @@@@@@@@@@@ OO @ OO o @  O  O @@ @ @ @ O o O OOO O O  OOo @@@@@@@@@@@ ",
" @@@@@@@@@@@ OOO   O o @  O  O @@ @@@ @@ O  O   O O    oOO @@@@@@@@@@@ ",
" @@@@@@@@@@@   OOOO o @  O   O  @@@ @@@  O  O OOO O O  ooO @@@@@@@@@@@ ",
" @@@@@@@@@@@        o @  O o O           O   O   O     Ooo @@@@@@@@@@@ ",
" @@@@@@@@@@@  O ooooo @  O  O ooOOOOOOoo O o O O O O  oOOo @@@@@@@@@@@ ",
" @@@@@@@@@@@  O    o @  O   O ooOO   Oooo O  O  O     ooO  @@@@@@@@@@@ ",
" @@@@@@@@@@@  O oooo @  O o O     OOOOooo O   O   O  OOo @ @@@@@@@@@@@ ",
" @@@@@@@@@@@  O   o @  O   O  O O      oo O o O     oo  @@ @@@@@@@@@@@ ",
" @@@@@@@@@@@  O ooo @  O o O      O O O  o O  O  O O  @@@@ @@@@@@@@@@@ ",
" @@@@@@@@@@@  O    @  O   O  @          O  O   O    @@@@@@ @@@@@@@@@@@ ",
" @@@@@@@@@@@  O o @  O  o O @ @ @  @  @     Oo O  @@@@@@@@ @@@@@@@@@@@ ",
" @@@@@@@@@@@  O  @  O   @@   @ @@ @ @@ @@@  O   @@@@@@@@@@ @@@@@@@@@@@ ",
" @@@@@@@@@@@  O @  O  @@ @ @ @ @  @ @ @@  @   @@@@@@@@@@@@ @@@@@@@@@@@ ",
" @@@@@@@@@@@  O @@@ @@ @ @ @@@ @@ @ @ @ @ @ @@@@@@@@@@@@@@ @@@@@@@@@@@ ",
" @@@@@@@@@@@  O @@@ @@ @ @@@@@@@@ @ @ @ @@ @@@@     @@@@@@ @@@@   @@@@ ",
" @@@@@@@@@@@  O @@@@  @  @@   @ @ @ @ @   @@@@@@   @@@@@@@ @@@@X X@@@@ ",
" @@@@@@@@@@@  O @@@@@@ @ @ @@@  @ @ @ @ @@@    @@ @@    @@ @@  @ @  @@ ",
" @@@@@@@@@@@  O @@@@@@ @ @@   @@@ @ @ @ @@      @ @      @ @         @ ",
" @@@@@@@@@@@  O @@@@@@ @ @@@ @@@@ @ @ @ @@               @ @         @ ",
" @@@@@@@@@@@  O @@@@@@ @ @@@ @@@@ @ @ @ @@               @ @         @ ",
" @@@@@@@@@@@  O @@@@@@ @ @@@ @@@@ @ @ @ @@               @ @@       @@ ",
" @@@@@@@@@@@  O @@@@@@@    @   @  @ @ @ @@@             @@ @@@     @@@ ",
" @@@@@@@@@@@  O @@@@@@ @    @     @ @ @ @@@             @@ @@@@   @@@@ ",
" @@@@@@@@@@@  O @@@@@@ @ @@@@ @@@ @ @ @ @@@@           @@@ @@@@@ @@@@@ ",
" @@@@@@@@@@@  O @@@@@@@  @@@@@@@@       @@@@@         @@@@ @@@@@@@@@@@ ",
" @@@@@@@@@@@   @@@@@@@@@          ooooo @@@@@@       @@@@@ @@@@@@@@@@@ ",
" @@@@@@@@@@@  @@@@@@@@@@ oooooooooo o o o@@@@@@     @@@@@@ @    @    @ ",
" @@@@@@@@@@@ @@@@@@@@@@ o o o o o O O O  @@@@@@@   @@@@@@@ @    @    @ ",
" @@@@@@@@@@@ @@@@@@@@@  O O O O O OOOOOOO @@@@@@@ @@@@@@@@ @@  @@@  @@ ",
" @@@@@@@@@@@ @@@@@@@@ OOOOOOOOOOOOOOOOOOOO @@@@@@@@@@@@@@@ @@@  @@  @@ ",
" @@@@@@@@@@@                                               @@@@  @  @@ ",
" @@@@@@@@@@@@@@@@@@@@@@@@@@@@@@@@@@@@@@@@@@@@@@@@@@@@@@@@@@@@@@@    @@ ",
" @@@@@@@@@@@@@@@@@@@@@@@@@@@@@@@@@@@@@@@@@@@@@@@@@@@@@@@@@@@@@@@@   @@ ",
" @@@@@@@@@@@@@@@@@@@@@@@@@@@@@@@@@@@@@@@@@@@@@@@@@@@@@@@@@@@@@@@    @@ ",
" @@@@@@@@@@@@@@@@@@@@@@@@@@@@@@@@@@@@@@@@@@@@@@@@@@@@@@@@@@@@@@  @  @@ ",
" @@@@@@@@@@@@@@@@@@@@@@@@@@@@@@@@@@@@@@@@@@@@@@@@@@@@@@@@@@@@@  @@  @@ ",
" @@@@@@@@@@@@@@@@@@@@@@@@@@@@@@@@@@@@@@@@@@@@@@@@@@@@@@@@@@@    @    @ ",
" @@@@@@@@@@@@@@@@@@@@@@@@@@@@@@@@@@@@@@@@@@@@@@@@@@@@@@@@@@@    @    @ ",
" @@@@@@@@@@@@@@@@@@@@@@@@@@@@@@@@@@@@@@@@@@@@@@@@@@@@@@@@@@@@@@@@@@@@@ ",
" @@@@@@@@@@@@@@@@@@@@@@@@@@@@@@@@@@@@@@@@@@@@@@@@@@@@@@@@@@@@@@@@@@@@@ ",
" +@@@@@@@@@@@@@@@@@@@@@@@@@@@@@@@@@@@@@@@@@@@@@@@@@@@@@@@@@@@@@@@@@@@+ ",
".                                                                     ."
};
