/* XPM */
static char *sq[] = {
/* columns rows colors chars-per-pixel */
"71 96 7 1",
"  c black",
". c #008000",
"X c cyan",
"o c red",
"O c yellow",
"+ c #808080",
"@ c white",
/* pixels */
".                                                                     .",
" +@@@@@@@@@@@@@@@@@@@@@@@@@@@@@@@@@@@@@@@@@@@@@@@@@@@@@@@@@@@@@@@@@@@+ ",
" @@@@@@@@@@@@@@@@@@@@@@@@@@@@@@@@@@@@@@@@@@@@@@@@@@@@@@@@@@@@@@@@@@@@@ ",
" @@@@@@@@@@@@@@@@@@@@@@@@@@@@@@@@@@@@@@@@@@@@@@@@@@@@@@@@@@@@@@@@@@@@@ ",
" @@@     @@@@@@@@@@@@@@@@@@@@@@@@@@@@@@@@@@@@@@@@@@@@@@@@@@@@@@@@@@@@@ ",
" @@       @@@@@@@@@@@@@@@@@@@@@@@@@@@@@@@@@@@@@@@@@@@@@@@@@@@@@@@@@@@@ ",
" @@  @@@  @@@@@@@@@@@@@@@@@@@@@@@@@@@@@@@@@@@@@@@@@@@@@@@@@@@@@@@@@@@@ ",
" @@  @@@  @@@@@@@@@@@@@@@@@@@@@@@@@@@@@@@@@@@@@@@@@@@@@@@@@@@@@@@@@@@@ ",
" @@  @@@  @@@@@@@@@@@@@@@@@@@@@@@@@@@@@@@@@@@@@@@@@@@@@@@@@@@@@@@@@@@@ ",
" @@  @@@  @@@@@@@@@@@@@@@@@@@@@@@@@@@@@@@@@@@@@@@@@@@@@@@@@@@@@@@@@@@@ ",
" @@  @@@  @@@@@@@@@@@@@@@@@@@@@@@@@@@@@@@@@@@@@@@@@@@@@@@@@@@@@@@@@@@@ ",
" @@  @@@  @@                                               @@@@@@@@@@@ ",
" @@  @@@  @@ @@@@@@@@@@  @  @ @ @o O  OOOO @@@@@@@@@@@@@@@ @@@@@@@@@@@ ",
" @@  @@@  @@ @@ @@@@@@     @ @  @o OO OOO @@@@@@@ @@@@@@@@ @@@@@@@@@@@ ",
" @@       @@ @@ @@@@@@  @ @  @@ @o OOOOOO @@@@@@   @@@@@@@ @@@@@@@@@@@ ",
" @@@     @@@ @@ @@@@@@   @ @@ @@ o O  OO @@@@@@     @@@@@@ @@@@@@@@@@@ ",
" @@@@@@   @@ @ O @@@@@ @  @@@@ @ o OO OO @@@@@       @@@@@ @@@@@@@@@@@ ",
" @@@@@@@  @@ @ O @@@@  @ @@@@@@  oo OOOOO @@@         @@@@ @@@@@@@@@@@ ",
" @@@@@ @@@@@ @ O @@@@ o@    @    oo O  OO @@           @@@ @@@@@@@@@@@ ",
" @@@@   @@@@ @ O @@@@ o@   @   @ ooo O O @@             @@ @@@@@@@@@@@ ",
" @@@     @@@  OOO @@@ o@ @@@ @@@ @oo OO @@@             @@ @@@@@@@@@@@ ",
" @@       @@  O O @@@ o@ @@@ @@@@ ooo O @@               @ @@@@@@@@@@@ ",
" @         @  OOO @@ oo@ @@@ @@@@ @ooo  @@               @ @@@@@@@@@@@ ",
" @         @ @ O @@@ o@  @@   @@@@ ooo  @@               @ @@@@@@@@@@@ ",
" @         @ @ O @@@ o@  @@@@@@@@@ @ooo @@      @ @      @ @@@@@@@@@@@ ",
" @@  @ @  @@      @@ @    @   @@@ o @ooo @@    @@ @@    @@ @@@@@@@@@@@ ",
" @@@@X X@@@@  OOO @ o@    @@ @@@ o  @ooo  @@@@@@   @@@@@@@ @@@@@@@@@@@ ",
" @@@@   @@@@ @   @@ o@   O @@@@   O  @ooo  @@@@     @@@@@@ @@@@@@@@@@@ ",
" @@@@@@@@@@@  OOO @ o@ O  O    O O OO @ooo  @@@@@@@@@@@@@@ @@@@@@@@@@@ ",
" @@@@@@@@@@@  OOO @    OO  O O O  OO   @@@@  @@@@@@@oo@@@@ @@@@@@@@@@@ ",
" @@@@@@@@@@@ @   @@    OOOO     OOO        o  @@@@oo  oo@@ @@@@@@@@@@@ ",
" @@@@@@@@@@@ @ o @   @  O OOOOOO O   @@  oooo O@@oo OO oo@ @@@@@@@@@@@ ",
" @@@@@@@@@@@ @ O  O  @  OO O O OO  @@   ooo@ O  @@oo  oo@  @@@@@@@@@@@ ",
" @@@@@@@@@@@ @ O oOO     OOOOOOO  @   oooo@ O  O  @@oo@@ o @@@@@@@@@@@ ",
" @@@@@@@@@@@   O ooO  @  O O OO  @   ooo@@ O   OOO @ @@ Oo @@@@@@@@@@@ ",
" @@@@@@@@@@@   O ooO      OOOO  @  oooo@@ O o   OOO  @   O @@@@@@@@@@@ ",
" @@@@@@@@@@@   O ooOO  @  OOO  @  oooo@oo O        O     O @@@@@@@@@@@ ",
" @@@@@@@@@@@   O @ooO   @   O @  ooo@@ooo O ooo     @@@@ O @@@@@@@@@@@ ",
" @@@@@@@@@@@   O  ooOO    OO @  ooo@ooo   O        @@@@@ O @@@@@@@@@@@ ",
" @@@@@@@@@@@   O @ ooO   OooO  ooo@oo     OO oooo @@@@@@ O @@@@@@@@@@@ ",
" @@@@@@@@@@@   O  @ooOO  OooO ooo@o   @@   O     @@ @@  Oo @@@@@@@@@@@ ",
" @@@@@@@@@@@   O @  ooOO OooO oo@o   @@@@   O oo @       o @@@@@@@@@@@ ",
" @@@@@@@@@@@   O  @ oooOO OO oo@   o@@  @@   O     O       @@@@@@@@@@@ ",
" @@@@@@@@@@@   O @ @ oooOO   o@   @@     @@   O o OO O   O @@@@@@@@@@@ ",
" @@@@@@@@@@@   O  @ @ oooooooo   @@@@@@@@@@@   O OOO OOOO  @@@@@@@@@@@ ",
" @@@@@@@@@@@   O @ @ @                            OOOOO  O @@@@@@@@@@@ ",
" @@@@@@@@@@@   O  @ @ ooooooooooooooooooooooooooo      OO  @@@@@@@@@@@ ",
" @@@@@@@@@@@   O @ @   @   @   @   @   @   @   @   OOOO    @@@@@@@@@@@ ",
" @@@@@@@@@@@    OOOO   @   @   @   @   @   @   @       O   @@@@@@@@@@@ ",
" @@@@@@@@@@@  OO      ooooooooooooooooooooooooooo @ @  O   @@@@@@@@@@@ ",
" @@@@@@@@@@@ O  OOOOO                            @ @ @ O   @@@@@@@@@@@ ",
" @@@@@@@@@@@  OOOO OOO O   @@@@@@@@@@@   oooooooo @ @  O   @@@@@@@@@@@ ",
" @@@@@@@@@@@ O   O OO o O   @@     @@   @o   OOooo @ @ O   @@@@@@@@@@@ ",
" @@@@@@@@@@@       O     O   @@  @@o   @oo OO OOooo @  O   @@@@@@@@@@@ ",
" @@@@@@@@@@@ o       @ oo O   @@@@   o@oo OooO OOoo  @ O   @@@@@@@@@@@ ",
" @@@@@@@@@@@ oO  @@ @@     O   @@   o@ooo OooO  OOoo@  O   @@@@@@@@@@@ ",
" @@@@@@@@@@@ O @@@@@@ oooo OO     oo@ooo  OooO   Ooo @ O   @@@@@@@@@@@ ",
" @@@@@@@@@@@ O @@@@@        O   ooo@ooo  O OO    OOoo  O   @@@@@@@@@@@ ",
" @@@@@@@@@@@ O @@@@     ooo O ooo@@ooo    O       Ooo@ O   @@@@@@@@@@@ ",
" @@@@@@@@@@@ O     O        O oo@oooo  @  OOO     OOoo O   @@@@@@@@@@@ ",
" @@@@@@@@@@@ O      OOO   o O @@oooo  @  OOOO      Ooo O   @@@@@@@@@@@ ",
" @@@@@@@@@@@ oO  @ @ OOO   O @@ooo   @  OO O O     Ooo O   @@@@@@@@@@@ ",
" @@@@@@@@@@@ o  @oo@@  O  O @oooo   @  OOOOOOO     OOo O @ @@@@@@@@@@@ ",
" @@@@@@@@@@@   oo  oo@@  O @ooo   @   OO O O OO     O  O @ @@@@@@@@@@@ ",
" @@@@@@@@@@@  oo OO oo@@O oooo  @    O OOOOOO O      @ o @ @@@@@@@@@@@ ",
" @@@@@@@@@@@ @@oo  oo@@@@  o        OOO     OOOO    @@   @ @@@@@@@@@@@ ",
" @@@@@@@@@@@ @@@@oo@@@@@@@  @      OO  O O O  OO    @ OOO  @@@@@@@@@@@ ",
" @@@@@@@@@@@ @@@@@@@@@@@@@@  ooo  OO O O    O  O @o @ OOO  @@@@@@@@@@@ ",
" @@@@@@@@@@@ @@@@@@     @@@@  ooo@  O   @@@@ O   @o @@   @ @@@@   @@@@ ",
" @@@@@@@@@@@ @@@@@@@   @@@@@@  ooo@  o @@@ @@    @o @ OOO  @@@@X X@@@@ ",
" @@@@@@@@@@@ @@    @@ @@    @@ oooo o @@@   @    @ @@      @@  @ @  @@ ",
" @@@@@@@@@@@ @      @ @      @@ ooo@ @@@@@@@@@  @o @@@ O @ @         @ ",
" @@@@@@@@@@@ @               @@  ooo @@@@   @@  @o @@@ O @ @         @ ",
" @@@@@@@@@@@ @               @@  ooo@ @@@@ @@@ @oo @@ OOO  @         @ ",
" @@@@@@@@@@@ @               @@ O ooo @@@@ @@@ @o @@@ O O  @@       @@ ",
" @@@@@@@@@@@ @@             @@  OO oo@ @@@ @@@ @o @@@ OOO  @@@     @@@ ",
" @@@@@@@@@@@ @@             @  O O ooo @   @   @o @@@@ O @ @@@@   @@@@ ",
" @@@@@@@@@@@ @@@           @@ OO  O oo    @    @o @@@@ O @ @@@@@ @@@@@ ",
" @@@@@@@@@@@ @@@@         @@@ OOOOO oo  @@@@@@ o  @@@@ O @ @@  @@@@@@@ ",
" @@@@@@@@@@@ @@@@@       @@@@@ OO OO o @ @@@@  o @@@@@ O @ @@   @@@@@@ ",
" @@@@@@@@@@@ @@@@@@     @@@@@@ OO  O o @@ @@ @   @@@@@@ @@ @@@     @@@ ",
" @@@@@@@@@@@ @@@@@@@   @@@@@@ OOOOOO o@ @@  @ @  @@@@@@ @@ @@       @@ ",
" @@@@@@@@@@@ @@@@@@@@ @@@@@@  OOO OO o@  @ @     @@@@@@ @@ @@  @@@  @@ ",
" @@@@@@@@@@@ @@@@@@@@@@@@@@  OOOO  O o@ @ @  @  @@@@@@@@@@ @@  @@@  @@ ",
" @@@@@@@@@@@                                               @@  @@@  @@ ",
" @@@@@@@@@@@@@@@@@@@@@@@@@@@@@@@@@@@@@@@@@@@@@@@@@@@@@@@@@@@@  @@@  @@ ",
" @@@@@@@@@@@@@@@@@@@@@@@@@@@@@@@@@@@@@@@@@@@@@@@@@@@@@@@@@@@@  @@@  @@ ",
" @@@@@@@@@@@@@@@@@@@@@@@@@@@@@@@@@@@@@@@@@@@@@@@@@@@@@@@@@@@@  @@@  @@ ",
" @@@@@@@@@@@@@@@@@@@@@@@@@@@@@@@@@@@@@@@@@@@@@@@@@@@@@@@@@@@@  @@@  @@ ",
" @@@@@@@@@@@@@@@@@@@@@@@@@@@@@@@@@@@@@@@@@@@@@@@@@@@@@@@@@@@@  @@@  @@ ",
" @@@@@@@@@@@@@@@@@@@@@@@@@@@@@@@@@@@@@@@@@@@@@@@@@@@@@@@@@@@@       @@ ",
" @@@@@@@@@@@@@@@@@@@@@@@@@@@@@@@@@@@@@@@@@@@@@@@@@@@@@@@@@@@@@     @@@ ",
" @@@@@@@@@@@@@@@@@@@@@@@@@@@@@@@@@@@@@@@@@@@@@@@@@@@@@@@@@@@@@@@@@@@@@ ",
" @@@@@@@@@@@@@@@@@@@@@@@@@@@@@@@@@@@@@@@@@@@@@@@@@@@@@@@@@@@@@@@@@@@@@ ",
" +@@@@@@@@@@@@@@@@@@@@@@@@@@@@@@@@@@@@@@@@@@@@@@@@@@@@@@@@@@@@@@@@@@@+ ",
".                                                                     ."
};
